<svg width="40" height="40" viewBox="0 0 40 40" fill="none" xmlns="http://www.w3.org/2000/svg">
<path fill-rule="evenodd" clip-rule="evenodd" d="M14.2794 24.295H14.2741V22.0113H12V17.4375H14.2741V15.1475H14.2794H15.9599L16.5662 14.5412V12.8606H18.2468L18.8531 12.2543V10.5738H20.5337L21.14 9.96746V8.28688H22.8206L23.4269 7.68058V6H25.1075H25.7137H28.0006V8.28688V8.89317V10.5738H26.32L25.7137 11.18V12.8606H24.0332L23.4269 13.4669V15.1475H21.7463L21.14 15.7538V17.4344H19.4594L18.8531 18.0407V19.7213V21.4018L19.4594 22.0081H21.14V23.6887L21.7463 24.295H23.4269V25.9756L24.0332 26.5819H25.7137V28.2625L26.32 28.8688H28.0006V30.5493V31.1556V33.4425H25.7137H23.4269V31.7619L22.8206 31.1556H21.14V29.4751L20.5337 28.8688H18.8531V27.1882L18.2468 26.5819H16.5662V24.9013L15.9599 24.295H14.2794Z" fill="white"/>
</svg>
