<svg width="277" height="80" viewBox="0 0 277 80" fill="none" xmlns="http://www.w3.org/2000/svg">
<rect x="48" y="68" width="184" height="2" fill="white"/>
<path d="M49.5963 38.2633C49.5963 34.6864 50.2023 31.4938 51.4143 28.6855C52.6559 25.8476 54.4 23.6305 56.6467 22.0342C58.8933 20.4379 61.4799 19.6397 64.4065 19.6397C65.8254 19.6397 67.0226 19.8171 67.9982 20.1718C69.0032 20.497 70.0527 20.9404 71.1464 21.5021C71.442 21.6794 71.7229 21.8273 71.9889 21.9455C72.255 22.0637 72.4619 22.1229 72.6097 22.1229C72.9053 22.1229 73.1122 22.0046 73.2305 21.7681C73.3783 21.5021 73.4522 20.9404 73.4522 20.0831H74.4721L75.1372 32.2771H74.1173C73.4079 25.0642 70.4961 21.4577 65.382 21.4577C63.224 21.4577 61.3617 22.1968 59.7949 23.6748C58.2577 25.1233 57.0753 27.1187 56.2476 29.661C55.4494 32.2032 55.0503 35.0707 55.0503 38.2633C55.0503 41.4559 55.4494 44.2938 56.2476 46.7769C57.0457 49.26 58.2134 51.2111 59.7506 52.63C61.2878 54.0194 63.1206 54.7141 65.249 54.7141C68.0277 54.7141 70.3483 53.5612 72.2106 51.2554C74.073 48.9497 75.2702 45.757 75.8023 41.6776H76.8665C76.2457 46.3483 74.8859 50.0582 72.7871 52.8074C70.6882 55.527 67.8208 56.8868 64.1848 56.8868C61.2582 56.8868 58.6864 56.0887 56.4693 54.4924C54.2818 52.8961 52.582 50.6938 51.37 47.8855C50.1875 45.0476 49.5963 41.8402 49.5963 38.2633ZM88.8786 56.8868C86.8389 56.8868 85.0652 56.34 83.5576 55.2462C82.05 54.1524 80.8823 52.6596 80.0546 50.7677C79.2565 48.8462 78.8574 46.6882 78.8574 44.2938C78.8574 41.8993 79.2565 39.7561 80.0546 37.8642C80.8823 35.9427 82.05 34.4351 83.5576 33.3413C85.0652 32.2476 86.8389 31.7007 88.8786 31.7007C90.8888 31.7007 92.6477 32.2476 94.1553 33.3413C95.6629 34.4351 96.8158 35.9427 97.614 37.8642C98.4417 39.7561 98.8555 41.8993 98.8555 44.2938C98.8555 46.6882 98.4417 48.8462 97.614 50.7677C96.8158 52.6596 95.6629 54.1524 94.1553 55.2462C92.6477 56.34 90.8888 56.8868 88.8786 56.8868ZM89.8098 55.0245C90.9331 54.9062 91.8348 54.4185 92.5147 53.5612C93.2241 52.7039 93.6971 51.4771 93.9336 49.8808C94.1996 48.255 94.244 46.2448 94.0666 43.8503C93.8597 41.4559 93.4754 39.4901 92.9137 37.9529C92.3816 36.4157 91.7017 35.2776 90.874 34.5386C90.0463 33.7995 89.056 33.4891 87.9031 33.6074C86.7798 33.6961 85.8634 34.1838 85.1539 35.0707C84.474 35.9279 84.001 37.1547 83.735 38.751C83.4985 40.3473 83.4689 42.3575 83.6463 44.7815C83.8532 47.176 84.2227 49.1418 84.7548 50.679C85.3165 52.1866 86.0112 53.3099 86.8389 54.049C87.6666 54.788 88.6569 55.1132 89.8098 55.0245ZM107.414 36.2679H107.547C108.522 34.849 109.542 33.7404 110.606 32.9423C111.7 32.1146 112.927 31.7007 114.286 31.7007C117.45 31.7007 119.031 33.8291 119.031 38.0859V51.4328C119.031 52.4379 119.09 53.1769 119.208 53.6499C119.356 54.1229 119.607 54.4628 119.962 54.6697C120.347 54.8471 120.938 54.9358 121.736 54.9358V56H118.632H115.262H112.158V54.9358C112.986 54.9358 113.577 54.8471 113.932 54.6697C114.316 54.4628 114.567 54.1229 114.686 53.6499C114.833 53.1769 114.907 52.4379 114.907 51.4328V37.9529C114.907 36.7409 114.73 35.8688 114.375 35.3367C114.02 34.7751 113.444 34.4942 112.646 34.4942C111.02 34.4942 109.276 35.7062 107.414 38.1303V51.4328C107.414 52.4379 107.473 53.1769 107.591 53.6499C107.709 54.1229 107.96 54.4628 108.345 54.6697C108.729 54.8471 109.32 54.9358 110.118 54.9358V56H107.014H103.689H100.097V54.9358C101.014 54.9358 101.693 54.8471 102.137 54.6697C102.58 54.4628 102.876 54.1229 103.024 53.6499C103.171 53.1769 103.245 52.4379 103.245 51.4328V38.0859V37.7755C103.245 36.8 103.201 36.1349 103.112 35.7801C103.024 35.4254 102.802 35.248 102.447 35.248C102.122 35.2185 101.531 35.3958 100.674 35.7801L100.274 34.849L103.644 33.297L106.793 31.7007L107.414 32.3215V36.2679ZM119.031 36.2679C120.066 34.8785 121.159 33.77 122.312 32.9423C123.465 32.1146 124.722 31.7007 126.081 31.7007C127.678 31.7007 128.831 32.2476 129.54 33.3413C130.279 34.4055 130.649 35.9871 130.649 38.0859V51.4328C130.649 52.4379 130.723 53.1769 130.87 53.6499C131.048 54.1229 131.343 54.4628 131.757 54.6697C132.201 54.8471 132.88 54.9358 133.797 54.9358V56H130.205H126.924H123.82V54.9358C124.618 54.9358 125.195 54.8471 125.549 54.6697C125.934 54.4628 126.185 54.1229 126.303 53.6499C126.451 53.1769 126.525 52.4379 126.525 51.4328V37.9529C126.525 36.7409 126.347 35.8688 125.993 35.3367C125.638 34.7751 125.062 34.4942 124.263 34.4942C122.638 34.4942 120.893 35.7062 119.031 38.1303L118.898 36.2679H119.031ZM140.395 36.8887C141.401 35.2037 142.48 33.9178 143.632 33.0309C144.815 32.1441 146.116 31.7007 147.535 31.7007C149.84 31.7007 151.555 32.7501 152.678 34.849C153.801 36.9478 154.363 39.6379 154.363 42.9192C154.363 45.491 154.008 47.8411 153.299 49.9695C152.589 52.0979 151.584 53.7829 150.284 55.0245C148.983 56.2661 147.549 56.8868 145.983 56.8868C144.8 56.8868 143.736 56.606 142.79 56.0443C141.844 55.4827 141.016 54.6254 140.307 53.4725H140.218V36.8887H140.395ZM140.218 47.2203C140.218 49.6443 140.676 51.5658 141.593 52.9848C142.509 54.3741 143.677 55.0688 145.096 55.0688C146.722 55.0688 147.874 54.0342 148.554 51.9649C149.264 49.8956 149.619 47.309 149.619 44.2051C149.619 40.8647 149.308 38.3815 148.687 36.7557C148.096 35.1298 147.106 34.3169 145.717 34.3169C144.682 34.3169 143.677 34.7307 142.701 35.5584C141.755 36.3566 140.928 37.3617 140.218 38.5737V47.2203ZM140.218 61.188C140.218 62.1931 140.292 62.9321 140.44 63.4051C140.617 63.8781 140.913 64.2032 141.327 64.3806C141.77 64.5875 142.45 64.691 143.366 64.691V65.7552H139.775H136.538H132.946V64.691C133.862 64.691 134.528 64.5875 134.941 64.3806C135.385 64.2032 135.68 63.8781 135.828 63.4051C136.006 62.9321 136.094 62.1931 136.094 61.188V38.0859V37.7755C136.094 36.7704 136.05 36.0905 135.961 35.7358C135.873 35.3811 135.666 35.2037 135.341 35.2037C135.045 35.2037 134.483 35.3663 133.656 35.6915L133.212 34.7603L136.493 33.297L139.642 31.7007L140.218 32.3215V61.188ZM172.55 52.9848C172.55 53.7238 172.609 54.2559 172.728 54.5811C172.846 54.9062 173.112 55.0688 173.526 55.0688C173.88 55.0688 174.161 54.921 174.368 54.6254C174.575 54.3298 174.826 53.7829 175.122 52.9848H176.142L176.098 53.2065C175.713 54.4776 175.24 55.4088 174.679 56C174.147 56.5912 173.304 56.8868 172.151 56.8868C170.88 56.8868 169.934 56.5173 169.313 55.7783C168.692 55.0393 168.382 53.9455 168.382 52.497V38.6624C168.382 37.4208 168.308 36.4157 168.16 35.6471C168.013 34.8785 167.687 34.2873 167.185 33.8734C166.682 33.4596 165.958 33.2527 165.012 33.2527C164.125 33.2527 163.386 33.4448 162.795 33.8291C162.233 34.2134 161.953 34.7307 161.953 35.3811C161.953 35.7654 162.071 36.194 162.307 36.667C162.544 37.2582 162.662 37.746 162.662 38.1303C162.662 38.6624 162.44 39.091 161.997 39.4162C161.583 39.7413 161.021 39.9039 160.312 39.9039C159.543 39.9039 158.937 39.6379 158.494 39.1058C158.08 38.5737 157.873 37.8199 157.873 36.8443C157.873 35.3072 158.568 34.0656 159.957 33.1196C161.347 32.1737 163.135 31.7007 165.323 31.7007C167.599 31.7007 169.372 32.2919 170.644 33.4744C171.915 34.6568 172.55 36.4157 172.55 38.751V52.9848ZM168.426 52.3196H168.293C168.293 52.3492 168.279 52.364 168.249 52.364C168.249 52.364 168.249 52.3788 168.249 52.4083C167.54 53.5908 166.668 54.6402 165.633 55.5566C164.598 56.4434 163.268 56.8868 161.642 56.8868C160.075 56.8868 158.849 56.3843 157.962 55.3792C157.075 54.3741 156.632 53.0143 156.632 51.2998C156.632 49.6443 157.016 48.2697 157.784 47.176C158.583 46.0527 159.543 45.151 160.667 44.4711C161.79 43.7912 163.327 43.0226 165.278 42.1654L166.298 41.7219L168.382 40.7464V42.3871L166.431 43.3182C164.598 44.2051 163.194 45.1954 162.219 46.2891C161.243 47.3829 160.755 48.6836 160.755 50.1912C160.755 51.3441 161.021 52.2309 161.553 52.8517C162.086 53.4725 162.795 53.7829 163.682 53.7829C164.539 53.7829 165.323 53.5316 166.032 53.0291C166.741 52.5266 167.54 51.6988 168.426 50.546V52.3196ZM190.251 36.8887C189.69 36.8887 189.246 36.7852 188.921 36.5783C188.596 36.3714 188.315 36.061 188.079 35.6471C187.901 35.3811 187.739 35.1889 187.591 35.0707C187.443 34.9524 187.266 34.8933 187.059 34.8933C186.438 34.8933 185.832 35.2037 185.241 35.8245C184.679 36.4453 184.014 37.4503 183.245 38.8397V36.3122H183.378C184.088 35.0115 184.93 33.9178 185.906 33.0309C186.881 32.1441 188.019 31.7007 189.32 31.7007C190.296 31.7007 191.079 31.952 191.67 32.4545C192.291 32.9275 192.601 33.5778 192.601 34.4055C192.601 35.115 192.394 35.7062 191.981 36.1792C191.567 36.6522 190.99 36.8887 190.251 36.8887ZM179.077 38.0859V37.7755C179.077 36.8 179.033 36.1349 178.944 35.7801C178.855 35.4254 178.634 35.248 178.279 35.248C177.954 35.2185 177.363 35.3958 176.505 35.7801L176.106 34.849L179.476 33.297L182.624 31.7007L183.245 32.3215V51.4328C183.245 52.4379 183.349 53.1769 183.556 53.6499C183.792 54.1229 184.236 54.4628 184.886 54.6697C185.536 54.8471 186.556 54.9358 187.945 54.9358V56H182.58H179.521H175.929V54.9358C176.845 54.9358 177.525 54.8471 177.969 54.6697C178.412 54.4628 178.708 54.1229 178.855 53.6499C179.003 53.1769 179.077 52.4379 179.077 51.4328V38.0859ZM207.676 46.2448C207.676 48.7279 207.528 50.7381 207.233 52.2753C206.937 53.7829 206.405 54.9358 205.636 55.7339C204.897 56.5025 203.848 56.8868 202.488 56.8868C200.655 56.8868 199.266 56.2513 198.32 54.9801C197.374 53.6794 196.901 51.5806 196.901 48.6836V34.4499H193.442V32.5875C194.832 32.558 195.94 32.3363 196.768 31.9224C197.625 31.5085 198.291 30.8582 198.764 29.9714C199.236 29.0845 199.532 27.843 199.65 26.2467H201.025V32.5875H206.169V34.4499H201.025V47.2647C201.025 48.9201 201.084 50.2356 201.202 51.2111C201.321 52.157 201.572 52.9109 201.956 53.4725C202.34 54.0046 202.932 54.2707 203.73 54.2707C204.41 54.2707 204.957 54.0194 205.37 53.5169C205.784 52.9848 206.095 52.1423 206.302 50.9894C206.509 49.8069 206.627 48.2254 206.656 46.2448H207.676ZM215.699 51.4328C215.699 52.4379 215.773 53.1769 215.921 53.6499C216.069 54.1229 216.35 54.4628 216.763 54.6697C217.207 54.8471 217.887 54.9358 218.803 54.9358V56H215.256H211.975H208.383V54.9358C209.299 54.9358 209.979 54.8471 210.423 54.6697C210.866 54.4628 211.162 54.1229 211.309 53.6499C211.457 53.1769 211.531 52.4379 211.531 51.4328V38.0859V37.7755C211.531 36.8 211.487 36.1349 211.398 35.7801C211.309 35.4254 211.088 35.248 210.733 35.248C210.408 35.2185 209.817 35.3958 208.959 35.7801L208.56 34.849L211.93 33.297L215.079 31.7007L215.699 32.3215V51.4328ZM213.394 24.8277C212.684 24.8277 212.078 24.5764 211.576 24.0739C211.073 23.5714 210.822 22.9654 210.822 22.2559C210.822 21.5169 211.073 20.8961 211.576 20.3935C212.078 19.891 212.684 19.6397 213.394 19.6397C214.133 19.6397 214.753 19.891 215.256 20.3935C215.758 20.8961 216.01 21.5169 216.01 22.2559C216.01 22.9654 215.758 23.5714 215.256 24.0739C214.753 24.5764 214.133 24.8277 213.394 24.8277ZM233.823 36.8887C233.261 36.8887 232.818 36.7852 232.492 36.5783C232.167 36.3714 231.886 36.061 231.65 35.6471C231.472 35.3811 231.31 35.1889 231.162 35.0707C231.014 34.9524 230.837 34.8933 230.63 34.8933C230.009 34.8933 229.403 35.2037 228.812 35.8245C228.25 36.4453 227.585 37.4503 226.817 38.8397V36.3122H226.95C227.659 35.0115 228.502 33.9178 229.477 33.0309C230.453 32.1441 231.591 31.7007 232.891 31.7007C233.867 31.7007 234.65 31.952 235.242 32.4545C235.862 32.9275 236.173 33.5778 236.173 34.4055C236.173 35.115 235.966 35.7062 235.552 36.1792C235.138 36.6522 234.562 36.8887 233.823 36.8887ZM222.648 38.0859V37.7755C222.648 36.8 222.604 36.1349 222.515 35.7801C222.427 35.4254 222.205 35.248 221.85 35.248C221.525 35.2185 220.934 35.3958 220.077 35.7801L219.678 34.849L223.048 33.297L226.196 31.7007L226.817 32.3215V51.4328C226.817 52.4379 226.92 53.1769 227.127 53.6499C227.363 54.1229 227.807 54.4628 228.457 54.6697C229.108 54.8471 230.127 54.9358 231.517 54.9358V56H226.151H223.092H219.5V54.9358C220.417 54.9358 221.097 54.8471 221.54 54.6697C221.983 54.4628 222.279 54.1229 222.427 53.6499C222.575 53.1769 222.648 52.4379 222.648 51.4328V38.0859Z" fill="white"/>
<path d="M206.785 38.3239C206.895 36.8029 208.379 35.4373 207.022 33.6924C206.368 32.8474 207.546 31.8255 207.727 30.8205C207.819 30.322 208.796 30.4935 209.452 30.6457C210.153 30.8117 210.612 30.9132 209.975 31.6989C209.893 31.803 209.856 32.0876 209.909 32.1327C211.889 33.604 211.049 35.4752 210.681 37.2948C210.55 37.9367 210.435 38.6747 211.136 39.0074C211.725 39.2932 213.806 43.3921 210.752 44.2181C208.963 44.701 206.752 38.7576 206.787 38.3318L206.785 38.3239Z" fill="white"/>
<path d="M51.6578 32.8938C51.2371 32.4407 50.4442 33.2822 50.1367 32.554C49.9668 32.1413 50.3551 31.8096 50.6302 31.5021C51.3423 30.7173 51.229 32.2708 51.9248 31.8096C51.2614 30.5635 52.5721 29.8111 52.7987 28.7188C52.9686 27.9177 53.7615 27.942 53.9962 28.0634C54.5706 28.3708 55.8329 28.7916 55.6306 28.9857C54.4736 30.0861 56.0594 30.604 56.019 31.4778C55.9623 32.7562 55.3879 33.6948 54.8296 34.6981C54.425 35.4263 54.2794 36.3083 54.7406 36.8504C55.2908 37.4977 54.514 44.1971 54.6192 45.1115C54.9105 47.8058 51.9006 46.5031 51.7387 44.359C51.7064 43.914 52.0219 43.3557 51.5284 43.0482C50.1124 42.1663 50.5089 40.7827 50.1933 39.48C49.6027 37.0769 50.4522 35.394 51.5688 33.5896C51.6578 33.444 51.674 33.2579 51.7145 33.088C51.7226 33.0394 51.6902 32.9828 51.6659 32.8857L51.6578 32.8938ZM55.5254 39.3586C55.0318 40.1839 55.0966 41.1225 55.3474 41.9074C55.582 42.6598 56.6501 37.4653 55.5254 39.3586Z" fill="white"/>
<path d="M94.9052 48.7989C94.3711 48.5643 94.7595 47.8037 94.0313 47.6985C93.8614 48.9688 93.0442 49.8589 92.1137 50.7246C90.7058 48.5319 91.2075 46.1046 91.0295 43.7824C91.0052 43.4911 90.9081 43.0704 91.2803 43.0866C92.5992 43.1513 93.9989 42.7386 95.2126 43.2969C95.6819 43.5154 97.3163 44.276 95.5039 45.255C95.0832 45.4816 95.6091 45.9913 95.6495 46.3797C95.7547 47.3182 95.4149 48.0707 94.9052 48.7989Z" fill="white"/>
<path d="M228.078 50.7932C226.816 48.5276 227.067 46.2297 227.002 43.9642C226.961 42.7101 227.568 43.0014 229.186 43.0984C229.559 43.1227 229.923 43.058 230.287 43.0175C231.355 42.9043 232.164 44.393 232.116 44.4416C230.74 45.6472 232.504 47.8641 230.619 48.8351C230.101 48.6733 230.344 47.937 229.769 47.3301C229.672 48.8917 229.073 49.9112 228.078 50.8013V50.7932Z" fill="white"/>
<path d="M193.917 31.2927C193.019 31.2441 192.598 30.4026 192.412 29.4641C192.113 27.9186 195.738 28.0481 196.199 28.5417C196.628 29.011 194.888 31.2927 193.917 31.2846V31.2927Z" fill="white"/>
<path d="M60.5316 29.4449C60.3293 27.9075 61.721 27.8105 62.5867 27.5273C63.1855 27.3331 63.9622 28.0532 64.2454 28.7571C64.4234 29.2021 62.5463 31.3301 62.1255 31.2978C61.0251 31.2007 60.4345 30.6343 60.5316 29.4368V29.4449Z" fill="white"/>
<path d="M223.937 34.5757C224.423 33.3863 224.56 32.7309 223.347 32.8685C222.61 32.9494 222.214 32.3425 222.06 31.7033C221.914 31.1127 222.012 30.4897 222.594 30.1579C223.25 29.7857 223.711 30.1256 224.261 30.5787C225.895 31.9056 225.968 32.9656 223.929 34.5838L223.937 34.5757Z" fill="white"/>
<path d="M121.04 35.2115C120.482 34.8959 122.108 33.8764 120.66 33.9088C119.64 33.9331 119.09 33.569 119.033 32.5576C119.001 31.9993 118.855 31.3439 119.592 31.085C120.546 30.7532 121.186 31.4653 121.736 31.975C122.691 32.8569 122.262 34.5804 121.04 35.2115Z" fill="white"/>
<path d="M142.194 29.9936C141.353 29.2897 140.73 28.4886 139.565 28.2055C138.529 27.9546 139.193 26.9999 139.411 26.4416C139.727 25.6244 140.228 26.1341 140.649 26.4416C141.822 27.2992 142.033 28.61 142.194 30.0017V29.9936Z" fill="white"/>
<path d="M137.369 24.8566C136.932 24.5087 135.953 25.0831 136.002 24.2255C136.034 23.651 136.584 22.947 137.402 23.0199C138.13 23.0846 138.826 23.4487 138.728 24.2902C138.639 25.1236 137.822 24.6543 137.361 24.8566H137.369Z" fill="white"/>
<path d="M134.315 19.0245C134.404 19.7365 134.17 20.1572 133.393 20.1572C132.64 20.1572 131.969 19.4776 132.001 19.1135C132.082 18.2963 133.069 18.1749 133.725 18.0212C134.396 17.8674 134.267 18.5875 134.315 19.0164V19.0245Z" fill="white"/>
<path d="M68.1045 25C68.7195 25.0647 69.4719 25.0566 69.6661 25.9467C69.7389 26.2865 69.4881 26.8934 69.2211 26.6668C68.5415 26.0842 67.3844 26.4402 67.0365 25.6392C66.8261 25.1456 67.5705 25.0405 68.1126 25.0081L68.1045 25Z" fill="white"/>
<path fill-rule="evenodd" clip-rule="evenodd" d="M257.504 56.7296C257.845 57.6075 258.014 58.5209 258.122 59.4524L258.131 59.4511C258.147 59.5529 258.162 59.6552 258.177 59.7578C258.208 59.9633 258.238 60.1694 258.276 60.3726C258.377 60.9367 258.598 61.1602 259.155 61.0938C260.32 60.9573 261.485 60.7995 262.636 60.5804C263.425 60.4309 263.744 59.9531 263.537 59.1768C263.357 58.4965 263.238 57.8045 263.119 57.1134C263.065 56.801 263.011 56.4888 262.951 56.1779C262.826 55.5315 262.611 54.9129 262.395 54.2926C262.344 54.1441 262.292 53.9954 262.242 53.8462C262.001 53.1354 261.955 52.3959 261.909 51.6569C261.883 51.2548 261.858 50.8529 261.802 50.4559C261.606 49.0766 263.007 47.6962 264.401 47.9174C264.9 47.9955 265.354 47.9241 265.816 47.733C267.083 47.2034 268.388 46.833 269.779 46.8431C270.143 46.845 270.494 46.7602 270.842 46.6335C270.952 46.5939 271.061 46.5536 271.17 46.5134C271.951 46.2257 272.725 45.9401 273.586 45.9311C274.588 45.9217 274.78 45.6078 274.616 44.6174C274.509 43.9655 274.31 43.3395 274.11 42.7132C273.945 42.1933 273.779 41.6731 273.666 41.1378C273.597 40.8016 273.282 40.7113 272.965 40.74C272.618 40.7692 272.284 40.8555 271.962 40.9908C271.078 41.3712 270.193 41.6925 269.209 41.3898C269.111 41.3587 268.998 41.3638 268.898 41.3794C268.433 41.4513 267.966 41.5097 267.498 41.5681C266.455 41.6985 265.412 41.8288 264.398 42.1083C264.369 42.1163 264.34 42.1242 264.311 42.1322C263.316 42.4083 262.357 42.6741 261.307 42.3784C260.925 42.269 260.617 42.1396 260.445 41.7983C260.236 41.3911 259.44 36.7042 258.667 32.1593C258.504 31.1965 258.341 30.2401 258.185 29.3322C258.239 29.1592 258.268 28.9746 258.264 28.7733C258.251 28.1771 258.142 27.5961 258.033 27.015C257.947 26.5596 257.862 26.1042 257.823 25.6415C257.754 24.7946 257.591 23.9626 257.428 23.1312C257.301 22.485 257.175 21.8393 257.093 21.1874C257.074 21.0392 257.056 20.891 257.037 20.7429C256.887 19.5219 256.738 18.3063 256.315 17.1304C256.115 16.5754 255.992 15.9973 255.869 15.4178C255.752 14.8632 255.634 14.3073 255.448 13.7691C255.075 12.6888 254.307 12.276 253.235 12.6265C252.902 12.7383 252.56 12.7709 252.214 12.7278C251.877 12.6835 251.562 12.7583 251.257 12.891C250.652 13.1598 250.531 13.4413 250.67 14.0842C250.747 14.4338 250.823 14.7838 250.899 15.1338C251.09 16.0132 251.281 16.8923 251.481 17.7634C251.758 18.9634 251.92 20.1806 252.082 21.3972C252.272 22.8196 252.461 24.2412 252.833 25.6342C253.17 26.8855 253.405 28.1654 253.386 29.4726L253.381 29.4649C253.429 29.9116 253.578 30.3302 253.727 30.7492C253.869 31.1463 254.01 31.5437 254.066 31.9656C254.091 32.1611 254.183 32.3443 254.314 32.5027C255.167 37.6463 256.052 42.6492 256.122 43.0411C256.197 43.4613 255.898 43.7962 255.512 43.9798C255.166 44.1485 254.814 44.1742 254.514 43.853C254.386 43.7163 254.217 43.6625 254.038 43.7076C253.651 43.8065 253.257 43.8238 252.861 43.8411C252.423 43.8603 251.982 43.8796 251.549 44.0101C251.104 44.1462 250.642 44.2169 250.18 44.2877C249.518 44.3892 248.854 44.4909 248.232 44.7856C247.543 45.1142 246.791 45.1265 246.046 45.0702C245.657 45.0424 245.268 45.0502 244.878 45.0581C244.58 45.0641 244.281 45.07 243.982 45.0602C243.156 45.0333 242.73 45.7694 243.001 46.5483C243.21 47.1506 243.362 47.7702 243.446 48.4092C243.635 49.8572 244.165 50.4005 245.697 50.1257C246.497 49.9831 247.295 49.9841 248.091 49.9852C248.891 49.9863 249.688 49.9873 250.484 49.843C250.904 49.7667 251.331 49.7238 251.758 49.681C252.733 49.583 253.708 49.4851 254.601 48.9882C254.757 48.9002 254.932 48.9108 255.109 48.9296C256.121 49.0414 256.587 49.4425 256.699 50.5638C256.769 51.2589 256.868 51.9503 256.966 52.6416C257.111 53.6622 257.257 54.6825 257.31 55.7141C257.327 56.0629 257.377 56.4066 257.504 56.7296Z" fill="white"/>
<path fill-rule="evenodd" clip-rule="evenodd" d="M27.51 20.1327C27.3233 19.2095 27.3124 18.2806 27.3644 17.3443L27.3561 17.3442C27.3576 17.2411 27.3601 17.1377 27.3626 17.0341C27.3677 16.8264 27.3727 16.618 27.3703 16.4115C27.3665 15.8383 27.1864 15.5803 26.6263 15.5508C25.4559 15.4869 24.2809 15.4439 23.1093 15.4636C22.3059 15.4764 21.9104 15.8929 21.9819 16.6931C22.0432 17.3941 22.043 18.0963 22.0427 18.7977C22.0426 19.1146 22.0425 19.4315 22.0481 19.748C22.0617 20.4063 22.168 21.0525 22.2746 21.7004C22.3002 21.8556 22.3257 22.0109 22.35 22.1665C22.466 22.9079 22.3856 23.6445 22.3052 24.3805C22.2615 24.781 22.2178 25.1813 22.2058 25.5822C22.1636 26.9746 20.5483 28.0962 19.2124 27.6407C18.7338 27.4786 18.2737 27.4716 17.7868 27.5813C16.4476 27.8871 15.0983 28.0296 13.7299 27.7828C13.3711 27.7188 13.011 27.7425 12.646 27.8081C12.5313 27.8284 12.4168 27.8494 12.3025 27.8705C11.4843 28.021 10.6724 28.1704 9.82291 28.0327C8.8339 27.8711 8.59122 28.1477 8.58424 29.1516C8.57871 29.8122 8.66828 30.463 8.75789 31.1141C8.83227 31.6546 8.90669 32.1953 8.92679 32.7421C8.93828 33.0853 9.23311 33.2279 9.55066 33.2537C9.89742 33.2841 10.2409 33.2558 10.581 33.1774C11.5173 32.9532 12.4444 32.7875 13.3618 33.2533C13.4531 33.3008 13.5659 33.315 13.6662 33.3166C14.1371 33.325 14.6077 33.3471 15.078 33.3692C16.1286 33.4185 17.1779 33.4678 18.2255 33.3653C18.2552 33.3624 18.2848 33.3594 18.3144 33.3565C19.3425 33.2541 20.3323 33.1555 21.3173 33.6259C21.6744 33.7987 21.9561 33.9788 22.0677 34.3444C22.2037 34.7812 22.1899 39.5353 22.1766 44.1453C22.1737 45.1241 22.1709 46.0964 22.1696 47.0195C22.0888 47.1797 22.0288 47.3551 21.9988 47.5525C21.9101 48.1421 21.9186 48.7333 21.9271 49.3244C21.9338 49.7877 21.9405 50.2511 21.9003 50.7137C21.8238 51.5599 21.8427 52.4076 21.8615 53.2545C21.8761 53.9128 21.8908 54.5707 21.8606 55.227C21.8538 55.3762 21.8465 55.5254 21.8392 55.6744C21.7791 56.9032 21.7193 58.1265 21.9355 59.3573C22.0378 59.9381 22.0602 60.5287 22.0826 61.1207C22.1041 61.6873 22.1257 62.2552 22.2173 62.8171C22.4009 63.9453 23.0871 64.4829 24.2024 64.32C24.5504 64.2668 24.8931 64.2929 25.2262 64.3942C25.551 64.4954 25.8734 64.4753 26.1968 64.3965C26.8393 64.2348 27.0064 63.978 26.9788 63.3208C26.9628 62.9633 26.9475 62.6056 26.9322 62.2479C26.8938 61.3487 26.8554 60.4498 26.8062 59.5572C26.7382 58.3276 26.7858 57.1006 26.8333 55.8741C26.8889 54.4402 26.9444 53.0071 26.8153 51.5711C26.697 50.2808 26.6834 48.9795 26.9248 47.6947L26.9288 47.7031C26.9571 47.2547 26.8817 46.8168 26.8062 46.3786C26.7346 45.9632 26.6629 45.5475 26.6796 45.1223C26.6881 44.9239 26.6276 44.7263 26.5244 44.547C26.5611 39.3339 26.5409 34.2544 26.5389 33.8564C26.537 33.4296 26.8885 33.1505 27.3003 33.0355C27.6701 32.9282 28.0209 32.9628 28.2622 33.3305C28.3643 33.4868 28.5221 33.5687 28.7064 33.5548C29.1038 33.5232 29.4952 33.5734 29.8882 33.6238C30.3236 33.6796 30.7609 33.7356 31.2103 33.6809C31.6723 33.6226 32.1389 33.6316 32.6064 33.6406C33.2759 33.6534 33.9474 33.6664 34.6103 33.4819C35.3456 33.2756 36.0885 33.3915 36.8136 33.5742C37.1915 33.6676 37.5765 33.7263 37.9622 33.7851C38.2573 33.83 38.5527 33.875 38.8454 33.9357C39.6545 34.1029 40.1999 33.4502 40.066 32.6366C39.9626 32.0075 39.9179 31.3709 39.9445 30.727C40.0045 29.2679 39.5748 28.6422 38.0184 28.6519C37.2062 28.6562 36.4201 28.5192 35.6356 28.3824C34.8481 28.2452 34.0623 28.1082 33.2533 28.1147C32.8265 28.1184 32.3987 28.0879 31.9708 28.0574C30.9936 27.9878 30.0163 27.9181 29.0509 28.2554C28.8827 28.3156 28.7117 28.2754 28.541 28.2267C27.5622 27.944 27.172 27.4695 27.2519 26.3454C27.3014 25.6484 27.3223 24.9504 27.3432 24.2525C27.374 23.2221 27.4048 22.192 27.5277 21.1663C27.5707 20.8197 27.5801 20.4726 27.51 20.1327Z" fill="white"/>
<path d="M30.702 39.2124C28.7837 37.6467 27.3635 35.8651 24.7074 35.2353C22.3465 34.6774 23.859 32.5539 24.357 31.3122C25.0763 29.4946 26.2199 30.6284 27.179 31.3122C29.8535 33.2198 30.3331 36.1351 30.702 39.2304V39.2124Z" fill="white"/>
<path d="M245.601 19.0374C244.748 18.3257 244.117 17.5159 242.936 17.2296C241.887 16.9761 242.559 16.0108 242.781 15.4464C243.1 14.6203 243.609 15.1356 244.035 15.4464C245.224 16.3135 245.437 17.6386 245.601 19.0456V19.0374Z" fill="white"/>
<path d="M6.83267 34.3757C5.92871 33.6115 3.90316 34.8733 4.0036 32.9895C4.07056 31.7277 5.20889 30.1816 6.89963 30.3415C8.40623 30.4837 9.84587 31.2834 9.64499 33.1316C9.46085 34.9621 7.77011 33.9314 6.81593 34.3757H6.83267Z" fill="white"/>
<path d="M243.833 30.5153C242.929 29.7511 240.903 31.0129 241.004 29.1292C241.071 27.8674 242.209 26.3212 243.9 26.4812C245.406 26.6234 246.846 27.4231 246.645 29.2713C246.461 31.1017 244.77 30.071 243.816 30.5153H243.833Z" fill="white"/>
<path d="M20.142 37.4869C20.3581 39.0893 19.7885 40.0361 17.9028 40.0361C16.076 40.0361 14.4456 38.5066 14.5242 37.6872C14.7206 35.8481 17.1171 35.575 18.7081 35.229C20.3385 34.883 20.0242 36.5036 20.142 37.4687V37.4869Z" fill="white"/>
<path d="M266.621 28.7762C266.837 30.3786 266.267 31.3254 264.381 31.3254C262.555 31.3254 260.924 29.7959 261.003 28.9765C261.199 27.1374 263.596 26.8643 265.187 26.5183C266.817 26.1723 266.503 27.7929 266.621 28.758V28.7762Z" fill="white"/>
<path d="M29.892 69.8795C28.212 68.9842 25.3492 71.8985 25.6578 67.2638C25.7264 66.2982 22.6922 64.8762 21.8008 62.6817C24.0807 62.5412 27.012 60.7681 28.212 63.0153C29.052 64.6128 28.9834 67.2637 29.892 69.862V69.8795Z" fill="white"/>
<path d="M259.091 59.4644C257.411 58.569 254.548 61.4833 254.857 56.8486C254.926 55.883 251.891 54.461 251 52.2665C253.28 52.1261 256.211 50.353 257.411 52.6001C258.251 54.1977 258.183 56.8486 259.091 59.4468V59.4644Z" fill="white"/>
</svg>
