<svg width="97" height="32" viewBox="0 0 97 32" fill="none" xmlns="http://www.w3.org/2000/svg">
<g clip-path="url(#clip0_686_50374)">
<path d="M0.5 16.2644C0.5 14.1351 0.850779 12.2132 1.5474 10.4988C2.24401 8.77952 3.23706 7.43569 4.52655 6.4624C5.81603 5.48911 7.30807 5 9.00762 5C9.84751 5 10.5491 5.10375 11.1123 5.30631C11.6755 5.51382 12.2783 5.79543 12.9255 6.15115C13.1033 6.25984 13.2763 6.34877 13.4344 6.41794C13.5974 6.49205 13.7209 6.52663 13.8098 6.52663C13.9877 6.52663 14.1112 6.45252 14.1853 6.29936C14.2545 6.14621 14.294 5.80531 14.294 5.26679H14.9116L15.3118 12.643H14.6942C14.2644 8.22618 12.4956 6.01775 9.3831 6.01775C8.0788 6.01775 6.95235 6.46734 6.00377 7.35664C5.05518 8.25088 4.32892 9.47614 3.82993 11.0324C3.33093 12.5887 3.07897 14.3327 3.07897 16.2644C3.07897 18.1962 3.33093 19.9254 3.82993 21.457C4.32892 22.9836 5.05024 24.1891 5.98895 25.0636C6.92765 25.938 8.03927 26.3777 9.32876 26.3777C11.0283 26.3777 12.4364 25.6564 13.5529 24.2187C14.6695 22.781 15.3908 20.8147 15.7119 18.3296H16.2999C15.9441 21.1556 15.1438 23.3937 13.8988 25.0487C12.6537 26.7038 10.9789 27.5289 8.86929 27.5289C7.16974 27.5289 5.69251 27.0398 4.42773 26.0665C3.1679 25.0932 2.19461 23.7494 1.51775 22.0399C0.835957 20.3305 0.5 18.4037 0.5 16.2595V16.2644Z" fill="white"/>
<path d="M23.5201 27.5302C22.359 27.5302 21.3512 27.1992 20.5014 26.5372C19.6516 25.8751 18.9945 24.9661 18.5301 23.8149C18.0657 22.6638 17.8335 21.3694 17.8335 19.9366C17.8335 18.5038 18.0657 17.2193 18.5301 16.0731C18.9945 14.9269 19.6516 14.0277 20.5014 13.3657C21.3512 12.7036 22.3541 12.3726 23.5201 12.3726C24.686 12.3726 25.689 12.7036 26.5387 13.3657C27.3885 14.0277 28.0456 14.9318 28.51 16.0731C28.9744 17.2193 29.2066 18.5038 29.2066 19.9366C29.2066 21.3694 28.9744 22.6588 28.51 23.8149C28.0456 24.9661 27.3885 25.8751 26.5387 26.5372C25.689 27.1992 24.6811 27.5302 23.5201 27.5302ZM24.108 26.4828C24.8046 26.4285 25.3876 26.1271 25.852 25.5688C26.3164 25.0155 26.6326 24.2398 26.8055 23.2468C26.9735 22.2537 27.0081 21.0532 26.8994 19.6402C26.7759 18.2272 26.5387 17.0513 26.188 16.1126C25.8372 15.1739 25.3925 14.4724 24.8491 14.0079C24.3056 13.5435 23.6732 13.3459 22.9568 13.42C22.2405 13.4744 21.6575 13.7757 21.198 14.334C20.7435 14.8874 20.4223 15.663 20.2445 16.6561C20.0666 17.6491 20.032 18.8497 20.1358 20.2627C20.2593 21.6757 20.5014 22.8515 20.8621 23.7902C21.2178 24.7289 21.6723 25.4305 22.2158 25.8949C22.7592 26.3593 23.3916 26.5569 24.108 26.4828Z" fill="white"/>
<path d="M34.1397 15.0008H34.2187C34.7721 14.1955 35.3699 13.5582 36.0171 13.0839C36.6594 12.6096 37.3659 12.3725 38.1366 12.3725C39.9597 12.3725 40.8737 13.6175 40.8737 16.1026V24.3138C40.8737 24.9215 40.9181 25.3661 41.0071 25.6428C41.096 25.9194 41.264 26.1121 41.5159 26.2208C41.7679 26.3295 42.1582 26.3839 42.6967 26.3839V27.0014H37.1683V26.3839C37.6673 26.3839 38.0378 26.3295 38.2799 26.2208C38.522 26.1121 38.6801 25.9194 38.7641 25.6428C38.8431 25.3661 38.8826 24.9215 38.8826 24.3138V16.1026C38.8826 15.3516 38.7591 14.7835 38.5071 14.3981C38.2552 14.0127 37.8649 13.82 37.3264 13.82C36.7878 13.82 36.2839 14.0127 35.7553 14.3981C35.2266 14.7835 34.6881 15.322 34.1298 16.0186V24.3088C34.1298 24.9165 34.1693 25.3612 34.2484 25.6378C34.3274 25.9145 34.4855 26.1072 34.7177 26.2159C34.95 26.3246 35.3254 26.3789 35.8442 26.3789V26.9965H30.291V26.3789C30.8444 26.3789 31.2495 26.3246 31.4965 26.2159C31.7485 26.1072 31.9165 25.9145 32.0054 25.6378C32.0943 25.3612 32.1388 24.9165 32.1388 24.3088V15.6727C32.1388 15.0848 32.1141 14.6846 32.0597 14.4771C32.0054 14.2696 31.8819 14.1659 31.6842 14.156C31.4866 14.1461 31.1408 14.2499 30.6369 14.4623L30.3948 13.9238L32.3809 13.0641L33.8037 12.3675L34.1249 12.6887V14.9959L34.1397 15.0008Z" fill="white"/>
<path d="M50.6128 21.0891C50.593 22.591 50.5041 23.8015 50.346 24.7254C50.183 25.6492 49.8915 26.3459 49.4616 26.8201C49.0318 27.2944 48.4241 27.5316 47.6386 27.5316C46.6208 27.5316 45.8452 27.1462 45.3165 26.3804C44.7879 25.6097 44.526 24.3696 44.526 22.6503V13.9303H42.3818V12.9125C43.1871 12.8927 43.8195 12.7594 44.2839 12.5123C44.7484 12.2604 45.1041 11.8701 45.3412 11.3315C45.5833 10.793 45.7315 10.0421 45.7859 9.07864H46.5121V12.9125H49.7037V13.9303H46.5121V21.7116C46.5121 22.7689 46.5467 23.594 46.6208 24.1918C46.69 24.7896 46.8481 25.2589 47.0902 25.5998C47.3323 25.9407 47.6929 26.1087 48.1771 26.1087C48.6217 26.1087 48.9775 25.9506 49.2393 25.6394C49.4962 25.3281 49.6889 24.8044 49.8174 24.0683C49.9409 23.3371 50.0051 22.344 50.0051 21.0891H50.6227H50.6128Z" fill="white"/>
<path d="M58.6591 24.7387H58.58L58.5553 24.7634L58.5306 24.7881C58.1354 25.5044 57.6364 26.1368 57.0287 26.6951C56.421 27.2484 55.6404 27.5251 54.6968 27.5251C53.7531 27.5251 53.0466 27.2237 52.5378 26.6259C52.0289 26.0281 51.772 25.208 51.772 24.1705C51.772 23.133 52.0042 22.3326 52.4686 21.6607C52.933 20.9888 53.4962 20.4503 54.1583 20.0402C54.8203 19.6301 55.7244 19.1558 56.8657 18.6173L57.3746 18.3752L58.6344 17.7873V18.726L57.4289 19.3139C56.2481 19.887 55.344 20.5194 54.7215 21.2062C54.094 21.8929 53.7828 22.7229 53.7828 23.6863C53.7828 24.4027 53.9458 24.9511 54.267 25.3365C54.5881 25.7218 55.0278 25.9145 55.5811 25.9145C56.1345 25.9145 56.6384 25.7515 57.0979 25.4204C57.5524 25.0894 58.0761 24.5311 58.669 23.7456V24.7387H58.6591ZM60.6155 25.2475C60.6155 25.7119 60.6501 26.038 60.7242 26.2258C60.7934 26.4135 60.9466 26.5074 61.1788 26.5074C61.3912 26.5074 61.5592 26.4184 61.6728 26.2406C61.7865 26.0627 61.9446 25.7119 62.1422 25.1932H62.7301L62.7054 25.3266C62.4732 26.0973 62.2163 26.6556 61.9396 27.0014C61.6629 27.3522 61.2084 27.5251 60.5859 27.5251C59.8893 27.5251 59.3854 27.3127 59.084 26.8927C58.7777 26.4728 58.6295 25.8503 58.6295 25.0301V16.4978C58.6295 15.7666 58.58 15.1639 58.4812 14.6995C58.3824 14.235 58.1749 13.8694 57.8637 13.5977C57.5524 13.326 57.088 13.1975 56.4803 13.1975C55.9072 13.1975 55.4329 13.321 55.0574 13.573C54.682 13.825 54.4942 14.156 54.4942 14.5661C54.4942 14.7983 54.5733 15.0601 54.7363 15.3417C54.8796 15.6975 54.9487 15.984 54.9487 16.2014C54.9487 16.4879 54.8401 16.7201 54.6276 16.898C54.4152 17.0759 54.1286 17.1648 53.768 17.1648C53.3579 17.1648 53.0368 17.0116 52.8144 16.7103C52.5921 16.4039 52.4785 15.9692 52.4785 15.3961C52.4785 14.4821 52.8638 13.7509 53.6296 13.1975C54.4003 12.6442 55.3983 12.3675 56.6335 12.3675C57.8686 12.3675 58.8617 12.7134 59.5583 13.4001C60.2549 14.0868 60.6057 15.1491 60.6057 16.5769V25.2426L60.6155 25.2475Z" fill="white"/>
<path d="M70.2791 15.7816C70.2593 15.3172 70.205 14.8972 70.1062 14.5218C70.0074 14.1463 69.8542 13.8647 69.6516 13.6769C69.4441 13.4892 69.1724 13.3953 68.8315 13.3953C67.8829 13.3953 67.1665 13.9487 66.6873 15.0603C66.2031 16.1719 65.961 17.7084 65.961 19.6747C65.961 21.6411 66.2723 23.1974 66.8997 24.3436C67.5272 25.4898 68.377 26.0629 69.4491 26.0629C70.1803 26.0629 70.8028 25.7121 71.3117 25.0007C71.8205 24.2942 72.2652 23.1084 72.6407 21.4484H73.2286C72.9766 23.4691 72.4628 24.9908 71.6871 26.0085C70.9115 27.0263 69.8937 27.5352 68.6438 27.5352C67.0677 27.5352 65.8425 26.8682 64.968 25.5342C64.0935 24.2003 63.6538 22.4266 63.6538 20.2083C63.6538 18.6323 63.8761 17.2539 64.3257 16.0632C64.7704 14.8725 65.3929 13.9635 66.1883 13.3261C66.9837 12.6938 67.9076 12.3726 68.9649 12.3726C69.7159 12.3726 70.3828 12.5406 70.9658 12.8815C71.5488 13.2224 71.9934 13.6572 72.3047 14.1957C72.616 14.7342 72.7741 15.2777 72.7741 15.831C72.7741 16.2806 72.6752 16.6116 72.4776 16.8389C72.28 17.0612 71.9836 17.1748 71.5933 17.1748C71.203 17.1748 70.8917 17.0612 70.6694 16.8241C70.4471 16.5918 70.3137 16.2411 70.2791 15.7767V15.7816Z" fill="white"/>
<path d="M82.0801 21.0891C82.0603 22.591 81.9714 23.8015 81.8133 24.7254C81.6552 25.6492 81.3587 26.3459 80.9289 26.8201C80.4991 27.2944 79.8914 27.5316 79.1059 27.5316C78.0881 27.5316 77.3124 27.1462 76.7838 26.3804C76.2552 25.6097 75.9933 24.3696 75.9933 22.6503V13.9303H73.8491V12.9125C74.6544 12.8927 75.2868 12.7594 75.7512 12.5123C76.2156 12.2604 76.5714 11.8701 76.8085 11.3315C77.0506 10.793 77.1988 10.0421 77.2532 9.07864H77.9794V12.9125H81.171V13.9303H77.9794V21.7116C77.9794 22.7689 78.014 23.594 78.0881 24.1918C78.1573 24.7896 78.3154 25.2589 78.5575 25.5998C78.7995 25.9407 79.1602 26.1087 79.6444 26.1087C80.089 26.1087 80.4447 25.9506 80.7017 25.6394C80.9586 25.3281 81.1512 24.8044 81.2797 24.0683C81.4032 23.3371 81.4674 22.344 81.4674 21.0891H82.085H82.0801Z" fill="white"/>
<path d="M89.2979 27.5302C88.1369 27.5302 87.129 27.1992 86.2792 26.5372C85.4294 25.8751 84.7724 24.9661 84.3079 23.8149C83.8435 22.6638 83.6113 21.3694 83.6113 19.9366C83.6113 18.5038 83.8435 17.2193 84.3079 16.0731C84.7724 14.9269 85.4294 14.0277 86.2792 13.3657C87.129 12.7036 88.1319 12.3726 89.2979 12.3726C90.4639 12.3726 91.4668 12.7036 92.3166 13.3657C93.1663 14.0277 93.8234 14.9318 94.2878 16.0731C94.7523 17.2193 94.9845 18.5038 94.9845 19.9366C94.9845 21.3694 94.7523 22.6588 94.2878 23.8149C93.8234 24.9661 93.1663 25.8751 92.3166 26.5372C91.4668 27.1992 90.4589 27.5302 89.2979 27.5302ZM89.8858 26.4828C90.5824 26.4285 91.1654 26.1271 91.6298 25.5688C92.0942 25.0155 92.4104 24.2398 92.5834 23.2468C92.7513 22.2537 92.7859 21.0532 92.6772 19.6402C92.5537 18.2272 92.3166 17.0513 91.9658 16.1126C91.615 15.1739 91.1704 14.4724 90.6269 14.0079C90.0834 13.5435 89.4511 13.3459 88.7347 13.42C88.0183 13.4744 87.4353 13.7757 86.9758 14.334C86.5213 14.8874 86.2002 15.663 86.0223 16.6561C85.8445 17.6491 85.8099 18.8497 85.9136 20.2627C86.0371 21.6757 86.2792 22.8515 86.6399 23.7902C86.9956 24.7289 87.4501 25.4305 87.9936 25.8949C88.5371 26.3593 89.1694 26.5569 89.8858 26.4828Z" fill="white"/>
<path d="M82.2613 13.0802C82.5528 12.1859 83.6446 11.598 83.0962 10.353C82.8294 9.7552 83.6891 9.31549 83.946 8.74733C84.0744 8.46572 84.6327 8.71274 84.9983 8.90048C85.3936 9.10305 85.6505 9.23644 85.1515 9.60698C85.0872 9.65639 85.023 9.82437 85.0477 9.85895C86.0062 11.0348 85.2256 12.0279 84.7365 13.0505C84.5636 13.4161 84.3857 13.8361 84.7513 14.1424C85.0625 14.3993 85.69 17.1611 83.7434 17.1907C82.6022 17.2105 82.1773 13.3322 82.2613 13.0851V13.0802Z" fill="white"/>
<path d="M1.79686 11.1702C1.53995 10.8935 1.05084 11.4123 0.863096 10.9627C0.759344 10.7107 0.996491 10.5032 1.16941 10.3155C1.60912 9.8313 1.53995 10.7898 1.96484 10.5032C1.55971 9.73743 2.36008 9.27302 2.50336 8.60604C2.60711 8.11199 3.09622 8.12681 3.2395 8.20586C3.59028 8.3936 4.37088 8.65051 4.24243 8.77402C3.52605 9.45088 4.50428 9.76707 4.47958 10.3056C4.44499 11.0911 4.09421 11.6692 3.74838 12.2868C3.49641 12.7363 3.41242 13.2798 3.69403 13.6108C4.03493 14.011 3.55569 18.1314 3.61992 18.6946C3.79778 20.3547 1.95002 19.5494 1.84627 18.2302C1.8265 17.9585 2.01918 17.6127 1.71781 17.4249C0.843334 16.8815 1.0953 16.0317 0.89768 15.2313C0.53702 13.7541 1.06072 12.7166 1.74251 11.605C1.79686 11.516 1.80674 11.4024 1.83144 11.2986C1.83638 11.269 1.81662 11.2344 1.8018 11.1751L1.79686 11.1702ZM4.1782 15.1424C3.87683 15.6513 3.91635 16.2244 4.06457 16.7135C4.20785 17.1779 4.86988 13.9814 4.1782 15.1424Z" fill="white"/>
<path d="M33.8315 21.3742C33.5005 21.231 33.7426 20.7616 33.293 20.6974C33.1843 21.478 32.6903 22.0264 32.1122 22.555C31.2427 21.2063 31.5539 19.7142 31.4452 18.2864C31.4304 18.1085 31.3711 17.8467 31.5984 17.8615C32.4087 17.901 33.2683 17.6441 34.0143 17.99C34.3058 18.1234 35.3088 18.5927 34.1971 19.1955C33.9402 19.3338 34.2614 19.65 34.2861 19.8871C34.3503 20.4652 34.1428 20.9296 33.8266 21.3742H33.8315Z" fill="white"/>
<path d="M89.3101 21.0687C88.7568 21.0391 88.4949 20.5203 88.3813 19.9472C88.1936 18.9987 90.4267 19.0728 90.7132 19.384C90.9751 19.6706 89.9079 21.0737 89.3101 21.0737V21.0687Z" fill="white"/>
<path d="M7.25784 19.9317C7.13432 18.9881 7.99398 18.9238 8.52262 18.7559C8.88822 18.6373 9.36745 19.0819 9.54037 19.5167C9.64906 19.7884 8.49297 21.1026 8.23606 21.0779C7.55921 21.0186 7.19855 20.6728 7.25784 19.9367V19.9317Z" fill="white"/>
<path d="M41.9619 21.8956C41.621 21.7029 42.619 21.0754 41.7297 21.0952C41.1072 21.11 40.7614 20.8877 40.7268 20.2652C40.707 19.9243 40.6132 19.5192 41.0726 19.3611C41.6606 19.1585 42.0509 19.5982 42.3918 19.9095C42.9797 20.4529 42.7129 21.5152 41.9669 21.9005L41.9619 21.8956Z" fill="white"/>
<path d="M59.6246 9.20082C59.1108 8.76605 58.7205 8.272 58.0091 8.09908C57.3718 7.94098 57.7818 7.358 57.9152 7.01216C58.1079 6.51316 58.4191 6.82442 58.6761 7.01216C59.3974 7.5408 59.5258 8.34611 59.6296 9.20082H59.6246Z" fill="white"/>
<path d="M52.9442 7.88235C52.6725 7.6699 52.0747 8.02068 52.1043 7.49698C52.1241 7.14126 52.465 6.71144 52.9689 6.7559C53.4185 6.79543 53.8434 7.01775 53.7841 7.53651C53.7298 8.05032 53.2258 7.75883 52.9442 7.88235Z" fill="white"/>
<path d="M56.5483 8.89135C56.6027 9.33106 56.4594 9.58796 55.9802 9.58796C55.5157 9.58796 55.1057 9.16802 55.1254 8.94569C55.1748 8.44176 55.7825 8.36765 56.1877 8.27378C56.6027 8.17991 56.5236 8.61962 56.5483 8.88641V8.89135Z" fill="white"/>
<path d="M13.4037 12.5866C13.7841 12.6261 14.2436 12.6212 14.3622 13.1696C14.4066 13.3771 14.2485 13.7526 14.0855 13.6093C13.6705 13.2486 12.9541 13.471 12.7417 12.9769C12.6083 12.6755 13.0677 12.6064 13.4037 12.5915V12.5866Z" fill="white"/>
<path d="M59.4227 17.8647C58.9336 17.6127 58.1036 18.4328 58.1925 17.1236C58.2123 16.8469 57.3329 16.4467 57.071 15.8242C57.7331 15.7847 58.5828 15.2808 58.9287 15.9181C59.1757 16.3726 59.151 17.1236 59.4178 17.8597L59.4227 17.8647Z" fill="white"/>
</g>
<defs>
<clipPath id="clip0_686_50374">
<rect width="96" height="32" fill="white" transform="translate(0.5)"/>
</clipPath>
</defs>
</svg>
