<svg width="209" height="80" viewBox="0 0 209 80" fill="none" xmlns="http://www.w3.org/2000/svg">
<path d="M72.6631 28.7479L72.7512 29.8496L73.4122 37.3847L72.2224 37.5169C71.6937 31.3478 70.8123 30.5105 67.6397 30.5105H59.7079C58.386 30.5105 57.725 31.2156 57.725 32.4935V45.8011H64.1585C66.8465 45.8011 67.5515 45.2723 67.5515 40.6896H68.521V52.499H67.5515C67.5515 47.9162 66.8465 47.3875 64.1585 47.3875H57.725V59.5935C57.725 62.2814 58.2097 62.9865 62.5722 62.9865V64H49.2205V62.9865C53.4066 62.9865 53.8914 62.2814 53.8914 59.5935V33.1104C53.8914 30.4224 53.4066 29.7174 49.2205 29.7174V28.7479H72.6631Z" fill="white"/>
<path d="M76.5918 35.1814C75.1817 35.1814 74.1241 34.1239 74.1241 32.8019C74.1241 31.4359 75.1817 30.3783 76.5918 30.3783C78.0018 30.3783 79.0594 31.4359 79.0594 32.8019C79.0594 34.1239 78.0018 35.1814 76.5918 35.1814ZM78.6628 40.5133V59.5935C78.6628 62.4136 79.0594 62.9865 81.6592 62.9865V64H72.3174V62.9865C74.9614 62.9865 75.3139 62.4136 75.3139 59.5935V45.4927C75.3139 42.6284 75.3139 42.0556 72.8022 43.0691L72.4496 42.1437L75.7545 40.8218L78.0018 39.8964L78.6628 40.5133Z" fill="white"/>
<path d="M94.6953 39.9405C96.1494 39.9405 96.8985 40.7336 96.8985 42.0115C96.8985 43.5097 96.0172 44.391 95.0478 44.391C94.3428 44.391 94.0343 44.0826 93.5496 43.5538C93.0208 43.0691 92.8005 42.8928 92.3158 42.8928C91.3023 42.8928 90.1125 44.3029 89.0549 47.1231V59.4613C89.0549 62.3696 89.6278 62.9865 93.5496 62.9865V64H82.7977V62.9865C85.3535 62.9865 85.706 62.4136 85.706 59.5935V45.4927C85.706 42.6284 85.706 42.0996 83.1062 43.1572L82.7096 42.1878L86.1467 40.8218L88.394 39.8964L89.0549 40.5133V44.5673H89.1871C90.3769 42.1437 92.4039 39.9405 94.6953 39.9405Z" fill="white"/>
<path d="M125.469 46.1096V59.5935C125.469 62.4136 125.822 62.9865 128.333 62.9865V64H119.476V62.9865C121.812 62.9865 122.164 62.4136 122.164 59.5935V46.2418C122.164 43.7301 121.195 42.5844 119.52 42.5844C117.802 42.5844 116.304 43.8182 114.805 45.8452V46.1096V59.5935C114.805 62.4136 115.114 62.9865 117.449 62.9865V64H108.813V62.9865C111.104 62.9865 111.457 62.4136 111.457 59.5935V46.2418C111.457 43.7301 110.531 42.5844 108.857 42.5844C107.094 42.5844 105.552 43.9063 103.965 46.0214V59.5935C103.965 62.4136 104.318 62.9865 106.609 62.9865V64H97.7082V62.9865C100.264 62.9865 100.661 62.4136 100.661 59.5935V45.4927C100.661 42.6284 100.661 42.0996 98.0607 43.2013L97.6642 42.2759L103.26 39.8964L103.965 40.5133V44.347H104.098C105.728 41.8793 107.579 39.9405 110.355 39.9405C112.911 39.9405 114.277 41.6149 114.673 44.347H114.805C116.436 41.8793 118.243 39.9405 121.019 39.9405C124.059 39.9405 125.469 42.32 125.469 46.1096Z" fill="white"/>
<path d="M146.723 59.1528H147.692C147.604 62.3255 146.723 64.705 144.035 64.705C141.788 64.705 140.466 63.0746 140.466 59.3732V58.0953C139.364 62.3696 137.117 64.705 134.076 64.705C131.036 64.705 129.361 62.3696 129.361 59.5494C129.361 54.0413 135.486 51.5736 140.466 49.2823V46.6824C140.466 42.8928 139.144 41.5268 136.941 41.5268C135.134 41.5268 133.768 42.4522 133.768 43.9944C133.768 45.052 134.385 45.5367 134.385 46.5062C134.385 47.5196 133.724 48.2688 132.534 48.2688C131.168 48.2688 130.463 47.2112 130.463 45.6689C130.463 42.4962 133.415 39.9405 137.513 39.9405C141.303 39.9405 143.815 42.0996 143.815 46.8146V60.0782C143.815 62.3696 144.299 62.8984 145.049 62.8984C145.974 62.8984 146.679 62.0611 146.723 59.1528ZM135.31 61.8849C137.205 61.8849 139.188 60.1663 140.466 55.9361V50.6483C136.676 52.5871 132.754 54.7463 132.754 58.6681C132.754 60.5629 133.636 61.8849 135.31 61.8849Z" fill="white"/>
<path d="M159.741 39.9405C161.195 39.9405 161.944 40.7336 161.944 42.0115C161.944 43.5097 161.063 44.391 160.094 44.391C159.389 44.391 159.08 44.0826 158.595 43.5538C158.067 43.0691 157.846 42.8928 157.362 42.8928C156.348 42.8928 155.158 44.3029 154.101 47.1231V59.4613C154.101 62.3696 154.674 62.9865 158.595 62.9865V64H147.844V62.9865C150.399 62.9865 150.752 62.4136 150.752 59.5935V45.4927C150.752 42.6284 150.752 42.0996 148.152 43.1572L147.755 42.1878L151.193 40.8218L153.44 39.8964L154.101 40.5133V44.5673H154.233C155.423 42.1437 157.45 39.9405 159.741 39.9405Z" fill="white"/>
<path fill-rule="evenodd" clip-rule="evenodd" d="M185.504 57.7305C185.845 58.6084 186.014 59.5219 186.122 60.4534L186.131 60.4521C186.147 60.5538 186.162 60.6562 186.177 60.7587C186.208 60.9643 186.238 61.1704 186.276 61.3735C186.377 61.9377 186.598 62.1612 187.155 62.0948C188.32 61.9583 189.485 61.8005 190.636 61.5814C191.425 61.4318 191.744 60.9541 191.537 60.1778C191.357 59.4974 191.238 58.8055 191.119 58.1144C191.065 57.802 191.011 57.4898 190.951 57.1788C190.826 56.5324 190.611 55.9139 190.395 55.2936C190.344 55.145 190.292 54.9964 190.242 54.8472C190.001 54.1364 189.955 53.3969 189.909 52.6579C189.883 52.2558 189.858 51.8539 189.802 51.4569C189.606 50.0776 191.007 48.6972 192.401 48.9184C192.9 48.9965 193.354 48.9251 193.816 48.734C195.083 48.2044 196.388 47.834 197.779 47.844C198.143 47.846 198.494 47.7612 198.842 47.6344C198.952 47.5949 199.061 47.5546 199.17 47.5144C199.951 47.2266 200.725 46.941 201.586 46.932C202.588 46.9227 202.78 46.6088 202.616 45.6184C202.509 44.9665 202.31 44.3405 202.11 43.7141C201.945 43.1943 201.779 42.6741 201.666 42.1388C201.597 41.8025 201.282 41.7123 200.965 41.741C200.618 41.7702 200.284 41.8565 199.962 41.9918C199.078 42.3722 198.193 42.6935 197.209 42.3908C197.111 42.3596 196.998 42.3648 196.898 42.3804C196.433 42.4522 195.966 42.5107 195.498 42.5691C194.455 42.6995 193.412 42.8298 192.398 43.1093C192.369 43.1172 192.34 43.1252 192.311 43.1331C191.316 43.4093 190.357 43.6751 189.307 43.3793C188.925 43.2699 188.617 43.1406 188.445 42.7993C188.236 42.3921 187.44 37.7052 186.667 33.1602C186.504 32.1974 186.341 31.241 186.185 30.3329C186.238 30.1602 186.268 29.9758 186.264 29.7747C186.251 29.1785 186.142 28.5975 186.033 28.0164C185.947 27.561 185.862 27.1056 185.822 26.6429C185.754 25.796 185.591 24.964 185.428 24.1326C185.301 23.4865 185.174 22.8407 185.092 22.1888C185.074 22.0406 185.055 21.8924 185.037 21.7443C184.887 20.5233 184.738 19.3077 184.315 18.1318C184.115 17.5768 183.992 16.9987 183.869 16.4192C183.751 15.8646 183.634 15.3087 183.447 14.7706C183.074 13.6902 182.306 13.2774 181.235 13.6279C180.901 13.7397 180.559 13.7723 180.214 13.7292C179.877 13.6849 179.562 13.7597 179.257 13.8924C178.651 14.1612 178.531 14.4427 178.67 15.0857C178.746 15.4352 178.823 15.7852 178.899 16.1352C179.09 17.0146 179.281 17.8937 179.481 18.7648C179.758 19.9648 179.92 21.182 180.082 22.3987C180.272 23.821 180.461 25.2426 180.833 26.6356C181.17 27.8869 181.405 29.1668 181.386 30.474L181.38 30.4663C181.429 30.913 181.578 31.3317 181.727 31.7506C181.868 32.1477 182.01 32.5451 182.066 32.967C182.091 33.1627 182.183 33.3461 182.314 33.5045C183.167 38.6479 184.052 43.6502 184.122 44.0421C184.197 44.4623 183.898 44.7972 183.512 44.9807C183.166 45.1495 182.814 45.1751 182.514 44.854C182.386 44.7173 182.217 44.6635 182.038 44.7086C181.651 44.8075 181.257 44.8248 180.861 44.8421C180.423 44.8613 179.982 44.8806 179.549 45.011C179.104 45.1472 178.642 45.2179 178.18 45.2887C177.518 45.3901 176.854 45.4918 176.232 45.7866C175.543 46.1152 174.791 46.1275 174.046 46.0711C173.657 46.0434 173.268 46.0512 172.878 46.059C172.58 46.065 172.281 46.071 171.982 46.0611C171.156 46.0343 170.73 46.7703 171.001 47.5492C171.21 48.1515 171.362 48.7712 171.446 49.4101C171.635 50.8581 172.165 51.4015 173.697 51.1267C174.497 50.9841 175.295 50.9851 176.091 50.9862C176.891 50.9872 177.688 50.9883 178.484 50.844C178.904 50.7677 179.331 50.7248 179.758 50.6819C180.733 50.584 181.708 50.4861 182.601 49.9892C182.757 49.9012 182.932 49.9118 183.109 49.9306C184.121 50.0424 184.587 50.4434 184.699 51.5647C184.769 52.2599 184.868 52.9513 184.966 53.6426C185.111 54.6632 185.257 55.6834 185.31 56.7151C185.327 57.0639 185.377 57.4075 185.504 57.7305Z" fill="white"/>
<path fill-rule="evenodd" clip-rule="evenodd" d="M23.5083 25.835C23.3216 24.9118 23.3107 23.9829 23.3627 23.0466L23.3543 23.0464C23.3559 22.9434 23.3584 22.8399 23.3609 22.7363C23.366 22.5286 23.371 22.3203 23.3686 22.1137C23.3648 21.5405 23.1847 21.2826 22.6245 21.2531C21.4542 21.1892 20.2792 21.1461 19.1076 21.1659C18.3041 21.1787 17.9087 21.5952 17.9802 22.3953C18.0415 23.0964 18.0413 23.7985 18.041 24.4999C18.0409 24.8169 18.0408 25.1338 18.0464 25.4503C18.06 26.1086 18.1663 26.7547 18.2729 27.4027C18.2985 27.5579 18.324 27.7132 18.3483 27.8687C18.4643 28.6101 18.3839 29.3468 18.3035 30.0828C18.2598 30.4833 18.2161 30.8836 18.2041 31.2844C18.1619 32.6769 16.5466 33.7985 15.2107 33.343C14.7321 33.1809 14.272 33.1738 13.7851 33.2835C12.4459 33.5894 11.0966 33.7319 9.7282 33.4851C9.3694 33.421 9.00925 33.4448 8.64429 33.5103C8.52959 33.5306 8.41514 33.5517 8.30081 33.5727C7.48264 33.7233 6.67066 33.8727 5.8212 33.7349C4.83219 33.5734 4.58951 33.85 4.58253 34.8539C4.577 35.5145 4.66657 36.1653 4.75618 36.8164C4.83056 37.3569 4.90498 37.8976 4.92508 38.4444C4.93657 38.7876 5.2314 38.9302 5.54895 38.9559C5.89571 38.9863 6.23919 38.9581 6.57925 38.8796C7.51559 38.6555 8.44268 38.4898 9.36011 38.9556C9.45142 39.003 9.56415 39.0173 9.66453 39.0188C10.1353 39.0273 10.606 39.0494 11.0763 39.0715C12.1269 39.1208 13.1762 39.1701 14.2238 39.0676C14.2535 39.0647 14.2831 39.0617 14.3127 39.0588C15.3408 38.9563 16.3305 38.8577 17.3155 39.3282C17.6727 39.501 17.9544 39.681 18.066 40.0467C18.202 40.4835 18.1882 45.2375 18.1749 49.8476C18.172 50.826 18.1692 51.7979 18.1679 52.7207C18.0868 52.8812 18.0267 53.0569 17.9967 53.2546C17.9079 53.8443 17.9164 54.4354 17.9249 55.0265C17.9316 55.4899 17.9383 55.9532 17.8981 56.4158C17.8216 57.262 17.8405 58.1097 17.8593 58.9567C17.874 59.615 17.8886 60.2728 17.8584 60.9292C17.8516 61.0784 17.8443 61.2275 17.837 61.3765C17.7769 62.6054 17.7171 63.8286 17.9333 65.0594C18.0356 65.6403 18.058 66.2308 18.0805 66.8228C18.102 67.3894 18.1235 67.9573 18.2151 68.5192C18.3987 69.6474 19.0849 70.185 20.2002 70.0222C20.5483 69.9689 20.8909 69.9951 21.2241 70.0964C21.5488 70.1976 21.8713 70.1774 22.1946 70.0987C22.8371 69.937 23.0042 69.6801 22.9766 69.0229C22.9606 68.6655 22.9453 68.3077 22.9301 67.95C22.8916 67.0508 22.8532 66.152 22.804 65.2593C22.736 64.0297 22.7836 62.8027 22.8311 61.5762C22.8867 60.1424 22.9423 58.7092 22.8131 57.2732C22.6948 55.9829 22.6812 54.6817 22.9226 53.3968L22.9266 53.4053C22.955 52.9568 22.8795 52.519 22.804 52.0808C22.7324 51.6654 22.6608 51.2497 22.6774 50.8244C22.6859 50.6264 22.6256 50.429 22.5226 50.2499C22.5594 45.0366 22.5392 39.9567 22.5372 39.5586C22.5353 39.1319 22.8868 38.8528 23.2986 38.7378C23.6684 38.6305 24.0192 38.6651 24.2604 39.0328C24.3626 39.1891 24.5204 39.271 24.7046 39.2571C25.1021 39.2255 25.4935 39.2756 25.8865 39.326C26.3219 39.3818 26.7592 39.4379 27.2086 39.3832C27.6706 39.3249 28.1371 39.3339 28.6047 39.3429C29.2742 39.3557 29.9457 39.3686 30.6086 39.1842C31.3439 38.9779 32.0868 39.0938 32.8119 39.2764C33.1897 39.3699 33.5748 39.4286 33.9605 39.4873C34.2556 39.5323 34.5509 39.5773 34.8437 39.638C35.6528 39.8051 36.1982 39.1525 36.0642 38.3388C35.9609 37.7097 35.9162 37.0732 35.9428 36.4293C36.0028 34.9702 35.5731 34.3445 34.0167 34.3542C33.2044 34.3584 32.4183 34.2214 31.6338 34.0847C30.8464 33.9474 30.0606 33.8105 29.2516 33.817C28.8248 33.8206 28.3969 33.7901 27.9691 33.7597C26.9919 33.69 26.0145 33.6204 25.0492 33.9577C24.881 34.0179 24.71 33.9776 24.5393 33.929C23.5605 33.6463 23.1703 33.1718 23.2502 32.0477C23.2997 31.3507 23.3206 30.6527 23.3415 29.9547C23.3723 28.9243 23.4031 27.8943 23.526 26.8686C23.569 26.522 23.5784 26.1749 23.5083 25.835Z" fill="white"/>
<path d="M30.6947 45.9094C28.7764 44.3437 27.3561 42.5622 24.7001 41.9323C22.3391 41.3744 23.8516 39.251 24.3496 38.0092C25.069 36.1917 26.2126 37.3254 27.1717 38.0092C29.8462 39.9168 30.3258 42.8321 30.6947 45.9274V45.9094Z" fill="white"/>
<path d="M6.82583 41.0727C5.92187 40.3085 3.89633 41.5703 3.99677 39.6865C4.06373 38.4248 5.20205 36.8786 6.8928 37.0386C8.3994 37.1807 9.83904 37.9805 9.63816 39.8287C9.45402 41.6591 7.76327 40.6284 6.80909 41.0727H6.82583Z" fill="white"/>
<path d="M20.1352 44.1837C20.3513 45.786 19.7816 46.7329 17.8959 46.7329C16.0692 46.7329 14.4388 45.2034 14.5174 44.384C14.7138 42.5449 17.1102 42.2718 18.7013 41.9258C20.3316 41.5798 20.0173 43.2004 20.1352 44.1655V44.1837Z" fill="white"/>
<path d="M183.46 43.3049C183.938 41.8566 185.71 40.8937 184.82 38.8709C184.391 37.8919 185.782 37.1879 186.203 36.2575C186.413 35.7963 187.32 36.2008 187.918 36.5083C188.558 36.84 188.978 37.0504 188.169 37.6572C188.064 37.7381 187.959 38.0052 187.999 38.0618C189.561 39.9713 188.291 41.5815 187.49 43.2563C187.206 43.847 186.915 44.5347 187.514 45.0283C188.016 45.449 189.035 49.9315 185.871 49.9882C184.019 50.0205 183.323 43.7175 183.46 43.313V43.3049Z" fill="white"/>
<path d="M52.6578 40.1946C52.2371 39.7415 51.4442 40.5829 51.1367 39.8547C50.9668 39.4421 51.3551 39.1104 51.6302 38.8029C52.3423 38.0181 52.229 39.5716 52.9248 39.1104C52.2614 37.8643 53.5721 37.1118 53.7987 36.0195C53.9686 35.2185 54.7615 35.2428 54.9962 35.3641C55.5706 35.6716 56.8329 36.0923 56.6306 36.2865C55.4736 37.3869 57.0594 37.9048 57.019 38.7786C56.9623 40.057 56.3879 40.9956 55.8296 41.9989C55.425 42.7271 55.2794 43.609 55.7406 44.1512C56.2908 44.7984 55.514 51.4979 55.6192 52.4122C55.9105 55.1066 52.9006 53.8039 52.7387 51.6598C52.7064 51.2147 53.0219 50.6565 52.5284 50.349C51.1124 49.4671 51.5089 48.0835 51.1933 46.7808C50.6027 44.3777 51.4522 42.6947 52.5688 40.8904C52.6578 40.7448 52.674 40.5587 52.7145 40.3888C52.7226 40.3402 52.6902 40.2836 52.6659 40.1865L52.6578 40.1946ZM56.5254 46.6594C56.0318 47.4847 56.0966 48.4233 56.3474 49.2081C56.582 49.9606 57.6501 44.7661 56.5254 46.6594Z" fill="white"/>
<path d="M104.739 56.7828C104.205 56.5482 104.593 55.7876 103.865 55.6824C103.695 56.9527 102.878 57.8428 101.947 58.7085C100.539 56.5158 101.041 54.0885 100.863 51.7663C100.839 51.475 100.742 51.0543 101.114 51.0705C102.433 51.1352 103.832 50.7225 105.046 51.2808C105.515 51.4993 107.15 52.2599 105.337 53.2389C104.917 53.4654 105.443 53.9752 105.483 54.3636C105.588 55.3021 105.248 56.0546 104.739 56.7828Z" fill="white"/>
<path d="M176.078 28.7941C174.816 26.5286 175.067 24.2307 175.002 21.9652C174.961 20.7111 175.568 21.0023 177.186 21.0994C177.559 21.1237 177.923 21.059 178.287 21.0185C179.355 20.9052 180.164 22.394 180.116 22.4426C178.74 23.6481 180.504 25.8651 178.619 26.8361C178.101 26.6742 178.344 25.938 177.769 25.3311C177.672 26.8927 177.073 27.9122 176.078 28.8022V28.7941Z" fill="white"/>
<path d="M197.523 44.0847C196.624 44.0361 196.204 43.1946 196.018 42.256C195.718 40.7106 199.343 40.8401 199.804 41.3337C200.233 41.803 198.493 44.0847 197.523 44.0766V44.0847Z" fill="white"/>
<path d="M61.5313 54.4454C61.329 52.908 62.7207 52.8109 63.5865 52.5278C64.1852 52.3336 64.962 53.0537 65.2452 53.7576C65.4232 54.2026 63.546 56.3306 63.1253 56.2982C62.0249 56.2011 61.4342 55.6348 61.5313 54.4373V54.4454Z" fill="white"/>
<path d="M194.937 59.5767C195.423 58.3873 195.56 57.7319 194.347 57.8694C193.61 57.9504 193.214 57.3435 193.06 56.7043C192.914 56.1137 193.012 55.4906 193.594 55.1589C194.25 54.7867 194.711 55.1265 195.261 55.5796C196.895 56.9066 196.968 57.9665 194.929 59.5848L194.937 59.5767Z" fill="white"/>
<path d="M117.951 57.6336C117.392 57.318 119.019 56.2986 117.571 56.3309C116.551 56.3552 116.001 55.9911 115.944 54.9797C115.912 54.4214 115.766 53.766 116.502 53.5071C117.457 53.1753 118.096 53.8874 118.647 54.3971C119.601 55.2791 119.173 57.0025 117.951 57.6336Z" fill="white"/>
<path d="M146.659 36.9936C145.817 36.2897 145.194 35.4886 144.029 35.2055C142.993 34.9546 143.657 33.9999 143.875 33.4416C144.191 32.6244 144.693 33.1341 145.113 33.4416C146.287 34.2992 146.497 35.61 146.659 37.0017V36.9936Z" fill="white"/>
<path d="M27 27.3303C28.4645 27.1361 28.7396 26.2056 28.683 25C29.5083 25.7606 30.0908 26.5131 29.4031 27.5245C28.7072 28.552 27.9628 28.0747 27 27.3384V27.3303Z" fill="white"/>
<path d="M135.809 34.8571C135.372 34.5091 134.393 35.0836 134.441 34.226C134.474 33.6515 135.024 32.9475 135.841 33.0204C136.569 33.0851 137.265 33.4492 137.168 34.2907C137.079 35.1241 136.262 34.6548 135.801 34.8571H135.809Z" fill="white"/>
<path d="M141.667 36.4932C141.756 37.2052 141.521 37.626 140.744 37.626C139.992 37.626 139.32 36.9463 139.353 36.5822C139.434 35.765 140.421 35.6436 141.076 35.4899C141.748 35.3362 141.618 36.0563 141.667 36.4851V36.4932Z" fill="white"/>
<path d="M71.524 42.5034C72.1389 42.5681 72.8914 42.5601 73.0856 43.4501C73.1584 43.7899 72.9076 44.3968 72.6405 44.1702C71.9609 43.5877 70.8038 43.9437 70.4559 43.1426C70.2456 42.6491 70.9899 42.5439 71.5321 42.5115L71.524 42.5034Z" fill="white"/>
<path d="M146.337 51.0899C145.544 50.6772 144.192 52.0204 144.338 49.8843C144.37 49.4393 142.938 48.7839 142.518 47.7725C143.594 47.7078 144.977 46.8906 145.544 47.9262C145.94 48.6625 145.908 49.8843 146.337 51.0818V51.0899Z" fill="white"/>
<rect x="48" y="78" width="115" height="2" fill="white"/>
</svg>
