<svg xmlns="http://www.w3.org/2000/svg" width="620" height="99" viewBox="0 0 620 99" fill="none"><path d="M383.231 28.9618C382.005 30.0757 380.953 29.7147 380.01 29.7715C377.84 29.8952 376.546 31.2824 376.304 33.4638C375.907 37.0839 377.046 40.6113 376.757 44.2314C376.175 51.4923 377.257 58.7635 376.665 66.0451C376.402 69.2578 376.659 72.5273 376.922 75.7504C377.056 77.3903 378.438 78.071 380.02 78.2515C381.051 78.3701 382.226 78.0246 383.448 79.4015C378.989 79.5304 374.989 80.3349 370.959 79.6954C369.381 79.4479 367.995 80.4019 366.459 79.9893C365.861 79.8295 364.928 80.1956 364.964 79.123C364.99 78.3443 365.706 78.3701 366.304 78.2721C370.907 77.5244 371.206 77.1582 371.18 72.615C371.124 61.3833 371.093 50.1567 370.995 38.925C370.979 37.4243 370.649 35.9236 370.443 34.1961C368.185 36.3104 368.567 39.2344 367.711 41.6581C365.278 48.5374 363.15 55.525 360.856 62.4507C360.608 63.1985 360.227 63.9669 360.717 64.6166C361.181 65.2458 361.954 64.9157 362.608 64.7301C363.717 64.4104 365.021 64.168 365.495 65.452C366.031 66.9011 364.83 67.8088 363.737 68.4998C362.624 69.2063 361.629 68.9381 360.938 67.783C360.681 67.3549 360.485 66.8805 359.737 66.7464C358.273 70.9751 356.758 75.1522 355.413 79.386C355.119 80.3039 354.969 80.9331 353.887 81.0259C352.732 81.1239 352.129 80.5463 351.805 79.5665C350.361 75.2398 348.944 70.9132 347.511 66.5814C345.31 59.9239 343.099 53.2663 340.908 46.6036C339.851 43.3857 338.795 40.1626 337.795 36.9292C337.516 36.0371 337.274 35.1759 336.578 34.5364C335.609 35.0057 335.96 35.7999 335.97 36.3929C336.058 43.726 336.583 51.0437 336.419 58.3819C336.305 63.5801 336.419 68.7886 336.444 73.9867C336.46 77.0448 337.393 78.0246 340.501 78.2669C340.841 78.2927 341.192 78.236 341.521 78.3082C342.083 78.432 342.82 78.5145 342.759 79.288C342.707 79.9017 342.073 79.9481 341.552 79.9687C341.212 79.9842 340.867 80.0151 340.532 79.9687C336.913 79.4633 333.3 79.8346 329.682 79.9687C328.898 79.9997 327.878 79.9894 327.831 79.0817C327.795 78.3701 328.78 78.3082 329.475 78.236C333.161 77.8596 334.022 77.2923 334.084 73.3421C334.14 69.5827 334.233 65.7976 333.893 62.0124C333.615 58.8925 334.089 55.7107 334.053 52.5598C333.98 46.1498 334.31 39.7346 333.764 33.3297C333.542 30.7564 331.79 30.4728 329.852 30.2665C329.053 30.1788 327.831 30.4161 327.878 29.2712C327.919 28.343 329.073 28.5596 329.811 28.5544C332.96 28.539 336.109 28.5905 339.253 28.5286C340.681 28.4977 341.279 29.0289 341.707 30.4419C343.057 34.8923 344.691 39.255 346.083 43.6951C346.403 44.7213 346.995 45.3762 347.841 46.4179C348.14 44.1437 347.593 41.9727 349.294 40.4153C349.856 39.9048 350.263 39.188 351.217 39.6366C351.908 39.9615 352.66 40.1729 352.784 41.1115C353.181 44.0354 354.073 46.9955 351.841 49.641C351.531 50.0071 351.227 50.6621 351.346 51.0488C353.083 56.7163 351.232 63.0232 354.418 68.4173C354.732 68.9536 354.691 69.985 355.526 69.8767C356.186 69.789 356.464 68.9381 356.634 68.278C358.804 59.9239 362.083 51.9358 364.696 43.7209C366.041 39.4871 366.742 35.0624 368.598 30.9782C369.33 29.3744 369.984 28.245 372.041 28.508C375.592 28.9618 379.226 27.6056 383.226 28.9464L383.231 28.9618Z" fill="#EAEAEA"></path><path d="M146.464 71.509C147.299 71.2409 148.057 70.8954 148.851 70.7561C152.48 70.1321 153.124 68.7965 152.949 65.197C152.82 62.5051 152.021 59.7307 152.933 57.0285C153.361 55.7702 152.877 54.4242 152.335 53.6558C150.552 51.1444 150.248 48.3855 149.841 45.4822C149.593 43.7391 150.341 42.8418 151.109 41.6196C151.82 40.4851 153.933 39.2372 151.423 37.7416C151.103 37.5508 151.16 37.1177 151.377 36.8237C153.536 33.9204 153.145 30.5117 153.036 27.2577C152.938 24.1738 151.243 22.931 148.021 23.0393C147.439 23.06 146.887 22.9929 146.779 22.4824C146.604 21.6315 147.356 21.5541 147.939 21.5541C154.959 21.5387 162.021 21.0642 168.989 21.6624C177.02 22.3483 183.437 26.314 187.143 33.8121C189.133 37.8345 189.906 42.1095 189.576 46.6425C189.313 50.242 189.37 53.8106 188.179 57.343C185.277 65.9551 179.164 70.4312 170.489 71.9371C164.902 72.9066 159.284 72.3084 153.681 72.4115C152.165 72.4373 150.655 72.4321 149.14 72.4373C148.196 72.4373 147.253 72.4373 146.464 71.4987V71.509ZM183.798 45.6936C183.798 44.755 183.891 43.8062 183.783 42.8779C182.881 35.0343 180.01 28.485 172.195 25.133C168.397 23.5034 164.443 23.5602 160.5 24.0449C159.376 24.1842 158.299 25.0247 158.376 26.7317C158.541 30.3209 159.103 34.0803 158.66 37.458C157.974 42.6665 158.51 47.8286 158.021 53.0009C157.593 57.4926 158.098 62.0822 158.139 66.5997C158.17 70.1064 160.263 69.7454 162.046 70.1064C163.675 70.4364 165.433 70.1682 167.129 70.0909C173.494 69.7866 178.267 66.6512 180.906 61.0302C183.138 56.2756 183.968 51.0207 183.803 45.6936H183.798Z" fill="#EAEAEA"></path><path d="M399.751 39.0291C401.605 38.8378 403.224 38.5622 404.853 38.5237C409.697 38.3984 414.543 38.4227 419.386 38.2819C430.594 37.948 436.2 49.8029 431.804 58.2924C430.083 61.6175 426.84 63.0455 423.451 64.0012C422.496 64.2726 421.541 64.5285 420.397 64.9315C425.899 70.1658 428.165 77.2458 431.738 83.5388C433.192 86.1021 434.795 88.261 438.059 88.3232C438.626 88.3358 439.123 88.4938 439.055 89.1549C438.992 89.7644 438.444 90.0455 437.927 89.9445C435.549 89.4624 433.122 90.2806 430.736 89.582C428.836 89.0261 427.807 87.6843 426.959 86.0408C423.853 79.9938 420.741 73.9521 417.579 67.9317C416.895 66.6366 416.434 65.003 414.37 65.187C413.309 65.2793 412.589 65.4081 412.613 66.7436C412.743 73.0389 412.781 79.3356 412.921 85.6308C412.961 87.3219 414.242 87.902 415.688 88.0879C416.928 88.2457 418.166 88.3262 419.48 89.3597C413.198 90.9442 407.207 89.7861 400.641 89.9305C402.231 88.237 403.957 88.9501 405.229 88.1276C406.435 87.3472 407.074 86.6161 407.079 85.1307C407.1 78.9467 407.661 72.724 407.193 66.583C406.643 59.3756 407.447 52.0819 405.949 44.955C405.048 40.6716 406.229 41.0314 401.671 39.8684C401.133 39.7316 400.466 39.9783 399.741 39.0138L399.751 39.0291ZM416.171 40.5245C411.127 40.7248 410.621 41.4231 411.756 46.6108C411.828 46.9399 411.807 47.2857 411.843 47.6256C412.162 50.4835 412.335 53.2866 412.021 56.2154C411.374 62.2174 412.515 63.1141 418.425 62.1641C421.485 61.6721 424.484 60.8406 426.123 57.9034C428.582 53.5003 427.969 49.1716 425.486 44.9261C423.357 41.2893 420.06 40.3199 416.171 40.5245Z" fill="#EAEAEA"></path><path d="M306.774 76.5646C299.589 76.8482 294.306 71.0415 291.342 64.5181C290.146 61.888 289.723 59.0311 288.904 56.2928C288.275 54.1939 287.672 52.4045 288.064 49.9447C288.754 45.6232 288.811 41.2243 290.559 37.0885C291.156 35.6704 290.816 34.4894 289.151 33.8448C288.218 33.4838 287.213 32.8289 288.053 31.5139C288.966 30.0854 289.95 31.0292 290.543 31.7099C291.868 33.2311 292.625 32.4834 293.409 31.2612C295.718 27.6462 298.682 24.6604 302.903 23.6393C311.687 21.5147 319.393 23.8559 323.8 33.226C329.212 44.7413 329.397 56.6177 322.836 67.8546C319.728 73.1713 314.929 76.6522 306.785 76.5646H306.774ZM294.404 45.6851C294.259 49.8776 294.713 53.9516 295.661 57.9018C296.847 62.8421 298.295 67.7257 302.172 71.4592C305.677 74.8319 310.774 74.9814 315.006 72.4442C317.774 70.7837 318.975 68.1382 319.918 65.2864C322.253 58.237 321.867 51.0637 320.691 43.9008C319.882 38.945 318.728 34.0563 315.614 29.9204C313.011 26.455 309.558 24.8667 305.213 25.2225C300.816 25.5835 298.414 28.7807 296.764 32.1173C294.692 36.3047 294.213 41.049 294.399 45.6851H294.404Z" fill="#EAEAEA"></path><path d="M464.023 88.9437C464.68 87.6193 465.551 87.9732 466.262 87.9064C469.433 87.6139 470.321 86.606 470.253 83.2753C470.163 78.7019 470.031 74.124 469.977 69.5501C469.899 62.9807 469.889 56.4103 469.822 49.8407C469.799 47.8863 469.679 45.9385 469.615 43.9848C469.51 40.9434 468.673 40.0785 465.67 39.8734C464.865 39.8178 463.534 40.1151 463.52 39.1044C463.502 37.8153 464.904 38.1926 465.749 38.1755C471.418 38.0592 477.1 37.7622 482.763 37.9863C487.71 38.1845 492.584 39.1367 496.06 43.2702C500.365 48.3925 499.769 58.7467 494.638 63.0123C493.044 64.3397 491.12 65.3674 489.187 66.1477C487.193 66.9496 484.668 66.6449 483.742 69.3244C483.584 69.7857 482.922 69.9858 482.417 69.6835C481.97 69.4114 482.119 68.9657 482.329 68.5605C483.012 67.2615 482.316 66.9051 481.155 66.7875C479.978 66.67 478.786 66.5734 477.637 66.3009C476.494 66.0231 475.694 65.6012 475.4 67.4259C475.149 68.9715 475.076 70.3496 476.668 70.6984C478.851 71.1729 478.881 72.6114 478.656 74.1567C478.501 75.2368 478.051 76.2334 478.464 77.3776C478.786 78.2653 478.2 78.7378 477.382 78.4966C476.139 78.1325 475.984 79.1869 475.915 79.7448C475.669 81.672 475.47 83.6501 476.301 85.5208C477.126 87.371 478.71 87.8231 480.515 87.5551C481.379 87.4294 482.162 87.3461 482.259 88.3505C482.338 89.221 481.505 89.3617 480.799 89.3768C477.475 89.4342 474.146 89.5535 470.825 89.4922C468.603 89.4514 466.382 89.1424 464.013 88.9439L464.023 88.9437ZM475.36 52.537L475.35 52.5371C475.392 55.5175 475.434 58.4979 475.476 61.4783C475.488 62.3446 475.475 63.1854 476.48 63.5993C480.494 65.2496 484.656 65.0618 488.178 62.9283C492.824 60.1137 493.818 54.9783 492.833 50.201C490.973 41.1503 485.364 39.3059 477.331 40.9874C475.722 41.3248 475.116 42.1792 475.206 43.8592C475.366 46.7451 475.319 49.6494 475.36 52.5422L475.36 52.537Z" fill="#EAEAEA"></path><path d="M213.31 28.748C219.614 28.9698 225.583 27.9384 231.603 29.5009C230.711 29.7485 229.825 30.1816 228.918 30.2177C226.222 30.3209 225.598 31.9866 225.397 34.2814C224.675 42.553 225.598 50.8195 225.397 59.0809C225.356 60.7208 225.923 61.4892 227.603 61.3345C228.108 61.2881 228.66 61.2365 229.129 61.3809C230.139 61.6903 232.021 62.6082 231.402 63.0878C229.33 64.6916 233.067 68.0384 229.381 68.8171C227.103 69.3019 224.67 73.4893 225.418 75.2684C225.974 76.5989 226.804 77.2693 228.315 77.2538C231.541 77.228 234.763 77.3673 237.989 77.3879C243.278 77.4137 246.412 74.3866 246.7 69.0131C246.726 68.5026 246.69 67.992 246.69 67.4763C246.69 66.5481 246.479 65.4445 247.577 65.0268C248.814 64.5575 249.623 65.4084 250.407 66.2541C251.231 67.1411 251.046 68.1364 250.855 69.1369C250.788 69.4772 250.417 69.7196 250.061 69.5907C247.401 68.6109 247.752 71.1532 247.494 72.1897C247.18 73.4687 247.015 74.7888 246.566 76.0884C245.52 79.1258 243.943 80.6264 240.793 79.8426C237.19 78.9453 233.768 80.1726 230.217 79.8271C225.031 79.3217 219.779 79.5383 214.557 79.4403C214.021 79.43 213.485 79.3475 213.552 78.6307C213.593 78.1408 213.944 78.0067 214.439 77.9603C219.057 77.5426 220 76.7897 220.026 71.7205C220.062 63.8098 220.356 55.8939 219.794 47.9729C219.516 44.0279 219.804 40.021 220.093 36.0657C220.351 32.559 219.227 30.8933 215.614 30.161C214.903 30.0166 214.109 29.9186 213.31 28.7377V28.748Z" fill="#EAEAEA"></path><path d="M249.992 29.4401C250.415 28.4964 251.132 28.5583 251.812 28.5583C256.415 28.5583 261.018 28.548 265.621 28.5738C266.337 28.5738 267.461 28.3159 267.487 29.3421C267.518 30.5282 266.342 29.9042 265.693 30.0744C263.77 30.5746 261.822 30.6468 261.879 33.6946C262.018 41.3474 261.863 49.0054 261.631 56.6582C261.456 62.6145 261.858 68.5449 262.018 74.4856C262.064 76.2957 262.832 77.2858 264.848 77.2601C268.136 77.2136 271.43 77.4044 274.718 77.4251C279.873 77.4509 280.888 76.6258 282.548 71.6184C283.166 69.7568 283.383 67.7249 284.641 65.8169C285.476 66.8225 285.27 67.6785 285.032 68.5604C284.218 71.6597 283.409 74.759 282.62 77.8686C282.244 79.3589 281.522 80.0809 279.79 80.0448C274.667 79.9416 269.528 79.5703 264.435 79.7869C260.631 79.9468 256.817 79.1939 253.034 79.9829C252.461 80.1015 251.843 79.9829 251.245 79.9829C250.678 79.9829 250.137 79.7869 250.075 79.2248C250.013 78.6421 250.565 78.4513 251.085 78.3069C256.41 76.8475 256.384 76.8423 256.42 71.3812C256.446 67.4671 255.863 63.5324 256.049 59.675C256.348 53.461 256.358 47.2624 256.399 41.0535C256.415 38.8463 256.069 36.6185 256.271 34.432C256.549 31.3585 254.595 30.5334 252.302 29.8733C251.585 29.667 250.766 30.0177 249.987 29.4504L249.992 29.4401Z" fill="#EAEAEA"></path><path d="M460.166 89.1124C454.062 89.7816 448.227 89.0802 442.16 89.4806C442.843 87.8361 443.905 88.2439 444.76 88.1545C447.406 87.8798 448.518 86.7037 448.485 84.012C448.34 72.6574 448.221 61.3024 447.973 49.9545C447.917 47.5106 447.316 45.0849 447.364 42.6035C447.39 41.1951 446.401 40.518 445.144 40.1954C443.897 39.8778 442.537 39.9177 441.434 39.2113C441.526 38.426 442.026 38.4654 442.403 38.4601C447.685 38.3853 452.973 38.3208 458.257 38.2821C458.896 38.2731 459.841 38.0483 459.937 38.9701C460.032 39.8558 459.166 39.9145 458.477 39.9707C456.994 40.0896 455.233 39.5008 454.244 41.0723C453.065 42.9457 452.972 45.1389 453.388 47.2372C454.231 51.4647 453.843 55.7251 453.898 59.9688C453.958 64.2177 453.596 68.4777 453.702 72.7259C453.793 76.242 454.508 79.7492 454.258 83.2701C454.005 86.889 455.843 87.8223 458.475 87.9965C458.888 88.0216 459.302 88.1499 459.69 88.2836C459.804 88.3233 459.854 88.5546 460.161 89.1125L460.166 89.1124Z" fill="#EAEAEA"></path><path d="M210.323 29.4451C209.478 30.1877 208.38 29.7855 207.411 30.0485C203.911 31.0025 203.442 31.5337 203.437 35.4065C203.431 46.1277 203.411 56.8437 203.426 67.5649C203.426 68.8232 203.473 70.1227 203.39 71.3346C203.132 75.29 204.071 78.085 208.565 78.4769C208.699 78.4872 208.807 78.8637 209.194 79.5238C204.808 79.5238 200.736 79.4928 196.669 79.5444C195.499 79.5599 194.329 79.8435 193.159 79.9724C192.525 80.0395 191.87 79.8899 191.7 79.2195C191.504 78.4408 192.272 78.2758 192.772 78.0283C193.731 77.559 194.782 77.7859 195.798 77.7292C197.107 77.6518 197.932 76.9299 197.942 75.6664C198.029 66.0282 198.256 56.3796 198.009 46.7465C197.895 42.3632 198.21 37.9746 197.72 33.5758C197.437 31.0283 196.282 30.394 194.2 30.2702C193.354 30.2187 192.128 30.3063 192.184 29.2595C192.246 28.0579 193.54 28.6045 194.277 28.5994C198.88 28.5736 203.478 28.6406 208.081 28.6458C208.941 28.6458 209.813 28.4859 210.323 29.4606V29.4451Z" fill="#EAEAEA"></path><path d="M141.629 10.9901C139.518 15.2758 139.913 21.0404 136.279 25.4626C134.469 27.6593 133.908 30.2724 133.6 33.1942C132.91 39.7701 130.468 45.9798 128.306 52.2038C126.468 57.509 124.837 62.9936 122.129 67.8465C120.205 71.2995 120.212 74.8387 119.573 78.3492C119.156 80.6177 118.143 81.1489 116.262 80.9479C113.784 80.6823 114.732 78.6794 115.048 77.66C117.842 68.7295 120.822 59.8493 123.738 50.9547C125.124 46.7192 126.503 42.4837 127.882 38.2481C127.954 38.0256 128.163 37.8031 128.148 37.5949C127.373 27.6091 135.467 20.3944 136.494 10.9613C136.566 10.3009 137.126 9.70505 137.435 9.06613C138.11 7.66626 139.36 7.84573 140.516 8.05392C141.852 8.298 141.471 9.46815 141.629 11.0044V10.9901Z" fill="#EAEAEA"></path><path d="M391.616 74.6669C393.523 74.6824 394.909 76.018 394.718 77.89C394.512 79.896 393.007 80.8758 391.234 80.9171C389.358 80.9635 388.394 79.6846 388.415 77.7559C388.435 75.822 389.641 74.6514 391.616 74.6669Z" fill="#EAEAEA"></path><path d="M446.11 55.0363C446.323 56.663 444.857 57.2047 443.948 57.0937C442.311 56.8951 442.145 55.0253 441.855 53.7814C441.646 52.9075 442.111 51.4827 443.627 51.5334C445.891 51.6097 445.804 53.4624 446.115 55.0362L446.11 55.0363Z" fill="#EAEAEA"></path><path d="M499.091 77.5748C498.911 77.995 498.807 78.6721 498.415 79.0335C497.886 79.5258 497.592 78.7461 497.197 78.5093C496.978 78.3783 496.779 78.1696 496.547 78.1162C495.186 77.795 494.025 77.2906 494.547 75.5606C494.753 74.8769 494.999 74.0225 496.063 74.1673C496.879 74.2795 499.041 76.6007 499.096 77.5747L499.091 77.5748Z" fill="#EAEAEA"></path><path d="M275.424 35.2317C276.475 35.2317 277.341 35.634 277.434 36.5468C277.537 37.5678 276.465 37.671 275.769 37.64C274.965 37.6039 273.96 37.4028 274.048 36.227C274.109 35.3864 274.78 35.1802 275.424 35.2266V35.2317Z" fill="#EAEAEA"></path><path d="M284.214 40.1268C284.08 41.019 283.652 41.5192 282.879 41.4985C282.003 41.4779 281.456 40.9519 281.523 40.0495C281.59 39.2089 282.364 39.0232 282.998 38.9562C283.838 38.8737 284.085 39.5389 284.209 40.1217L284.214 40.1268Z" fill="#EAEAEA"></path><path d="M167.731 56.3739C168.834 56.2965 169.963 56.4254 169.648 57.8848C169.334 59.3442 169.185 61.3761 167.308 61.474C166.107 61.5359 164.747 60.4478 164.922 58.7615C165.087 57.1423 165.87 56.0696 167.736 56.3739H167.731Z" fill="#EAEAEA"></path><path fill-rule="evenodd" clip-rule="evenodd" d="M31.1779 41.4569C31.0279 42.8565 30.9916 44.2697 31.2324 45.6693L31.2369 45.6602C31.2603 46.1477 31.171 46.6221 31.0817 47.0969C30.9971 47.5469 30.9123 47.9972 30.9234 48.4594C30.9293 48.6766 30.8593 48.8919 30.7426 49.0861C30.696 54.7478 30.5897 60.2626 30.5809 60.6948C30.5718 61.1583 30.949 61.4673 31.3943 61.5991C31.7942 61.7218 32.1759 61.69 32.444 61.2947C32.5576 61.1265 32.7303 61.0402 32.9302 61.0584C33.3614 61.0993 33.7874 61.0513 34.2151 61.0031C34.689 60.9497 35.1649 60.896 35.6522 60.9629C36.153 61.0339 36.66 61.0319 37.168 61.0299C37.8954 61.0271 38.625 61.0242 39.342 61.2356C40.1372 61.4719 40.9461 61.3583 41.7368 61.172C42.1487 61.0767 42.568 61.0194 42.9879 60.9619C43.3091 60.918 43.6307 60.874 43.9498 60.813C44.8313 60.6448 45.413 61.3628 45.2539 62.2444C45.1313 62.926 45.0722 63.6167 45.0904 64.3165C45.1313 65.9024 44.6541 66.5749 42.9637 66.5386C42.0815 66.5204 41.2254 66.6562 40.371 66.7917C39.5134 66.9277 38.6575 67.0635 37.7788 67.043C37.3153 67.0319 36.8501 67.0579 36.3849 67.0839C35.3222 67.1433 34.2595 67.2027 33.2165 66.8203C33.0348 66.7522 32.8484 66.7931 32.6621 66.843C31.5943 67.1339 31.1626 67.6428 31.2307 68.8652C31.2729 69.623 31.284 70.3816 31.2951 71.1401C31.3115 72.2598 31.3278 73.3792 31.4443 74.4954C31.4852 74.8725 31.4897 75.2497 31.408 75.6178C31.1898 76.6175 31.1626 77.6263 31.2035 78.6442H31.1944C31.1944 78.7561 31.1954 78.8685 31.1964 78.9811C31.1984 79.2068 31.2004 79.4332 31.1944 79.6575C31.1807 80.2801 30.9808 80.5573 30.3719 80.58C29.0995 80.63 27.8226 80.6572 26.5503 80.6163C25.6778 80.5891 25.2552 80.1301 25.3461 79.2622C25.4243 78.5016 25.4357 77.7389 25.4471 76.977C25.4523 76.6327 25.4575 76.2886 25.4688 75.945C25.4944 75.2301 25.6206 74.53 25.7472 73.828C25.7775 73.6599 25.8079 73.4916 25.8368 73.323C25.9752 72.5196 25.9 71.7182 25.825 70.9174C25.7841 70.4816 25.7433 70.046 25.7369 69.6104C25.7141 68.0972 23.9783 66.8521 22.5196 67.3247C21.997 67.4929 21.4972 67.4929 20.9701 67.3656C19.5205 67.0112 18.0573 66.834 16.5668 67.0793C16.176 67.143 15.7852 67.1111 15.3899 67.0339C15.2656 67.0099 15.1417 66.9852 15.0179 66.9604C14.1316 66.7833 13.2521 66.6075 12.3271 66.7431C11.2502 66.9021 10.9911 66.5977 11.0002 65.5071C11.0052 64.7894 11.1133 64.084 11.2214 63.3782C11.3112 62.7924 11.401 62.2063 11.4319 61.6127C11.4501 61.2401 11.7727 61.0902 12.1181 61.0674C12.4952 61.0402 12.8679 61.0765 13.2359 61.1674C14.2493 61.4264 15.2535 61.6218 16.2578 61.1311C16.3578 61.0811 16.4805 61.0674 16.5895 61.0674C17.1011 61.066 17.6126 61.0499 18.1239 61.0337C19.2658 60.9976 20.4064 60.9615 21.5426 61.0902C21.5748 61.0939 21.6069 61.0976 21.6391 61.1012C22.7541 61.2296 23.8276 61.3531 24.9053 60.8584C25.2961 60.6766 25.6051 60.4858 25.7323 60.0905C25.8874 59.6183 25.9513 54.4541 26.0134 49.4464C26.0265 48.3811 26.0397 47.323 26.0535 46.3186C25.9697 46.1447 25.9084 45.9548 25.8794 45.742C25.7928 45.1 25.8119 44.4581 25.8309 43.8161C25.8459 43.3129 25.8608 42.8098 25.8249 42.3066C25.7558 41.3862 25.7904 40.4657 25.8249 39.5461C25.8517 38.8313 25.8785 38.1169 25.8567 37.4035C25.8518 37.2413 25.8463 37.0793 25.8409 36.9174C25.796 35.5815 25.7513 34.2518 26.0066 32.9184C26.1274 32.2892 26.1615 31.6481 26.1957 31.0054C26.2285 30.3903 26.2613 29.7739 26.3702 29.165C26.5883 27.9426 27.3426 27.37 28.5513 27.5654C28.9285 27.6291 29.3011 27.6063 29.6647 27.5018C30.0191 27.3973 30.369 27.4246 30.7189 27.5155C31.4142 27.7018 31.5914 27.9835 31.5505 28.6969C31.5272 29.0848 31.5047 29.4731 31.4821 29.8613C31.4255 30.8375 31.3688 31.8133 31.3006 32.7821C31.2063 34.1166 31.2376 35.4502 31.2688 36.7832C31.3054 38.3416 31.342 39.8992 31.1779 41.4569Z" fill="#FAFAFA"></path><path fill-rule="evenodd" clip-rule="evenodd" d="M594.885 39.2711C594.667 38.2714 594.639 37.2626 594.68 36.2447H594.671C594.671 36.1328 594.672 36.0204 594.673 35.9078C594.675 35.6821 594.677 35.4557 594.671 35.2314C594.657 34.6088 594.457 34.3316 593.849 34.3089C592.576 34.2589 591.299 34.2317 590.027 34.2725C589.154 34.2998 588.732 34.7588 588.823 35.6267C588.901 36.3872 588.912 37.1499 588.924 37.9117C588.929 38.2561 588.934 38.6002 588.945 38.9439C588.971 39.6588 589.097 40.3589 589.224 41.0609C589.254 41.229 589.285 41.3973 589.314 41.5659C589.452 42.3693 589.377 43.1707 589.302 43.9715C589.261 44.4073 589.22 44.8429 589.214 45.2785C589.191 46.7917 587.455 48.0367 585.996 47.5642C585.474 47.396 584.974 47.396 584.447 47.5233C582.997 47.8777 581.534 48.0549 580.043 47.8095C579.653 47.7459 579.262 47.7777 578.867 47.855C578.742 47.8789 578.618 47.9037 578.494 47.9285C577.608 48.1056 576.729 48.2814 575.804 48.1458C574.727 47.9868 574.468 48.2912 574.477 49.3818C574.482 50.0994 574.59 50.8048 574.698 51.5106C574.788 52.0965 574.878 52.6826 574.909 53.2761C574.927 53.6488 575.249 53.7987 575.595 53.8214C575.972 53.8487 576.345 53.8123 576.713 53.7215C577.726 53.4624 578.73 53.267 579.734 53.7578C579.834 53.8078 579.957 53.8214 580.066 53.8214C580.578 53.8228 581.089 53.839 581.601 53.8552C582.743 53.8913 583.883 53.9274 585.019 53.7987C585.052 53.795 585.084 53.7913 585.116 53.7876C586.231 53.6593 587.304 53.5358 588.382 54.0305C588.773 54.2122 589.082 54.4031 589.209 54.7984C589.364 55.2706 589.428 60.4347 589.49 65.4425C589.503 66.509 589.516 67.5684 589.53 68.5739C589.446 68.7478 589.385 68.9378 589.356 69.1506C589.269 69.7925 589.289 70.4345 589.308 71.0765C589.323 71.5796 589.337 72.0828 589.302 72.586C589.233 73.5064 589.267 74.4269 589.302 75.3465C589.328 76.0613 589.355 76.7756 589.333 77.4891C589.328 77.6513 589.323 77.8134 589.318 77.9754C589.273 79.3111 589.228 80.6408 589.483 81.9741C589.604 82.6034 589.638 83.2445 589.672 83.8872C589.705 84.5022 589.738 85.1187 589.847 85.7276C590.065 86.95 590.819 87.5225 592.028 87.3271C592.405 87.2635 592.778 87.2862 593.141 87.3908C593.496 87.4953 593.846 87.468 594.196 87.3771C594.891 87.1908 595.068 86.9091 595.027 86.1956C595.004 85.8076 594.981 85.4192 594.959 85.0308C594.902 84.0548 594.845 83.0792 594.777 82.1105C594.683 80.7759 594.714 79.4424 594.746 78.1093C594.782 76.551 594.819 74.9933 594.655 73.4357C594.505 72.0361 594.468 70.6229 594.709 69.2233L594.714 69.2324C594.737 68.7448 594.648 68.2705 594.558 67.7957C594.474 67.3457 594.389 66.8954 594.4 66.4332C594.406 66.216 594.336 66.0007 594.219 65.8066C594.173 60.1435 594.066 54.6264 594.058 54.1941C594.049 53.7305 594.426 53.4215 594.871 53.2898C595.271 53.1671 595.653 53.1989 595.921 53.5942C596.034 53.7624 596.207 53.8487 596.407 53.8305C596.838 53.7896 597.264 53.8376 597.692 53.8858C598.166 53.9392 598.642 53.9928 599.129 53.9259C599.63 53.8549 600.137 53.8569 600.645 53.8589C601.372 53.8618 602.102 53.8647 602.819 53.6533C603.614 53.417 604.423 53.5306 605.213 53.7169C605.625 53.8122 606.045 53.8695 606.465 53.9269C606.786 53.9709 607.107 54.0149 607.426 54.0759C608.308 54.244 608.89 53.5261 608.731 52.6445C608.608 51.9629 608.549 51.2722 608.567 50.5724C608.608 48.9865 608.131 48.3139 606.44 48.3503C605.558 48.3684 604.702 48.2327 603.848 48.0971C602.99 47.9611 602.134 47.8254 601.256 47.8459C600.792 47.857 600.327 47.831 599.862 47.8049C598.799 47.7455 597.736 47.6861 596.693 48.0686C596.511 48.1367 596.325 48.0958 596.139 48.0458C595.071 47.755 594.639 47.2461 594.707 46.0237C594.75 45.2658 594.761 44.5073 594.772 43.7488C594.788 42.6291 594.804 41.5097 594.921 40.3935C594.962 40.0163 594.966 39.6392 594.885 39.2711Z" fill="#FAFAFA"></path><g filter="url(#filter0_f_267_306)"><path d="M383.231 28.9618C382.005 30.0757 380.953 29.7147 380.01 29.7715C377.84 29.8952 376.546 31.2824 376.304 33.4638C375.907 37.0839 377.046 40.6113 376.757 44.2314C376.175 51.4923 377.257 58.7635 376.665 66.0451C376.402 69.2578 376.659 72.5273 376.922 75.7504C377.056 77.3903 378.438 78.071 380.02 78.2515C381.051 78.3701 382.226 78.0246 383.448 79.4015C378.989 79.5304 374.989 80.3349 370.959 79.6954C369.381 79.4479 367.995 80.4019 366.459 79.9893C365.861 79.8295 364.928 80.1956 364.964 79.123C364.99 78.3443 365.706 78.3701 366.304 78.2721C370.907 77.5244 371.206 77.1582 371.18 72.615C371.124 61.3833 371.093 50.1567 370.995 38.925C370.979 37.4243 370.649 35.9236 370.443 34.1961C368.185 36.3104 368.567 39.2344 367.711 41.6581C365.278 48.5374 363.15 55.525 360.856 62.4507C360.608 63.1985 360.227 63.9669 360.717 64.6166C361.181 65.2458 361.954 64.9157 362.608 64.7301C363.717 64.4104 365.021 64.168 365.495 65.452C366.031 66.9011 364.83 67.8088 363.737 68.4998C362.624 69.2063 361.629 68.9381 360.938 67.783C360.681 67.3549 360.485 66.8805 359.737 66.7464C358.273 70.9751 356.758 75.1522 355.413 79.386C355.119 80.3039 354.969 80.9331 353.887 81.0259C352.732 81.1239 352.129 80.5463 351.805 79.5665C350.361 75.2398 348.944 70.9132 347.511 66.5814C345.31 59.9239 343.099 53.2663 340.908 46.6036C339.851 43.3857 338.795 40.1626 337.795 36.9292C337.516 36.0371 337.274 35.1759 336.578 34.5364C335.609 35.0057 335.96 35.7999 335.97 36.3929C336.058 43.726 336.583 51.0437 336.419 58.3819C336.305 63.5801 336.419 68.7886 336.444 73.9867C336.46 77.0448 337.393 78.0246 340.501 78.2669C340.841 78.2927 341.192 78.236 341.521 78.3082C342.083 78.432 342.82 78.5145 342.759 79.288C342.707 79.9017 342.073 79.9481 341.552 79.9687C341.212 79.9842 340.867 80.0151 340.532 79.9687C336.913 79.4633 333.3 79.8346 329.682 79.9687C328.898 79.9997 327.878 79.9894 327.831 79.0817C327.795 78.3701 328.78 78.3082 329.475 78.236C333.161 77.8596 334.022 77.2923 334.084 73.3421C334.14 69.5827 334.233 65.7976 333.893 62.0124C333.615 58.8925 334.089 55.7107 334.053 52.5598C333.98 46.1498 334.31 39.7346 333.764 33.3297C333.542 30.7564 331.79 30.4728 329.852 30.2665C329.053 30.1788 327.831 30.4161 327.878 29.2712C327.919 28.343 329.073 28.5596 329.811 28.5544C332.96 28.539 336.109 28.5905 339.253 28.5286C340.681 28.4977 341.279 29.0289 341.707 30.4419C343.057 34.8923 344.691 39.255 346.083 43.6951C346.403 44.7213 346.995 45.3762 347.841 46.4179C348.14 44.1437 347.593 41.9727 349.294 40.4153C349.856 39.9048 350.263 39.188 351.217 39.6366C351.908 39.9615 352.66 40.1729 352.784 41.1115C353.181 44.0354 354.073 46.9955 351.841 49.641C351.531 50.0071 351.227 50.6621 351.346 51.0488C353.083 56.7163 351.232 63.0232 354.418 68.4173C354.732 68.9536 354.691 69.985 355.526 69.8767C356.186 69.789 356.464 68.9381 356.634 68.278C358.804 59.9239 362.083 51.9358 364.696 43.7209C366.041 39.4871 366.742 35.0624 368.598 30.9782C369.33 29.3744 369.984 28.245 372.041 28.508C375.592 28.9618 379.226 27.6056 383.226 28.9464L383.231 28.9618Z" fill="white"></path><path d="M146.464 71.509C147.299 71.2409 148.057 70.8954 148.851 70.7561C152.48 70.1321 153.124 68.7965 152.949 65.197C152.82 62.5051 152.021 59.7307 152.933 57.0285C153.361 55.7702 152.877 54.4242 152.335 53.6558C150.552 51.1444 150.248 48.3855 149.841 45.4822C149.593 43.7391 150.341 42.8418 151.109 41.6196C151.82 40.4851 153.933 39.2372 151.423 37.7416C151.103 37.5508 151.16 37.1177 151.377 36.8237C153.536 33.9204 153.145 30.5117 153.036 27.2577C152.938 24.1738 151.243 22.931 148.021 23.0393C147.439 23.06 146.887 22.9929 146.779 22.4824C146.604 21.6315 147.356 21.5541 147.939 21.5541C154.959 21.5387 162.021 21.0642 168.989 21.6624C177.02 22.3483 183.437 26.314 187.143 33.8121C189.133 37.8345 189.906 42.1095 189.576 46.6425C189.313 50.242 189.37 53.8106 188.179 57.343C185.277 65.9551 179.164 70.4312 170.489 71.9371C164.902 72.9066 159.284 72.3084 153.681 72.4115C152.165 72.4373 150.655 72.4321 149.14 72.4373C148.196 72.4373 147.253 72.4373 146.464 71.4987V71.509ZM183.798 45.6936C183.798 44.755 183.891 43.8062 183.783 42.8779C182.881 35.0343 180.01 28.485 172.195 25.133C168.397 23.5034 164.443 23.5602 160.5 24.0449C159.376 24.1842 158.299 25.0247 158.376 26.7317C158.541 30.3209 159.103 34.0803 158.66 37.458C157.974 42.6665 158.51 47.8286 158.021 53.0009C157.593 57.4926 158.098 62.0822 158.139 66.5997C158.17 70.1064 160.263 69.7454 162.046 70.1064C163.675 70.4364 165.433 70.1682 167.129 70.0909C173.494 69.7866 178.267 66.6512 180.906 61.0302C183.138 56.2756 183.968 51.0207 183.803 45.6936H183.798Z" fill="white"></path><path d="M399.751 39.0291C401.605 38.8378 403.224 38.5622 404.853 38.5237C409.697 38.3984 414.543 38.4227 419.386 38.2819C430.594 37.948 436.2 49.8029 431.804 58.2924C430.083 61.6175 426.84 63.0455 423.451 64.0012C422.496 64.2726 421.541 64.5285 420.397 64.9315C425.899 70.1658 428.165 77.2458 431.738 83.5388C433.192 86.1021 434.795 88.261 438.059 88.3232C438.626 88.3358 439.123 88.4938 439.055 89.1549C438.992 89.7644 438.444 90.0455 437.927 89.9445C435.549 89.4624 433.122 90.2806 430.736 89.582C428.836 89.0261 427.807 87.6843 426.959 86.0408C423.853 79.9938 420.741 73.9521 417.579 67.9317C416.895 66.6366 416.434 65.003 414.37 65.187C413.309 65.2793 412.589 65.4081 412.613 66.7436C412.743 73.0389 412.781 79.3356 412.921 85.6308C412.961 87.3219 414.242 87.902 415.688 88.0879C416.928 88.2457 418.166 88.3262 419.48 89.3597C413.198 90.9442 407.207 89.7861 400.641 89.9305C402.231 88.237 403.957 88.9501 405.229 88.1276C406.435 87.3472 407.074 86.6161 407.079 85.1307C407.1 78.9467 407.661 72.724 407.193 66.583C406.643 59.3756 407.447 52.0819 405.949 44.955C405.048 40.6716 406.229 41.0314 401.671 39.8684C401.133 39.7316 400.466 39.9783 399.741 39.0138L399.751 39.0291ZM416.171 40.5245C411.127 40.7248 410.621 41.4231 411.756 46.6108C411.828 46.9399 411.807 47.2857 411.843 47.6256C412.162 50.4835 412.335 53.2866 412.021 56.2154C411.374 62.2174 412.515 63.1141 418.425 62.1641C421.485 61.6721 424.484 60.8406 426.123 57.9034C428.582 53.5003 427.969 49.1716 425.486 44.9261C423.357 41.2893 420.06 40.3199 416.171 40.5245Z" fill="white"></path><path d="M306.774 76.5646C299.589 76.8482 294.306 71.0415 291.342 64.5181C290.146 61.888 289.723 59.0311 288.904 56.2928C288.275 54.1939 287.672 52.4045 288.064 49.9447C288.754 45.6232 288.811 41.2243 290.559 37.0885C291.156 35.6704 290.816 34.4894 289.151 33.8448C288.218 33.4838 287.213 32.8289 288.053 31.5139C288.966 30.0854 289.95 31.0292 290.543 31.7099C291.868 33.2311 292.625 32.4834 293.409 31.2612C295.718 27.6462 298.682 24.6604 302.903 23.6393C311.687 21.5147 319.393 23.8559 323.8 33.226C329.212 44.7413 329.397 56.6177 322.836 67.8546C319.728 73.1713 314.929 76.6522 306.785 76.5646H306.774ZM294.404 45.6851C294.259 49.8776 294.713 53.9516 295.661 57.9018C296.847 62.8421 298.295 67.7257 302.172 71.4592C305.677 74.8319 310.774 74.9814 315.006 72.4442C317.774 70.7837 318.975 68.1382 319.918 65.2864C322.253 58.237 321.867 51.0637 320.691 43.9008C319.882 38.945 318.728 34.0563 315.614 29.9204C313.011 26.455 309.558 24.8667 305.213 25.2225C300.816 25.5835 298.414 28.7807 296.764 32.1173C294.692 36.3047 294.213 41.049 294.399 45.6851H294.404Z" fill="white"></path><path d="M464.023 88.9437C464.68 87.6193 465.551 87.9732 466.262 87.9064C469.433 87.6139 470.321 86.606 470.253 83.2753C470.163 78.7019 470.031 74.124 469.977 69.5501C469.899 62.9807 469.889 56.4103 469.822 49.8407C469.799 47.8863 469.679 45.9385 469.615 43.9848C469.51 40.9434 468.673 40.0785 465.67 39.8734C464.865 39.8178 463.534 40.1151 463.52 39.1044C463.502 37.8153 464.904 38.1926 465.749 38.1755C471.418 38.0592 477.1 37.7622 482.763 37.9863C487.71 38.1845 492.584 39.1367 496.06 43.2702C500.365 48.3925 499.769 58.7467 494.638 63.0123C493.044 64.3397 491.12 65.3674 489.187 66.1477C487.193 66.9496 484.668 66.6449 483.742 69.3244C483.584 69.7857 482.922 69.9858 482.417 69.6835C481.97 69.4114 482.119 68.9657 482.329 68.5605C483.012 67.2615 482.316 66.9051 481.155 66.7875C479.978 66.67 478.786 66.5734 477.637 66.3009C476.494 66.0231 475.694 65.6012 475.4 67.4259C475.149 68.9715 475.076 70.3496 476.668 70.6984C478.851 71.1729 478.881 72.6114 478.656 74.1567C478.501 75.2368 478.051 76.2334 478.464 77.3776C478.786 78.2653 478.2 78.7378 477.382 78.4966C476.139 78.1325 475.984 79.1869 475.915 79.7448C475.669 81.672 475.47 83.6501 476.301 85.5208C477.126 87.371 478.71 87.8231 480.515 87.5551C481.379 87.4294 482.162 87.3461 482.259 88.3505C482.338 89.221 481.505 89.3617 480.799 89.3768C477.475 89.4342 474.146 89.5535 470.825 89.4922C468.603 89.4514 466.382 89.1424 464.013 88.9439L464.023 88.9437ZM475.36 52.537L475.35 52.5371C475.392 55.5175 475.434 58.4979 475.476 61.4783C475.488 62.3446 475.475 63.1854 476.48 63.5993C480.494 65.2496 484.656 65.0618 488.178 62.9283C492.824 60.1137 493.818 54.9783 492.833 50.201C490.973 41.1503 485.364 39.3059 477.331 40.9874C475.722 41.3248 475.116 42.1792 475.206 43.8592C475.366 46.7451 475.319 49.6494 475.36 52.5422L475.36 52.537Z" fill="white"></path><path d="M213.31 28.748C219.614 28.9698 225.583 27.9384 231.603 29.5009C230.711 29.7485 229.825 30.1816 228.918 30.2177C226.222 30.3209 225.598 31.9866 225.397 34.2814C224.675 42.553 225.598 50.8195 225.397 59.0809C225.356 60.7208 225.923 61.4892 227.603 61.3345C228.108 61.2881 228.66 61.2365 229.129 61.3809C230.139 61.6903 232.021 62.6082 231.402 63.0878C229.33 64.6916 233.067 68.0384 229.381 68.8171C227.103 69.3019 224.67 73.4893 225.418 75.2684C225.974 76.5989 226.804 77.2693 228.315 77.2538C231.541 77.228 234.763 77.3673 237.989 77.3879C243.278 77.4137 246.412 74.3866 246.7 69.0131C246.726 68.5026 246.69 67.992 246.69 67.4763C246.69 66.5481 246.479 65.4445 247.577 65.0268C248.814 64.5575 249.623 65.4084 250.407 66.2541C251.231 67.1411 251.046 68.1364 250.855 69.1369C250.788 69.4772 250.417 69.7196 250.061 69.5907C247.401 68.6109 247.752 71.1532 247.494 72.1897C247.18 73.4687 247.015 74.7888 246.566 76.0884C245.52 79.1258 243.943 80.6264 240.793 79.8426C237.19 78.9453 233.768 80.1726 230.217 79.8271C225.031 79.3217 219.779 79.5383 214.557 79.4403C214.021 79.43 213.485 79.3475 213.552 78.6307C213.593 78.1408 213.944 78.0067 214.439 77.9603C219.057 77.5426 220 76.7897 220.026 71.7205C220.062 63.8098 220.356 55.8939 219.794 47.9729C219.516 44.0279 219.804 40.021 220.093 36.0657C220.351 32.559 219.227 30.8933 215.614 30.161C214.903 30.0166 214.109 29.9186 213.31 28.7377V28.748Z" fill="white"></path><path d="M249.992 29.4401C250.415 28.4964 251.132 28.5583 251.812 28.5583C256.415 28.5583 261.018 28.548 265.621 28.5738C266.337 28.5738 267.461 28.3159 267.487 29.3421C267.518 30.5282 266.342 29.9042 265.693 30.0744C263.77 30.5746 261.822 30.6468 261.879 33.6946C262.018 41.3474 261.863 49.0054 261.631 56.6582C261.456 62.6145 261.858 68.5449 262.018 74.4856C262.064 76.2957 262.832 77.2858 264.848 77.2601C268.136 77.2136 271.43 77.4044 274.718 77.4251C279.873 77.4509 280.888 76.6258 282.548 71.6184C283.166 69.7568 283.383 67.7249 284.641 65.8169C285.476 66.8225 285.27 67.6785 285.032 68.5604C284.218 71.6597 283.409 74.759 282.62 77.8686C282.244 79.3589 281.522 80.0809 279.79 80.0448C274.667 79.9416 269.528 79.5703 264.435 79.7869C260.631 79.9468 256.817 79.1939 253.034 79.9829C252.461 80.1015 251.843 79.9829 251.245 79.9829C250.678 79.9829 250.137 79.7869 250.075 79.2248C250.013 78.6421 250.565 78.4513 251.085 78.3069C256.41 76.8475 256.384 76.8423 256.42 71.3812C256.446 67.4671 255.863 63.5324 256.049 59.675C256.348 53.461 256.358 47.2624 256.399 41.0535C256.415 38.8463 256.069 36.6185 256.271 34.432C256.549 31.3585 254.595 30.5334 252.302 29.8733C251.585 29.667 250.766 30.0177 249.987 29.4504L249.992 29.4401Z" fill="white"></path><path d="M460.166 89.1124C454.062 89.7816 448.227 89.0802 442.16 89.4806C442.843 87.8361 443.905 88.2439 444.76 88.1545C447.406 87.8798 448.518 86.7037 448.485 84.012C448.34 72.6574 448.221 61.3024 447.973 49.9545C447.917 47.5106 447.316 45.0849 447.364 42.6035C447.39 41.1951 446.401 40.518 445.144 40.1954C443.897 39.8778 442.537 39.9177 441.434 39.2113C441.526 38.426 442.026 38.4654 442.403 38.4601C447.685 38.3853 452.973 38.3208 458.257 38.2821C458.896 38.2731 459.841 38.0483 459.937 38.9701C460.032 39.8558 459.166 39.9145 458.477 39.9707C456.994 40.0896 455.233 39.5008 454.244 41.0723C453.065 42.9457 452.972 45.1389 453.388 47.2372C454.231 51.4647 453.843 55.7251 453.898 59.9688C453.958 64.2177 453.596 68.4777 453.702 72.7259C453.793 76.242 454.508 79.7492 454.258 83.2701C454.005 86.889 455.843 87.8223 458.475 87.9965C458.888 88.0216 459.302 88.1499 459.69 88.2836C459.804 88.3233 459.854 88.5546 460.161 89.1125L460.166 89.1124Z" fill="white"></path><path d="M210.323 29.4451C209.478 30.1877 208.38 29.7855 207.411 30.0485C203.911 31.0025 203.442 31.5337 203.437 35.4065C203.431 46.1277 203.411 56.8437 203.426 67.5649C203.426 68.8232 203.473 70.1227 203.39 71.3346C203.132 75.29 204.071 78.085 208.565 78.4769C208.699 78.4872 208.807 78.8637 209.194 79.5238C204.808 79.5238 200.736 79.4928 196.669 79.5444C195.499 79.5599 194.329 79.8435 193.159 79.9724C192.525 80.0395 191.87 79.8899 191.7 79.2195C191.504 78.4408 192.272 78.2758 192.772 78.0283C193.731 77.559 194.782 77.7859 195.798 77.7292C197.107 77.6518 197.932 76.9299 197.942 75.6664C198.029 66.0282 198.256 56.3796 198.009 46.7465C197.895 42.3632 198.21 37.9746 197.72 33.5758C197.437 31.0283 196.282 30.394 194.2 30.2702C193.354 30.2187 192.128 30.3063 192.184 29.2595C192.246 28.0579 193.54 28.6045 194.277 28.5994C198.88 28.5736 203.478 28.6406 208.081 28.6458C208.941 28.6458 209.813 28.4859 210.323 29.4606V29.4451Z" fill="white"></path><path d="M141.629 10.9901C139.518 15.2758 139.913 21.0404 136.279 25.4626C134.469 27.6593 133.908 30.2724 133.6 33.1942C132.91 39.7701 130.468 45.9798 128.306 52.2038C126.468 57.509 124.837 62.9936 122.129 67.8465C120.205 71.2995 120.212 74.8387 119.573 78.3492C119.156 80.6177 118.143 81.1489 116.262 80.9479C113.784 80.6823 114.732 78.6794 115.048 77.66C117.842 68.7295 120.822 59.8493 123.738 50.9547C125.124 46.7192 126.503 42.4837 127.882 38.2481C127.954 38.0256 128.163 37.8031 128.148 37.5949C127.373 27.6091 135.467 20.3944 136.494 10.9613C136.566 10.3009 137.126 9.70505 137.435 9.06613C138.11 7.66626 139.36 7.84573 140.516 8.05392C141.852 8.298 141.471 9.46815 141.629 11.0044V10.9901Z" fill="white"></path><path d="M391.616 74.6669C393.523 74.6824 394.909 76.018 394.718 77.89C394.512 79.896 393.007 80.8758 391.234 80.9171C389.358 80.9635 388.394 79.6846 388.415 77.7559C388.435 75.822 389.641 74.6514 391.616 74.6669Z" fill="white"></path><path d="M446.11 55.0363C446.323 56.663 444.857 57.2047 443.948 57.0937C442.311 56.8951 442.145 55.0253 441.855 53.7814C441.646 52.9075 442.111 51.4827 443.627 51.5334C445.891 51.6097 445.804 53.4624 446.115 55.0362L446.11 55.0363Z" fill="white"></path><path d="M499.091 77.5748C498.911 77.995 498.807 78.6721 498.415 79.0335C497.886 79.5258 497.592 78.7461 497.197 78.5093C496.978 78.3783 496.779 78.1696 496.547 78.1162C495.186 77.795 494.025 77.2906 494.547 75.5606C494.753 74.8769 494.999 74.0225 496.063 74.1673C496.879 74.2795 499.041 76.6007 499.096 77.5747L499.091 77.5748Z" fill="white"></path><path d="M275.424 35.2317C276.475 35.2317 277.341 35.634 277.434 36.5468C277.537 37.5678 276.465 37.671 275.769 37.64C274.965 37.6039 273.96 37.4028 274.048 36.227C274.109 35.3864 274.78 35.1802 275.424 35.2266V35.2317Z" fill="white"></path><path d="M284.214 40.1268C284.08 41.019 283.652 41.5192 282.879 41.4985C282.003 41.4779 281.456 40.9519 281.523 40.0495C281.59 39.2089 282.364 39.0232 282.998 38.9562C283.838 38.8737 284.085 39.5389 284.209 40.1217L284.214 40.1268Z" fill="white"></path><path d="M167.731 56.3739C168.834 56.2965 169.963 56.4254 169.648 57.8848C169.334 59.3442 169.185 61.3761 167.308 61.474C166.107 61.5359 164.747 60.4478 164.922 58.7615C165.087 57.1423 165.87 56.0696 167.736 56.3739H167.731Z" fill="white"></path></g><g filter="url(#filter1_f_267_306)"><path fill-rule="evenodd" clip-rule="evenodd" d="M31.1779 41.4569C31.0279 42.8565 30.9916 44.2697 31.2324 45.6693L31.2369 45.6602C31.2603 46.1477 31.171 46.6221 31.0817 47.0969C30.9971 47.5469 30.9123 47.9972 30.9234 48.4594C30.9293 48.6766 30.8593 48.8919 30.7426 49.0861C30.696 54.7478 30.5897 60.2626 30.5809 60.6948C30.5718 61.1583 30.949 61.4673 31.3943 61.5991C31.7942 61.7218 32.1759 61.69 32.444 61.2947C32.5576 61.1265 32.7303 61.0402 32.9302 61.0584C33.3614 61.0993 33.7874 61.0513 34.2151 61.0031C34.689 60.9497 35.1649 60.896 35.6522 60.9629C36.153 61.0339 36.66 61.0319 37.168 61.0299C37.8954 61.0271 38.625 61.0242 39.342 61.2356C40.1372 61.4719 40.9461 61.3583 41.7368 61.172C42.1487 61.0767 42.568 61.0194 42.9879 60.9619C43.3091 60.918 43.6307 60.874 43.9498 60.813C44.8313 60.6448 45.413 61.3628 45.2539 62.2444C45.1313 62.926 45.0722 63.6167 45.0904 64.3165C45.1313 65.9024 44.6541 66.5749 42.9637 66.5386C42.0815 66.5204 41.2254 66.6562 40.371 66.7917C39.5134 66.9277 38.6575 67.0635 37.7788 67.043C37.3153 67.0319 36.8501 67.0579 36.3849 67.0839C35.3222 67.1433 34.2595 67.2027 33.2165 66.8203C33.0348 66.7522 32.8484 66.7931 32.6621 66.843C31.5943 67.1339 31.1626 67.6428 31.2307 68.8652C31.2729 69.623 31.284 70.3816 31.2951 71.1401C31.3115 72.2598 31.3278 73.3792 31.4443 74.4954C31.4852 74.8725 31.4897 75.2497 31.408 75.6178C31.1898 76.6175 31.1626 77.6263 31.2035 78.6442H31.1944C31.1944 78.7561 31.1954 78.8685 31.1964 78.9811C31.1984 79.2068 31.2004 79.4332 31.1944 79.6575C31.1807 80.2801 30.9808 80.5573 30.3719 80.58C29.0995 80.63 27.8226 80.6572 26.5503 80.6163C25.6778 80.5891 25.2552 80.1301 25.3461 79.2622C25.4243 78.5016 25.4357 77.7389 25.4471 76.977C25.4523 76.6327 25.4575 76.2886 25.4688 75.945C25.4944 75.2301 25.6206 74.53 25.7472 73.828C25.7775 73.6599 25.8079 73.4916 25.8368 73.323C25.9752 72.5196 25.9 71.7182 25.825 70.9174C25.7841 70.4816 25.7433 70.046 25.7369 69.6104C25.7141 68.0972 23.9783 66.8521 22.5196 67.3247C21.997 67.4929 21.4972 67.4929 20.9701 67.3656C19.5205 67.0112 18.0573 66.834 16.5668 67.0793C16.176 67.143 15.7852 67.1111 15.3899 67.0339C15.2656 67.0099 15.1417 66.9852 15.0179 66.9604C14.1316 66.7833 13.2521 66.6075 12.3271 66.7431C11.2502 66.9021 10.9911 66.5977 11.0002 65.5071C11.0052 64.7894 11.1133 64.084 11.2214 63.3782C11.3112 62.7924 11.401 62.2063 11.4319 61.6127C11.4501 61.2401 11.7727 61.0902 12.1181 61.0674C12.4952 61.0402 12.8679 61.0765 13.2359 61.1674C14.2493 61.4264 15.2535 61.6218 16.2578 61.1311C16.3578 61.0811 16.4805 61.0674 16.5895 61.0674C17.1011 61.066 17.6126 61.0499 18.1239 61.0337C19.2658 60.9976 20.4064 60.9615 21.5426 61.0902C21.5748 61.0939 21.6069 61.0976 21.6391 61.1012C22.7541 61.2296 23.8276 61.3531 24.9053 60.8584C25.2961 60.6766 25.6051 60.4858 25.7323 60.0905C25.8874 59.6183 25.9513 54.4541 26.0134 49.4464C26.0265 48.3811 26.0397 47.323 26.0535 46.3186C25.9697 46.1447 25.9084 45.9548 25.8794 45.742C25.7928 45.1 25.8119 44.4581 25.8309 43.8161C25.8459 43.3129 25.8608 42.8098 25.8249 42.3066C25.7558 41.3862 25.7904 40.4657 25.8249 39.5461C25.8517 38.8313 25.8785 38.1169 25.8567 37.4035C25.8518 37.2413 25.8463 37.0793 25.8409 36.9174C25.796 35.5815 25.7513 34.2518 26.0066 32.9184C26.1274 32.2892 26.1615 31.6481 26.1957 31.0054C26.2285 30.3903 26.2613 29.7739 26.3702 29.165C26.5883 27.9426 27.3426 27.37 28.5513 27.5654C28.9285 27.6291 29.3011 27.6063 29.6647 27.5018C30.0191 27.3973 30.369 27.4246 30.7189 27.5155C31.4142 27.7018 31.5914 27.9835 31.5505 28.6969C31.5272 29.0848 31.5047 29.4731 31.4821 29.8613C31.4255 30.8375 31.3688 31.8133 31.3006 32.7821C31.2063 34.1166 31.2376 35.4502 31.2688 36.7832C31.3054 38.3416 31.342 39.8992 31.1779 41.4569Z" fill="white"></path><path fill-rule="evenodd" clip-rule="evenodd" d="M594.885 39.2711C594.667 38.2714 594.639 37.2626 594.68 36.2447H594.671C594.671 36.1328 594.672 36.0204 594.673 35.9078C594.675 35.6821 594.677 35.4557 594.671 35.2314C594.657 34.6088 594.457 34.3316 593.849 34.3089C592.576 34.2589 591.299 34.2317 590.027 34.2725C589.154 34.2998 588.732 34.7588 588.823 35.6267C588.901 36.3872 588.912 37.1499 588.924 37.9117C588.929 38.2561 588.934 38.6002 588.945 38.9439C588.971 39.6588 589.097 40.3589 589.224 41.0609C589.254 41.229 589.285 41.3973 589.314 41.5659C589.452 42.3693 589.377 43.1707 589.302 43.9715C589.261 44.4073 589.22 44.8429 589.214 45.2785C589.191 46.7917 587.455 48.0367 585.996 47.5642C585.474 47.396 584.974 47.396 584.447 47.5233C582.997 47.8777 581.534 48.0549 580.043 47.8095C579.653 47.7459 579.262 47.7777 578.867 47.855C578.742 47.8789 578.618 47.9037 578.494 47.9285C577.608 48.1056 576.729 48.2814 575.804 48.1458C574.727 47.9868 574.468 48.2912 574.477 49.3818C574.482 50.0994 574.59 50.8048 574.698 51.5106C574.788 52.0965 574.878 52.6826 574.909 53.2761C574.927 53.6488 575.249 53.7987 575.595 53.8214C575.972 53.8487 576.345 53.8123 576.713 53.7215C577.726 53.4624 578.73 53.267 579.734 53.7578C579.834 53.8078 579.957 53.8214 580.066 53.8214C580.578 53.8228 581.089 53.839 581.601 53.8552C582.743 53.8913 583.883 53.9274 585.019 53.7987C585.052 53.795 585.084 53.7913 585.116 53.7876C586.231 53.6593 587.304 53.5358 588.382 54.0305C588.773 54.2122 589.082 54.4031 589.209 54.7984C589.364 55.2706 589.428 60.4347 589.49 65.4425C589.503 66.509 589.516 67.5684 589.53 68.5739C589.446 68.7478 589.385 68.9378 589.356 69.1506C589.269 69.7925 589.289 70.4345 589.308 71.0765C589.323 71.5796 589.337 72.0828 589.302 72.586C589.233 73.5064 589.267 74.4269 589.302 75.3465C589.328 76.0613 589.355 76.7756 589.333 77.4891C589.328 77.6513 589.323 77.8134 589.318 77.9754C589.273 79.3111 589.228 80.6408 589.483 81.9741C589.604 82.6034 589.638 83.2445 589.672 83.8872C589.705 84.5022 589.738 85.1187 589.847 85.7276C590.065 86.95 590.819 87.5225 592.028 87.3271C592.405 87.2635 592.778 87.2862 593.141 87.3908C593.496 87.4953 593.846 87.468 594.196 87.3771C594.891 87.1908 595.068 86.9091 595.027 86.1956C595.004 85.8076 594.981 85.4192 594.959 85.0308C594.902 84.0548 594.845 83.0792 594.777 82.1105C594.683 80.7759 594.714 79.4424 594.746 78.1093C594.782 76.551 594.819 74.9933 594.655 73.4357C594.505 72.0361 594.468 70.6229 594.709 69.2233L594.714 69.2324C594.737 68.7448 594.648 68.2705 594.558 67.7957C594.474 67.3457 594.389 66.8954 594.4 66.4332C594.406 66.216 594.336 66.0007 594.219 65.8066C594.173 60.1435 594.066 54.6264 594.058 54.1941C594.049 53.7305 594.426 53.4215 594.871 53.2898C595.271 53.1671 595.653 53.1989 595.921 53.5942C596.034 53.7624 596.207 53.8487 596.407 53.8305C596.838 53.7896 597.264 53.8376 597.692 53.8858C598.166 53.9392 598.642 53.9928 599.129 53.9259C599.63 53.8549 600.137 53.8569 600.645 53.8589C601.372 53.8618 602.102 53.8647 602.819 53.6533C603.614 53.417 604.423 53.5306 605.213 53.7169C605.625 53.8122 606.045 53.8695 606.465 53.9269C606.786 53.9709 607.107 54.0149 607.426 54.0759C608.308 54.244 608.89 53.5261 608.731 52.6445C608.608 51.9629 608.549 51.2722 608.567 50.5724C608.608 48.9865 608.131 48.3139 606.44 48.3503C605.558 48.3684 604.702 48.2327 603.848 48.0971C602.99 47.9611 602.134 47.8254 601.256 47.8459C600.792 47.857 600.327 47.831 599.862 47.8049C598.799 47.7455 597.736 47.6861 596.693 48.0686C596.511 48.1367 596.325 48.0958 596.139 48.0458C595.071 47.755 594.639 47.2461 594.707 46.0237C594.75 45.2658 594.761 44.5073 594.772 43.7488C594.788 42.6291 594.804 41.5097 594.921 40.3935C594.962 40.0163 594.966 39.6392 594.885 39.2711Z" fill="white"></path></g><defs><filter id="filter0_f_267_306" x="107.525" y="0.832798" width="398.651" height="96.4513" filterUnits="userSpaceOnUse" color-interpolation-filters="sRGB"><feGaussianBlur stdDeviation="3.53978"></feGaussianBlur></filter><filter id="filter1_f_267_306" x="0.108377" y="16.5429" width="619.54" height="81.8067" filterUnits="userSpaceOnUse" color-interpolation-filters="sRGB"><feGaussianBlur stdDeviation="5.44581"></feGaussianBlur></filter></defs></svg>