<svg width="333" height="81" viewBox="0 0 333 81" fill="none" xmlns="http://www.w3.org/2000/svg">
<rect x="49.2151" y="78.4924" width="241.628" height="1.61085" fill="white"/>
<path d="M186.521 43.0676C186.998 41.6193 188.77 40.6564 187.88 38.6336C187.451 37.6546 188.843 36.9506 189.264 36.0201C189.474 35.5589 190.38 35.9635 190.979 36.271C191.618 36.6027 192.039 36.8131 191.23 37.4199C191.125 37.5008 191.02 37.7678 191.06 37.8245C192.622 39.734 191.351 41.3442 190.55 43.019C190.267 43.6097 189.976 44.2974 190.575 44.791C191.076 45.2117 192.096 49.6942 188.932 49.7509C187.079 49.7832 186.383 43.4802 186.521 43.0756V43.0676Z" fill="white"/>
<path d="M55.7189 39.9573C55.2981 39.5042 54.5052 40.3456 54.1977 39.6174C54.0278 39.2048 54.4162 38.8731 54.6913 38.5656C55.4033 37.7807 55.29 39.3343 55.9859 38.8731C55.3224 37.627 56.6332 36.8745 56.8597 35.7822C57.0296 34.9812 57.8226 35.0055 58.0572 35.1268C58.6317 35.4343 59.8939 35.855 59.6916 36.0492C58.5346 37.1496 60.1205 37.6675 60.08 38.5413C60.0234 39.8197 59.4489 40.7583 58.8906 41.7616C58.486 42.4898 58.3404 43.3717 58.8016 43.9138C59.3518 44.5611 58.575 51.2606 58.6802 52.1749C58.9715 54.8693 55.9616 53.5666 55.7998 51.4225C55.7674 50.9774 56.083 50.4192 55.5894 50.1117C54.1734 49.2298 54.5699 47.8462 54.2544 46.5435C53.6637 44.1404 54.5133 42.4574 55.6299 40.6531C55.7189 40.5075 55.735 40.3214 55.7755 40.1515C55.7836 40.1029 55.7512 40.0463 55.727 39.9492L55.7189 39.9573ZM59.5864 46.4221C59.0929 47.2474 59.1576 48.186 59.4084 48.9708C59.6431 49.7233 60.7111 44.5288 59.5864 46.4221Z" fill="white"/>
<path d="M107.8 56.5455C107.266 56.3109 107.654 55.5503 106.926 55.4451C106.756 56.7154 105.939 57.6054 105.008 58.4712C103.6 56.2785 104.102 53.8512 103.924 51.529C103.9 51.2377 103.803 50.817 104.175 50.8332C105.494 50.8979 106.893 50.4852 108.107 51.0435C108.576 51.262 110.211 52.0226 108.398 53.0016C107.978 53.2281 108.504 53.7379 108.544 54.1262C108.649 55.0648 108.309 55.8173 107.8 56.5455Z" fill="white"/>
<path d="M273.027 58.561C271.765 56.2955 272.016 53.9976 271.951 51.732C271.911 50.4779 272.517 50.7692 274.136 50.8663C274.508 50.8905 274.872 50.8258 275.236 50.7854C276.304 50.6721 277.113 52.1609 277.065 52.2094C275.689 53.415 277.453 55.632 275.568 56.6029C275.05 56.4411 275.293 55.7048 274.718 55.098C274.621 56.6596 274.022 57.6791 273.027 58.5691V58.561Z" fill="white"/>
<path d="M197.978 56.0556C197.08 56.0071 196.659 55.1656 196.473 54.227C196.174 52.6816 199.799 52.8111 200.26 53.3046C200.689 53.7739 198.949 56.0556 197.978 56.0475V56.0556Z" fill="white"/>
<path d="M64.5921 54.2081C64.3898 52.6707 65.7815 52.5736 66.6473 52.2904C67.246 52.0963 68.0228 52.8164 68.3059 53.5203C68.484 53.9653 66.6068 56.0933 66.1861 56.0609C65.0857 55.9638 64.495 55.3974 64.5921 54.2V54.2081Z" fill="white"/>
<path d="M288.694 57.7615C289.18 56.5721 289.317 55.9167 288.103 56.0543C287.367 56.1352 286.971 55.5283 286.817 54.8891C286.671 54.2985 286.768 53.6754 287.351 53.3437C288.006 52.9715 288.468 53.3114 289.018 53.7645C290.652 55.0914 290.725 56.1513 288.686 57.7696L288.694 57.7615Z" fill="white"/>
<path d="M121.012 57.3963C120.454 57.0807 122.08 56.0612 120.632 56.0936C119.612 56.1179 119.062 55.7538 119.005 54.7424C118.973 54.1841 118.827 53.5287 119.564 53.2698C120.518 52.938 121.157 53.6501 121.708 54.1598C122.662 55.0417 122.234 56.7652 121.012 57.3963Z" fill="white"/>
<path d="M149.72 36.7563C148.878 36.0524 148.255 35.2513 147.09 34.9681C146.054 34.7173 146.718 33.7626 146.936 33.2043C147.252 32.3871 147.754 32.8968 148.174 33.2043C149.348 34.0619 149.558 35.3727 149.72 36.7644V36.7563Z" fill="white"/>
<path d="M277.844 49.6306C279.308 49.4364 279.583 48.5059 279.527 47.3003C280.352 48.0609 280.935 48.8134 280.247 49.8248C279.551 50.8523 278.807 50.375 277.844 49.6387V49.6306Z" fill="white"/>
<path d="M138.869 34.6198C138.432 34.2718 137.453 34.8463 137.502 33.9887C137.534 33.4142 138.085 32.7102 138.902 32.783C139.63 32.8478 140.326 33.2119 140.229 34.0534C140.14 34.8868 139.322 34.4175 138.861 34.6198H138.869Z" fill="white"/>
<path d="M144.728 36.2559C144.817 36.9679 144.582 37.3887 143.805 37.3887C143.053 37.3887 142.381 36.709 142.413 36.3449C142.494 35.5277 143.482 35.4063 144.137 35.2526C144.808 35.0989 144.679 35.819 144.728 36.2478V36.2559Z" fill="white"/>
<path d="M74.5848 42.2661C75.1997 42.3308 75.9522 42.3228 76.1463 43.2128C76.2192 43.5526 75.9683 44.1595 75.7013 43.9329C75.0217 43.3504 73.8646 43.7063 73.5167 42.9053C73.3063 42.4118 74.0507 42.3066 74.5928 42.2742L74.5848 42.2661Z" fill="white"/>
<path d="M149.398 50.8526C148.605 50.4399 147.253 51.7831 147.399 49.647C147.431 49.202 145.999 48.5466 145.579 47.5352C146.655 47.4705 148.038 46.6533 148.605 47.6889C149.001 48.4252 148.969 49.647 149.398 50.8445V50.8526Z" fill="white"/>
<path d="M54.6382 63.9657H49.5408V62.9543C50.9486 62.9543 51.9681 62.8572 52.5911 62.6711C53.2223 62.4769 53.643 62.1695 53.8615 61.7244C54.0799 61.2794 54.1932 60.5674 54.1932 59.5722V33.2112C54.1932 32.2159 54.0799 31.4958 53.8615 31.0589C53.643 30.622 53.2142 30.3064 52.5911 30.1122C51.96 29.9261 50.9405 29.829 49.5408 29.829V28.8176H62.6323C65.9092 28.8176 68.8301 29.4811 71.3788 30.8161C73.9276 32.1512 75.9423 34.1416 77.423 36.7874C78.9036 39.4413 79.6399 42.6374 79.6399 46.3836C79.6399 50.1298 78.8875 53.3339 77.3744 55.9797C75.8694 58.6336 73.8305 60.624 71.2656 61.951C68.7007 63.286 65.8283 63.9495 62.6323 63.9495H54.6382V63.9657ZM62.6323 62.2989C65.27 62.2989 67.5517 61.6516 69.4855 60.3651C71.4193 59.0786 72.9 57.25 73.9195 54.8712C74.9471 52.5005 75.4568 49.6767 75.4568 46.3917C75.4568 43.1066 74.9471 40.2828 73.9195 37.9121C72.8919 35.5414 71.4193 33.7128 69.4855 32.4182C67.5517 31.1317 65.27 30.4844 62.6323 30.4844C61.6694 30.4844 60.8037 30.541 60.0431 30.6624C59.2825 30.7838 58.611 30.9861 58.0203 31.2774V61.506C58.6029 61.7972 59.2825 62.0076 60.0431 62.1209C60.8037 62.2423 61.6694 62.2989 62.6323 62.2989Z" fill="white"/>
<path d="M94.0439 49.4658C94.0439 47.9447 93.9225 46.6096 93.6717 45.4688C93.4209 44.3279 93.0163 43.4136 92.4661 42.7258C91.9078 42.0381 91.1958 41.6902 90.3138 41.6902C89.2863 41.6902 88.4448 42.1271 87.7894 43.009C87.134 43.891 86.6485 45.0642 86.3411 46.5449C86.0336 48.0256 85.8799 49.7328 85.8799 51.6666C85.8799 53.6004 86.0822 55.4371 86.4948 57.0068C86.9075 58.5764 87.4981 59.8144 88.2749 60.7206C89.0516 61.6268 89.9983 62.0799 91.1068 62.0799C92.3043 62.0799 93.3804 61.5055 94.3109 60.3484C95.2495 59.1914 95.9777 57.3142 96.5036 54.7008H97.515C97.1023 58.0101 96.2447 60.5264 94.9258 62.2579C93.6069 63.9895 91.9806 64.8471 90.0468 64.8471C88.4691 64.8471 87.1097 64.3455 85.9851 63.3341C84.8604 62.3227 83.9865 60.8986 83.3716 59.0538C82.7567 57.209 82.4492 55.0406 82.4492 52.5485C82.4492 50.2668 82.7729 48.1712 83.4121 46.2698C84.0594 44.3684 84.9818 42.8472 86.1793 41.7225C87.3767 40.5979 88.8008 40.0315 90.4433 40.0315C91.9402 40.0315 93.2105 40.5008 94.2623 41.4394C95.3142 42.3779 96.1071 43.6806 96.633 45.3474C97.159 47.0142 97.426 48.9318 97.426 51.1002H85.2164V49.4739H94.0439V49.4658Z" fill="white"/>
<path d="M106.136 66.167C106.136 68.9504 105.691 71.0379 104.792 72.4296C103.902 73.8212 102.543 74.5171 100.731 74.5171C99.2095 74.5171 98.0363 74.1692 97.2191 73.4652C96.4019 72.7613 95.9893 71.8955 95.9893 70.8761C95.9893 70.2935 96.1754 69.8323 96.5395 69.4925C96.9036 69.1526 97.3971 68.9908 98.0121 68.9908C98.627 68.9908 99.072 69.1688 99.4361 69.5167C99.8002 69.8647 100.011 70.3825 100.075 71.0541C100.075 71.402 100.091 71.669 100.116 71.847C100.148 72.1949 100.229 72.4538 100.383 72.6157C100.528 72.7775 100.779 72.8584 101.127 72.8584C101.888 72.8584 102.373 72.3244 102.575 71.2563C102.778 70.1883 102.883 68.4973 102.883 66.1832V62.6716H106.136V66.1832V66.167ZM102.883 62.6554V45.6559C102.883 44.693 102.842 44.0376 102.753 43.6978C102.664 43.358 102.462 43.1881 102.139 43.1719C101.815 43.1557 101.249 43.3256 100.423 43.6735L100.027 42.7916L103.279 41.3837L105.61 40.2429L106.136 40.8174V62.6554H102.883ZM104.153 32.5643C103.538 32.5643 103.004 32.3378 102.551 31.8847C102.098 31.4316 101.872 30.8976 101.872 30.2826C101.872 29.6677 102.098 29.0932 102.551 28.632C103.004 28.1789 103.538 27.9524 104.153 27.9524C104.768 27.9524 105.343 28.1709 105.804 28.6078C106.257 29.0447 106.484 29.603 106.484 30.2746C106.484 30.8895 106.257 31.4235 105.804 31.8766C105.351 32.3297 104.801 32.5562 104.153 32.5562V32.5643Z" fill="white"/>
<path d="M121.811 60.2767H121.682L121.641 60.3171L121.601 60.3576C120.954 61.5308 120.136 62.5665 119.141 63.4808C118.146 64.387 116.868 64.8401 115.322 64.8401C113.777 64.8401 112.62 64.3465 111.786 63.3675C110.953 62.3885 110.532 61.0453 110.532 59.3462C110.532 57.647 110.913 56.3363 111.673 55.2359C112.434 54.1355 113.356 53.2535 114.44 52.5819C115.524 51.9104 117.005 51.1336 118.874 50.2517L119.708 49.8552L121.771 48.8924V50.4297L119.797 51.3925C117.863 52.3311 116.382 53.3668 115.363 54.4915C114.335 55.6162 113.825 56.9755 113.825 58.5532C113.825 59.7265 114.092 60.6246 114.618 61.2557C115.144 61.8868 115.864 62.2024 116.771 62.2024C117.677 62.2024 118.502 61.9354 119.255 61.3932C119.999 60.8511 120.857 59.9368 121.828 58.6503V60.2767H121.811ZM125.015 61.1101C125.015 61.8706 125.072 62.4046 125.193 62.7121C125.307 63.0196 125.558 63.1733 125.938 63.1733C126.286 63.1733 126.561 63.0277 126.747 62.7364C126.933 62.4451 127.192 61.8706 127.516 61.0211H128.478L128.438 61.2395C128.058 62.5017 127.637 63.4161 127.184 63.9824C126.731 64.5569 125.986 64.8401 124.967 64.8401C123.826 64.8401 123.001 64.4922 122.507 63.8044C122.006 63.1167 121.763 62.0972 121.763 60.754V46.7806C121.763 45.5831 121.682 44.596 121.52 43.8354C121.358 43.0748 121.018 42.4761 120.509 42.0311C119.999 41.5861 119.238 41.3757 118.243 41.3757C117.305 41.3757 116.528 41.578 115.913 41.9906C115.298 42.4033 114.99 42.9454 114.99 43.6169C114.99 43.9972 115.12 44.4261 115.387 44.8873C115.622 45.4698 115.735 45.9391 115.735 46.2951C115.735 46.7644 115.557 47.1447 115.209 47.436C114.861 47.7273 114.392 47.8729 113.801 47.8729C113.129 47.8729 112.604 47.6221 112.239 47.1285C111.875 46.6269 111.689 45.9148 111.689 44.9763C111.689 43.4794 112.32 42.2819 113.575 41.3757C114.837 40.4695 116.471 40.0164 118.494 40.0164C120.517 40.0164 122.143 40.5828 123.284 41.7074C124.425 42.8321 124.999 44.5717 124.999 46.9101V61.102L125.015 61.1101Z" fill="white"/>
<path d="M131.832 45.7368V45.4294C131.832 44.4665 131.792 43.8111 131.703 43.4713C131.614 43.1315 131.412 42.9616 131.088 42.9454C130.764 42.9292 130.198 43.0991 129.373 43.447L128.976 42.5651L132.229 41.1572L134.559 40.0164L135.085 40.5423V59.5646C135.085 60.5598 135.19 61.2881 135.392 61.7412C135.595 62.1943 136.015 62.5098 136.647 62.6878C137.278 62.8658 138.265 62.9548 139.616 62.9548V63.9662H128.806V62.9548C129.712 62.9548 130.376 62.8658 130.78 62.6878C131.193 62.5098 131.468 62.1943 131.614 61.7412C131.759 61.2881 131.832 60.5598 131.832 59.5646V45.7287V45.7368ZM141.76 44.4665C141.258 44.4665 140.87 44.3775 140.595 44.1995C140.32 44.0215 140.093 43.7626 139.915 43.4066C139.77 43.1396 139.632 42.9616 139.495 42.8564C139.365 42.7512 139.195 42.7026 138.993 42.7026C138.378 42.7026 137.787 43.0101 137.213 43.625C136.638 44.24 135.934 45.2514 135.085 46.6592V44.418H135.214C135.918 43.1557 136.719 42.112 137.634 41.2786C138.54 40.4452 139.608 40.0245 140.838 40.0245C141.687 40.0245 142.383 40.2348 142.925 40.6637C143.467 41.0925 143.734 41.6508 143.734 42.3547C143.734 42.9696 143.556 43.4713 143.208 43.8678C142.861 44.2642 142.375 44.4584 141.76 44.4584V44.4665Z" fill="white"/>
<path d="M168.089 64.8481C165.363 64.8481 162.992 64.0309 160.969 62.3884C158.946 60.7459 157.401 58.5208 156.333 55.7132C155.265 52.8975 154.731 49.7985 154.731 46.4003C154.731 43.002 155.265 39.8949 156.333 37.0873C157.401 34.2797 158.946 32.0465 160.969 30.4121C162.992 28.7696 165.363 27.9524 168.089 27.9524C170.816 27.9524 173.219 28.7696 175.226 30.4121C177.233 32.0546 178.77 34.2797 179.838 37.0873C180.906 39.903 181.44 43.002 181.44 46.4003C181.44 49.7985 180.906 52.9056 179.838 55.7132C178.77 58.5289 177.233 60.754 175.226 62.3884C173.219 64.0309 170.84 64.8481 168.089 64.8481ZM169.586 63.2218C171.399 63.0762 172.936 62.267 174.198 60.8025C175.461 59.338 176.351 57.3072 176.876 54.6937C177.402 52.0884 177.508 49.0542 177.184 45.5992C176.86 42.1443 176.221 39.1667 175.274 36.6828C174.32 34.1907 173.098 32.3378 171.609 31.1241C170.112 29.9104 168.462 29.3764 166.641 29.5221C164.796 29.7001 163.243 30.5173 161.981 31.9818C160.718 33.4463 159.828 35.4853 159.302 38.0906C158.777 40.696 158.655 43.7302 158.955 47.1851C159.278 50.6724 159.917 53.6499 160.888 56.1258C161.851 58.6017 163.081 60.4465 164.578 61.6602C166.075 62.8739 167.742 63.3917 169.586 63.2218Z" fill="white"/>
<path d="M189.951 59.5684C189.951 60.5636 190.048 61.2918 190.234 61.7449C190.428 62.198 190.816 62.5136 191.423 62.6916C192.022 62.8696 192.969 62.9586 194.255 62.9586V63.97H183.664V62.9586C184.546 62.9586 185.185 62.8696 185.598 62.6916C186.01 62.5136 186.285 62.198 186.431 61.7449C186.577 61.2918 186.649 60.5636 186.649 59.5684V38.4342C186.649 34.8579 187.256 32.2202 188.47 30.5049C189.684 28.7895 191.52 27.9319 193.98 27.9319C195.008 27.9319 195.954 28.1423 196.836 28.5711C197.718 28.9918 198.414 29.5501 198.924 30.2379C199.434 30.9256 199.692 31.6377 199.692 32.3659C199.692 33.0941 199.498 33.6038 199.118 33.9679C198.738 34.332 198.268 34.5181 197.71 34.5181C197.128 34.5181 196.642 34.3482 196.262 34.0165C195.881 33.6766 195.679 33.1588 195.647 32.4548V32.3659C195.59 31.5486 195.42 30.8771 195.145 30.3673C194.87 29.8576 194.288 29.5987 193.406 29.5987C192.054 29.5987 191.14 30.1812 190.663 31.3545C190.177 32.5277 189.934 34.2511 189.934 36.5409V59.5603L189.951 59.5684ZM194.077 40.894V42.5607H183.664V40.894H194.077Z" fill="white"/>
<path d="M199.222 45.7368V45.4294C199.222 44.4665 199.182 43.8111 199.093 43.4713C199.004 43.1315 198.801 42.9616 198.478 42.9454C198.154 42.9292 197.588 43.0991 196.762 43.447L196.366 42.5651L199.619 41.1572L201.949 40.0164L202.475 40.5423V59.5646C202.475 60.5598 202.58 61.2881 202.782 61.7412C202.985 62.1943 203.405 62.5098 204.036 62.6878C204.668 62.8658 205.655 62.9548 207.006 62.9548V63.9662H196.196V62.9548C197.102 62.9548 197.766 62.8658 198.17 62.6878C198.575 62.5098 198.858 62.1943 199.004 61.7412C199.149 61.2881 199.222 60.5598 199.222 59.5646V45.7287V45.7368ZM209.15 44.4665C208.648 44.4665 208.26 44.3775 207.985 44.1995C207.71 44.0215 207.483 43.7626 207.305 43.4066C207.16 43.1396 207.022 42.9616 206.884 42.8564C206.755 42.7512 206.585 42.7026 206.383 42.7026C205.768 42.7026 205.177 43.0101 204.603 43.625C204.028 44.24 203.324 45.2514 202.475 46.6592V44.418H202.604C203.308 43.1557 204.109 42.112 205.024 41.2786C205.938 40.4452 206.998 40.0245 208.228 40.0245C209.077 40.0245 209.773 40.2348 210.315 40.6637C210.857 41.0925 211.124 41.6508 211.124 42.3547C211.124 42.9696 210.946 43.4713 210.598 43.8678C210.25 44.2642 209.765 44.4584 209.15 44.4584V44.4665Z" fill="white"/>
<path d="M223.776 49.4658C223.776 47.9447 223.655 46.6096 223.404 45.4688C223.153 44.3279 222.749 43.4136 222.198 42.7258C221.64 42.0381 220.928 41.6902 220.046 41.6902C219.019 41.6902 218.177 42.1271 217.522 43.009C216.866 43.891 216.381 45.0642 216.073 46.5449C215.766 48.0256 215.612 49.7328 215.612 51.6666C215.612 53.6004 215.815 55.4371 216.227 57.0068C216.64 58.5764 217.23 59.8144 218.007 60.7206C218.784 61.6268 219.731 62.0799 220.839 62.0799C222.037 62.0799 223.105 61.5055 224.043 60.3484C224.982 59.1914 225.71 57.3142 226.244 54.7008H227.255C226.843 58.0101 225.985 60.5264 224.666 62.2579C223.347 63.9895 221.721 64.8471 219.787 64.8471C218.21 64.8471 216.85 64.3455 215.726 63.3341C214.601 62.3227 213.727 60.8986 213.112 59.0538C212.497 57.209 212.19 55.0406 212.19 52.5485C212.19 50.2668 212.513 48.1712 213.153 46.2698C213.8 44.3684 214.722 42.8472 215.92 41.7225C217.117 40.5979 218.541 40.0315 220.184 40.0315C221.681 40.0315 222.951 40.5008 224.003 41.4394C225.055 42.3779 225.848 43.6806 226.374 45.3474C226.899 47.0142 227.166 48.9318 227.166 51.1002H214.957V49.4739H223.784L223.776 49.4658Z" fill="white"/>
<path d="M235.384 44.329H235.514C236.42 43.0101 237.399 41.9663 238.459 41.1896C239.511 40.4128 240.668 40.0245 241.93 40.0245C244.916 40.0245 246.413 42.0634 246.413 46.1333V59.5808C246.413 60.576 246.485 61.3043 246.631 61.7574C246.777 62.2105 247.052 62.526 247.464 62.704C247.877 62.882 248.516 62.971 249.398 62.971V63.9824H240.344V62.971C241.161 62.971 241.768 62.882 242.165 62.704C242.561 62.526 242.82 62.2105 242.958 61.7574C243.087 61.3043 243.16 60.576 243.16 59.5808V46.1333C243.16 44.9034 242.958 43.973 242.545 43.3418C242.132 42.7107 241.493 42.3952 240.611 42.3952C239.729 42.3952 238.904 42.7107 238.038 43.3418C237.172 43.973 236.291 44.8549 235.376 45.9957V59.5727C235.376 60.5679 235.441 61.2962 235.57 61.7493C235.7 62.2024 235.959 62.5179 236.339 62.6959C236.719 62.8739 237.334 62.9629 238.184 62.9629V63.9743H229.089V62.9629C229.996 62.9629 230.659 62.8739 231.064 62.6959C231.468 62.5179 231.751 62.2024 231.897 61.7493C232.043 61.2962 232.115 60.5679 232.115 59.5727V45.4294C232.115 44.4665 232.075 43.8111 231.986 43.4713C231.897 43.1315 231.695 42.9616 231.371 42.9454C231.047 42.9292 230.481 43.0991 229.656 43.447L229.259 42.5651L232.512 41.1572L234.842 40.0164L235.368 40.5423V44.3209L235.384 44.329Z" fill="white"/>
<path d="M264.153 60.5415C263.214 62.006 262.292 63.0902 261.386 63.7941C260.479 64.4981 259.395 64.846 258.133 64.846C256.612 64.846 255.301 64.3686 254.201 63.4219C253.1 62.4753 252.259 61.1321 251.676 59.4006C251.094 57.6691 250.794 55.6544 250.794 53.3403C250.794 50.8482 251.118 48.5989 251.757 46.5761C252.396 44.5533 253.343 42.9593 254.589 41.7861C255.835 40.6129 257.348 40.0304 259.136 40.0304C260.188 40.0304 261.151 40.2974 262.017 40.8395C262.882 41.3816 263.619 42.0451 264.234 42.838H264.323V60.5415H264.145H264.153ZM264.331 49.7802C264.331 47.2315 263.91 45.2492 263.077 43.8251C262.243 42.4011 261.135 41.6971 259.759 41.6971C257.914 41.6971 256.587 42.6923 255.786 44.6828C254.977 46.6732 254.581 49.1815 254.581 52.1995C254.581 55.2175 254.969 57.839 255.746 59.7081C256.523 61.5852 257.712 62.5238 259.33 62.5238C260.091 62.5238 260.754 62.3539 261.329 62.0222C261.903 61.6823 262.397 61.2616 262.826 60.7518C263.247 60.2421 263.724 59.5705 264.25 58.7533C264.25 58.6967 264.282 58.64 264.339 58.5753V49.7883L264.331 49.7802ZM264.331 33.6545V33.347C264.331 32.3842 264.29 31.7288 264.201 31.389C264.112 31.0492 263.918 30.8792 263.611 30.863C263.303 30.8469 262.753 31.0006 261.96 31.3242L261.564 30.4423L264.727 29.083L267.057 27.9421L267.583 28.5166V59.4492C267.583 60.412 267.616 61.0674 267.697 61.4072C267.769 61.747 267.964 61.917 268.271 61.9332C268.579 61.9493 269.145 61.7956 269.962 61.472L270.359 62.3539L267.195 63.7132L264.865 64.8541L264.339 64.2796V33.6545H264.331Z" fill="white"/>
<path d="M283.839 60.2767H283.71L283.669 60.3171L283.629 60.3576C282.981 61.5308 282.164 62.5665 281.169 63.4808C280.174 64.387 278.895 64.8401 277.35 64.8401C275.805 64.8401 274.648 64.3465 273.814 63.3675C272.981 62.3885 272.56 61.0453 272.56 59.3462C272.56 57.647 272.94 56.3363 273.701 55.2359C274.461 54.1355 275.384 53.2535 276.468 52.5819C277.552 51.9104 279.033 51.1336 280.902 50.2517L281.735 49.8552L283.799 48.8924V50.4297L281.824 51.3925C279.891 52.3311 278.41 53.3668 277.39 54.4915C276.363 55.6162 275.853 56.9755 275.853 58.5532C275.853 59.7265 276.12 60.6246 276.646 61.2557C277.172 61.8868 277.892 62.2024 278.798 62.2024C279.705 62.2024 280.538 61.9354 281.282 61.3932C282.027 60.8511 282.884 59.9368 283.855 58.6503V60.2767H283.839ZM287.043 61.1101C287.043 61.8706 287.1 62.4046 287.221 62.7121C287.335 63.0196 287.585 63.1733 287.966 63.1733C288.314 63.1733 288.589 63.0277 288.775 62.7364C288.961 62.4451 289.22 61.8706 289.543 61.0211H290.506L290.466 61.2395C290.086 62.5017 289.665 63.4161 289.212 63.9824C288.759 64.5569 288.014 64.8401 286.995 64.8401C285.854 64.8401 285.029 64.4922 284.535 63.8044C284.033 63.1167 283.791 62.0972 283.791 60.754V46.7806C283.791 45.5831 283.71 44.596 283.548 43.8354C283.386 43.0748 283.046 42.4761 282.536 42.0311C282.027 41.5942 281.266 41.3757 280.271 41.3757C279.332 41.3757 278.556 41.578 277.941 41.9906C277.326 42.4033 277.018 42.9454 277.018 43.6169C277.018 43.9972 277.148 44.4261 277.415 44.8873C277.649 45.4698 277.763 45.9391 277.763 46.2951C277.763 46.7644 277.585 47.1447 277.237 47.436C276.889 47.7273 276.42 47.8729 275.829 47.8729C275.157 47.8729 274.631 47.6221 274.267 47.1285C273.903 46.6269 273.717 45.9148 273.717 44.9763C273.717 43.4794 274.348 42.2819 275.602 41.3757C276.865 40.4695 278.499 40.0164 280.522 40.0164C282.545 40.0164 284.171 40.5828 285.312 41.7074C286.453 42.8321 287.027 44.5717 287.027 46.9101V61.102L287.043 61.1101Z" fill="white"/>
<path fill-rule="evenodd" clip-rule="evenodd" d="M313.028 47.4271C313.369 48.305 313.538 49.2184 313.646 50.1499L313.655 50.1486C313.671 50.2504 313.686 50.3527 313.701 50.4553C313.731 50.6608 313.762 50.8669 313.8 51.0701C313.901 51.6342 314.122 51.8577 314.679 51.7913C315.844 51.6548 317.009 51.497 318.16 51.2779C318.949 51.1284 319.268 50.6506 319.061 49.8743C318.881 49.194 318.762 48.5021 318.643 47.8109C318.589 47.4985 318.535 47.1863 318.475 46.8754C318.35 46.229 318.135 45.6104 317.919 44.9901C317.868 44.8416 317.816 44.6929 317.766 44.5437C317.525 43.8329 317.479 43.0934 317.433 42.3545C317.407 41.9523 317.382 41.5504 317.326 41.1534C317.13 39.7741 318.531 38.3937 319.925 38.6149C320.424 38.6931 320.878 38.6216 321.339 38.4305C322.607 37.9009 323.912 37.5306 325.303 37.5406C325.667 37.5425 326.018 37.4577 326.366 37.331C326.476 37.2914 326.585 37.2512 326.694 37.2109C327.475 36.9232 328.249 36.6376 329.11 36.6286C330.112 36.6192 330.304 36.3053 330.14 35.3149C330.033 34.663 329.833 34.037 329.634 33.4107C329.469 32.8908 329.303 32.3707 329.19 31.8353C329.121 31.4991 328.806 31.4088 328.488 31.4376C328.142 31.4667 327.808 31.553 327.486 31.6883C326.602 32.0687 325.716 32.39 324.733 32.0873C324.635 32.0562 324.522 32.0613 324.422 32.0769C323.957 32.1488 323.489 32.2072 323.022 32.2656C321.979 32.396 320.936 32.5263 319.921 32.8058C319.893 32.8138 319.864 32.8217 319.835 32.8297C318.84 33.1058 317.881 33.3716 316.831 33.0759C316.449 32.9665 316.141 32.8371 315.969 32.4958C315.76 32.0886 314.964 27.4017 314.191 22.8568C314.027 21.894 313.865 20.9375 313.709 20.0295C313.762 19.8567 313.792 19.6723 313.788 19.4712C313.775 18.8751 313.666 18.294 313.557 17.713C313.471 17.2576 313.386 16.8022 313.346 16.3395C313.277 15.4926 313.114 14.6605 312.952 13.8292C312.825 13.183 312.698 12.5373 312.616 11.8854C312.598 11.7372 312.579 11.589 312.561 11.4409C312.411 10.2198 312.261 9.00424 311.839 7.82831C311.639 7.27337 311.516 6.69525 311.393 6.11573C311.275 5.56111 311.157 5.0052 310.971 4.46709C310.598 3.38672 309.83 2.97391 308.759 3.32443C308.425 3.43621 308.083 3.46883 307.738 3.42577C307.4 3.38141 307.086 3.45623 306.781 3.58891C306.175 3.85774 306.055 4.13928 306.194 4.78219C306.27 5.13174 306.346 5.48174 306.422 5.83169C306.614 6.71109 306.805 7.5902 307.005 8.4613C307.282 9.66137 307.444 10.8785 307.606 12.0952C307.796 13.5175 307.985 14.9392 308.357 16.3321C308.694 17.5834 308.929 18.8633 308.91 20.1705L308.904 20.1629C308.953 20.6096 309.102 21.0282 309.251 21.4471C309.392 21.8442 309.534 22.2416 309.59 22.6635C309.615 22.8592 309.707 23.0426 309.838 23.201C310.691 28.3444 311.576 33.3467 311.646 33.7387C311.721 34.1588 311.422 34.4938 311.036 34.6773C310.69 34.846 310.338 34.8717 310.038 34.5505C309.91 34.4139 309.741 34.36 309.562 34.4052C309.175 34.504 308.781 34.5213 308.385 34.5386C307.947 34.5578 307.506 34.5771 307.073 34.7076C306.628 34.8438 306.166 34.9144 305.704 34.9853C305.042 35.0867 304.378 35.1884 303.756 35.4831C303.067 35.8117 302.315 35.824 301.57 35.7677C301.181 35.7399 300.792 35.7478 300.402 35.7556C300.104 35.7616 299.805 35.7676 299.506 35.7577C298.68 35.7308 298.254 36.4669 298.525 37.2458C298.734 37.8481 298.886 38.4677 298.97 39.1067C299.159 40.5547 299.689 41.098 301.221 40.8232C302.021 40.6806 302.819 40.6817 303.615 40.6827C304.415 40.6838 305.212 40.6848 306.008 40.5406C306.428 40.4642 306.855 40.4213 307.282 40.3785C308.257 40.2805 309.231 40.1826 310.125 39.6857C310.281 39.5978 310.456 39.6083 310.633 39.6271C311.645 39.7389 312.111 40.14 312.223 41.2613C312.293 41.9565 312.392 42.6479 312.49 43.3391C312.635 44.3597 312.78 45.38 312.834 46.4116C312.851 46.7604 312.901 47.1041 313.028 47.4271Z" fill="white"/>
<path fill-rule="evenodd" clip-rule="evenodd" d="M24.5034 25.829C24.3168 24.9058 24.3058 23.9769 24.3578 23.0406L24.3495 23.0404C24.351 22.9374 24.3535 22.834 24.3561 22.7303C24.3611 22.5226 24.3661 22.3143 24.3637 22.1077C24.3599 21.5346 24.1798 21.2766 23.6197 21.2471C22.4493 21.1832 21.2744 21.1402 20.1027 21.1599C19.2993 21.1727 18.9039 21.5892 18.9753 22.3893C19.0366 23.0904 19.0364 23.7926 19.0362 24.4939C19.0361 24.8109 19.036 25.1278 19.0415 25.4443C19.0551 26.1026 19.1614 26.7488 19.268 27.3967C19.2936 27.5519 19.3191 27.7072 19.3434 27.8628C19.4594 28.6041 19.379 29.3408 19.2986 30.0768C19.2549 30.4773 19.2112 30.8776 19.1992 31.2785C19.157 32.6709 17.5418 33.7925 16.2058 33.337C15.7272 33.1749 15.2671 33.1678 14.7802 33.2775C13.441 33.5834 12.0917 33.7259 10.7233 33.4791C10.3645 33.415 10.0044 33.4388 9.6394 33.5044C9.52471 33.5247 9.41026 33.5457 9.29593 33.5668C8.47776 33.7173 7.66578 33.8667 6.81632 33.729C5.8273 33.5674 5.58463 33.844 5.57765 34.8479C5.57212 35.5085 5.66169 36.1593 5.7513 36.8104C5.82568 37.3509 5.9001 37.8916 5.9202 38.4384C5.93169 38.7816 6.22651 38.9242 6.54406 38.9499C6.89083 38.9803 7.23431 38.9521 7.57437 38.8737C8.51071 38.6495 9.4378 38.4838 10.3552 38.9496C10.4465 38.997 10.5593 39.0113 10.6596 39.0128C11.1305 39.0213 11.6011 39.0434 12.0714 39.0655C13.122 39.1148 14.1713 39.1641 15.2189 39.0616C15.2486 39.0587 15.2782 39.0557 15.3078 39.0528C16.3359 38.9503 17.3257 38.8517 18.3107 39.3222C18.6678 39.495 18.9495 39.675 19.0611 40.0407C19.1971 40.4775 19.1833 45.2315 19.17 49.8416C19.1672 50.82 19.1643 51.792 19.163 52.7147C19.0819 52.8752 19.0218 53.0509 18.9918 53.2486C18.903 53.8383 18.9115 54.4294 18.9201 55.0206C18.9267 55.4839 18.9334 55.9472 18.8932 56.4098C18.8168 57.2561 18.8356 58.1037 18.8544 58.9507C18.8691 59.609 18.8837 60.2668 18.8535 60.9232C18.8467 61.0724 18.8394 61.2215 18.8322 61.3706C18.7721 62.5994 18.7122 63.8226 18.9285 65.0534C19.0307 65.6343 19.0531 66.2249 19.0756 66.8169C19.0971 67.3834 19.1186 67.9513 19.2103 68.5133C19.3938 69.6414 20.0801 70.179 21.1954 70.0162C21.5434 69.9629 21.886 69.9891 22.2192 70.0904C22.5439 70.1916 22.8664 70.1714 23.1897 70.0927C23.8322 69.931 23.9993 69.6742 23.9717 69.0169C23.9557 68.6595 23.9405 68.3018 23.9252 67.944C23.8868 67.0449 23.8484 66.146 23.7991 65.2534C23.7311 64.0237 23.7787 62.7967 23.8262 61.5702C23.8818 60.1364 23.9374 58.7032 23.8083 57.2673C23.6899 55.9769 23.6763 54.6757 23.9177 53.3909L23.9218 53.3993C23.9501 52.9509 23.8746 52.513 23.7991 52.0748C23.7275 51.6594 23.6559 51.2437 23.6726 50.8185C23.681 50.6204 23.6207 50.423 23.5178 50.2439C23.5545 45.0306 23.5343 39.9507 23.5323 39.5527C23.5304 39.1259 23.8819 38.8468 24.2937 38.7318C24.6635 38.6245 25.0144 38.6591 25.2556 39.0268C25.3578 39.1831 25.5155 39.265 25.6998 39.2511C26.0972 39.2195 26.4886 39.2697 26.8816 39.32C27.317 39.3759 27.7543 39.4319 28.2037 39.3772C28.6657 39.3189 29.1323 39.3279 29.5998 39.3369C30.2693 39.3497 30.9408 39.3626 31.6037 39.1782C32.339 38.9719 33.0819 39.0878 33.807 39.2704C34.1849 39.3639 34.5699 39.4226 34.9557 39.4814C35.2507 39.5263 35.5461 39.5713 35.8389 39.632C36.6479 39.7991 37.1933 39.1465 37.0594 38.3329C36.956 37.7038 36.9114 37.0672 36.9379 36.4233C36.9979 34.9642 36.5682 34.3385 35.0118 34.3482C34.1996 34.3525 33.4135 34.2154 32.629 34.0787C31.8415 33.9415 31.0557 33.8045 30.2467 33.811C29.8199 33.8146 29.3921 33.7842 28.9642 33.7537C27.987 33.6841 27.0097 33.6144 26.0443 33.9517C25.8761 34.0119 25.7051 33.9717 25.5344 33.923C24.5556 33.6403 24.1654 33.1658 24.2453 32.0417C24.2948 31.3447 24.3157 30.6467 24.3366 29.9488C24.3674 28.9184 24.3982 27.8883 24.5211 26.8626C24.5641 26.516 24.5736 26.1689 24.5034 25.829Z" fill="white"/>
<path d="M27.6947 44.9094C25.7764 43.3437 24.3561 41.5622 21.7001 40.9323C19.3391 40.3744 20.8516 38.251 21.3496 37.0092C22.069 35.1917 23.2126 36.3254 24.1717 37.0092C26.8462 38.9168 27.3258 41.8321 27.6947 44.9274V44.9094Z" fill="white"/>
<path d="M320.594 22.264C319.741 21.5523 319.11 20.7425 317.93 20.4562C316.88 20.2026 317.553 19.2374 317.774 18.673C318.094 17.8468 318.602 18.3622 319.028 18.673C320.217 19.5401 320.43 20.8652 320.594 22.2721V22.264Z" fill="white"/>
<path d="M3.82583 40.0727C2.92187 39.3085 0.896327 40.5703 0.996767 38.6865C1.06373 37.4248 2.20205 35.8786 3.8928 36.0386C5.3994 36.1807 6.83904 36.9805 6.63816 38.8287C6.45402 40.6591 4.76327 39.6284 3.80909 40.0727H3.82583Z" fill="white"/>
<path d="M298.343 14.1786C297.439 13.4145 295.413 14.6762 295.514 12.7925C295.581 11.5307 296.719 9.98457 298.41 10.1445C299.916 10.2867 301.356 11.0864 301.155 12.9346C300.971 14.7651 299.28 13.7344 298.326 14.1786H298.343Z" fill="white"/>
<path d="M17.1352 43.1837C17.3513 44.786 16.7816 45.7329 14.8959 45.7329C13.0692 45.7329 11.4388 44.2034 11.5174 43.384C11.7138 41.5449 14.1102 41.2718 15.7013 40.9258C17.3316 40.5798 17.0173 42.2004 17.1352 43.1655V43.1837Z" fill="white"/>
<path d="M311.652 17.2947C311.868 18.8971 311.299 19.844 309.413 19.844C307.586 19.844 305.956 18.3145 306.034 17.4951C306.231 15.656 308.627 15.3828 310.218 15.0369C311.849 14.6909 311.534 16.3115 311.652 17.2766V17.2947Z" fill="white"/>
<path d="M26.8849 75.5762C25.2049 74.6809 22.3422 77.5951 22.6507 72.9604C22.7193 71.9949 19.6851 70.5728 18.7937 68.3783C21.0736 68.2379 24.005 66.4648 25.2049 68.7119C26.0449 70.3095 25.9763 72.9604 26.8849 75.5586V75.5762Z" fill="white"/>
<path d="M321.407 49.6822C319.727 48.7868 316.864 51.7011 317.173 47.0664C317.242 46.1008 314.207 44.6788 313.316 42.4843C315.596 42.3439 318.527 40.5707 319.727 42.8179C320.567 44.4154 320.499 47.0663 321.407 49.6646V49.6822Z" fill="white"/>
<rect x="49.2158" y="79.1892" width="241.628" height="1.61085" fill="white"/>
</svg>
