<svg width="299" height="80" viewBox="0 0 299 80" fill="none" xmlns="http://www.w3.org/2000/svg">
<rect x="48.5527" y="68" width="209" height="2" fill="white"/>
<path d="M54.1841 25.0938C54.1841 24.1182 54.0659 23.394 53.8294 22.921C53.5929 22.448 53.1495 22.1081 52.4992 21.9012C51.8488 21.6942 50.8289 21.5908 49.4396 21.5908V20.5266H54.6276H58.707H63.895V21.5908C62.5056 21.5908 61.4858 21.6942 60.8354 21.9012C60.1851 22.1081 59.7416 22.448 59.5052 22.921C59.2687 23.394 59.1504 24.1182 59.1504 25.0938V51.4328C59.1504 52.4083 59.2687 53.1326 59.5052 53.6055C59.7416 54.0785 60.1851 54.4185 60.8354 54.6254C61.4858 54.8323 62.5056 54.9358 63.895 54.9358V56H58.707H54.6276H49.4396V54.9358C50.8289 54.9358 51.8488 54.8323 52.4992 54.6254C53.1495 54.4185 53.5929 54.0785 53.8294 53.6055C54.0659 53.1326 54.1841 52.4083 54.1841 51.4328V25.0938ZM79.3457 36.8887C78.784 36.8887 78.3406 36.7852 78.0154 36.5783C77.6903 36.3714 77.4094 36.061 77.1729 35.6471C76.9956 35.3811 76.833 35.1889 76.6852 35.0707C76.5374 34.9524 76.36 34.8933 76.1531 34.8933C75.5323 34.8933 74.9263 35.2037 74.3351 35.8245C73.7734 36.4453 73.1083 37.4503 72.3397 38.8397V36.3122H72.4727C73.1822 35.0115 74.0247 33.9178 75.0002 33.0309C75.9757 32.1441 77.1138 31.7007 78.4145 31.7007C79.39 31.7007 80.1734 31.952 80.7646 32.4545C81.3854 32.9275 81.6958 33.5778 81.6958 34.4055C81.6958 35.115 81.4889 35.7062 81.075 36.1792C80.6612 36.6522 80.0847 36.8887 79.3457 36.8887ZM68.1716 38.0859V37.7755C68.1716 36.8 68.1272 36.1349 68.0385 35.7801C67.9498 35.4254 67.7281 35.248 67.3734 35.248C67.0482 35.2185 66.457 35.3958 65.5997 35.7801L65.2007 34.849L68.5706 33.297L71.7189 31.7007L72.3397 32.3215V51.4328C72.3397 52.4379 72.4431 53.1769 72.6501 53.6499C72.8866 54.1229 73.33 54.4628 73.9803 54.6697C74.6307 54.8471 75.6505 54.9358 77.0399 54.9358V56H71.6746H68.615H65.0233V54.9358C65.9397 54.9358 66.6196 54.8471 67.063 54.6697C67.5064 54.4628 67.802 54.1229 67.9498 53.6499C68.0977 53.1769 68.1716 52.4379 68.1716 51.4328V38.0859ZM107.901 52.9848C107.901 53.7238 107.96 54.2559 108.078 54.5811C108.196 54.9062 108.462 55.0688 108.876 55.0688C109.231 55.0688 109.512 54.921 109.719 54.6254C109.926 54.3298 110.177 53.7829 110.473 52.9848H111.492L111.448 53.2065C111.064 54.4776 110.591 55.4088 110.029 56C109.497 56.5912 108.655 56.8868 107.502 56.8868C106.231 56.8868 105.285 56.5173 104.664 55.7783C104.043 55.0393 103.733 53.9455 103.733 52.497V38.6624C103.733 37.4208 103.659 36.4157 103.511 35.6471C103.363 34.8785 103.038 34.2873 102.535 33.8734C102.033 33.4596 101.309 33.2527 100.363 33.2527C99.4758 33.2527 98.7368 33.4448 98.1456 33.8291C97.5839 34.2134 97.3031 34.7307 97.3031 35.3811C97.3031 35.7654 97.4213 36.194 97.6578 36.667C97.8943 37.2582 98.0125 37.746 98.0125 38.1303C98.0125 38.6624 97.7908 39.091 97.3474 39.4162C96.9336 39.7413 96.3719 39.9039 95.6624 39.9039C94.8938 39.9039 94.2878 39.6379 93.8444 39.1058C93.4306 38.5737 93.2236 37.8199 93.2236 36.8443C93.2236 35.3072 93.9183 34.0656 95.3077 33.1196C96.6971 32.1737 98.4855 31.7007 100.673 31.7007C102.949 31.7007 104.723 32.2919 105.994 33.4744C107.265 34.6568 107.901 36.4157 107.901 38.751V52.9848ZM103.777 52.3196H103.644C103.644 52.3492 103.629 52.364 103.6 52.364C103.6 52.364 103.6 52.3788 103.6 52.4083C102.89 53.5908 102.018 54.6402 100.983 55.5566C99.9488 56.4434 98.6185 56.8868 96.9927 56.8868C95.4259 56.8868 94.1991 56.3843 93.3123 55.3792C92.4255 54.3741 91.9821 53.0143 91.9821 51.2998C91.9821 49.6443 92.3664 48.2697 93.1349 47.176C93.9331 46.0527 94.8938 45.151 96.0172 44.4711C97.1405 43.7912 98.6777 43.0226 100.629 42.1654L101.649 41.7219L103.733 40.7464V42.3871L101.782 43.3182C99.9488 44.2051 98.5446 45.1954 97.5691 46.2891C96.5936 47.3829 96.1058 48.6836 96.1058 50.1912C96.1058 51.3441 96.3719 52.2309 96.904 52.8517C97.4361 53.4725 98.1456 53.7829 99.0324 53.7829C99.8897 53.7829 100.673 53.5316 101.383 53.0291C102.092 52.5266 102.89 51.6988 103.777 50.546V52.3196ZM122.732 43.4069H123.796C123.855 45.7423 124.284 47.7968 125.082 49.5704C125.91 51.3441 127.004 52.7039 128.363 53.6499C129.723 54.5958 131.201 55.0688 132.798 55.0688C134.601 55.0688 136.02 54.5663 137.054 53.5612C138.119 52.5266 138.651 51.152 138.651 49.4374C138.651 48.3141 138.34 47.2351 137.72 46.2005C137.099 45.1658 136.301 44.1903 135.325 43.2739C134.379 42.3575 133.093 41.2194 131.467 39.8596C131.231 39.6822 130.994 39.5049 130.758 39.3275C130.521 39.1206 130.285 38.9136 130.048 38.7067C128.068 37.0217 126.59 35.6767 125.614 34.6716C124.668 33.6665 123.944 32.6023 123.442 31.479C122.939 30.3557 122.688 29.0402 122.688 27.5326C122.688 25.8771 123.072 24.4582 123.841 23.2758C124.609 22.0637 125.659 21.1621 126.989 20.5709C128.319 19.9501 129.797 19.6397 131.423 19.6397C132.872 19.6397 134.069 19.8614 135.015 20.3049C135.99 20.7187 136.951 21.2804 137.897 21.9898C138.163 22.1672 138.414 22.3298 138.651 22.4776C138.887 22.6254 139.094 22.6993 139.272 22.6993C139.508 22.6993 139.671 22.5515 139.759 22.2559C139.878 21.9307 139.937 21.2952 139.937 20.3492H141.001V30.7695H139.937C139.878 28.9367 139.508 27.3256 138.828 25.9363C138.148 24.5173 137.202 23.4236 135.99 22.655C134.808 21.8568 133.448 21.4577 131.911 21.4577C130.167 21.4577 128.851 21.9012 127.964 22.788C127.078 23.6453 126.634 24.7095 126.634 25.9806C126.634 26.8674 126.856 27.7099 127.299 28.5081C127.772 29.3062 128.349 30.0453 129.029 30.7252C129.709 31.3755 130.669 32.218 131.911 33.2527C132.118 33.43 132.339 33.6222 132.576 33.8291C132.812 34.0065 133.034 34.1986 133.241 34.4055C133.507 34.6125 133.744 34.8194 133.951 35.0263C134.187 35.2037 134.424 35.3958 134.66 35.6028C136.729 37.3764 138.266 38.7954 139.272 39.8596C140.306 40.8942 141.119 42.0619 141.71 43.3626C142.302 44.6337 142.597 46.1413 142.597 47.8855C142.597 49.7478 142.154 51.3589 141.267 52.7187C140.41 54.0785 139.257 55.1132 137.808 55.8226C136.389 56.5321 134.896 56.8868 133.33 56.8868C131.674 56.8868 130.329 56.6651 129.295 56.2217C128.26 55.7783 127.24 55.2018 126.235 54.4924C125.939 54.2559 125.659 54.0637 125.393 53.9159C125.156 53.7386 124.934 53.6499 124.727 53.6499C124.373 53.6499 124.121 53.842 123.974 54.2263C123.855 54.5811 123.796 55.2314 123.796 56.1774H122.732V43.4069ZM158.753 52.3196H158.62C157.644 53.7386 156.61 54.8619 155.516 55.6896C154.422 56.4878 153.195 56.8868 151.836 56.8868C148.672 56.8868 147.091 54.7584 147.091 50.5016V37.5095V37.2434C147.091 36.2679 147.032 35.588 146.914 35.2037C146.795 34.8194 146.544 34.6125 146.16 34.5829C145.805 34.5238 145.184 34.6273 144.297 34.8933L143.987 33.9178L147.534 32.7649L150.638 32.0111L151.259 32.5875V50.5016C151.259 51.6841 151.451 52.5857 151.836 53.2065C152.249 53.7977 152.87 54.0933 153.698 54.0933C154.526 54.0933 155.339 53.7829 156.137 53.1621C156.964 52.5413 157.836 51.6545 158.753 50.5016V37.5095V37.2434C158.753 36.2679 158.694 35.588 158.575 35.2037C158.457 34.8194 158.206 34.6125 157.822 34.5829C157.467 34.5238 156.846 34.6273 155.959 34.8933L155.649 33.9178L159.196 32.7649L162.3 32.0111L162.921 32.5875V50.546V50.812C162.921 51.8171 162.951 52.497 163.01 52.8517C163.098 53.2065 163.305 53.3986 163.63 53.4282C163.956 53.4282 164.517 53.2508 165.315 52.8961L165.759 53.8273L162.522 55.2905L159.374 56.8868L158.753 56.2661V52.3196ZM167.812 25.9806V25.7146C167.812 24.7095 167.768 24.0296 167.679 23.6748C167.59 23.3201 167.383 23.1427 167.058 23.1427C166.763 23.1132 166.201 23.2758 165.373 23.6305L164.93 22.6993L168.211 21.236L171.359 19.6397L171.936 20.2605V36.1792H172.113C173.207 34.7307 174.301 33.6222 175.395 32.8536C176.488 32.085 177.715 31.7007 179.075 31.7007C180.464 31.7007 181.676 32.1293 182.711 32.9866C183.775 33.8439 184.603 35.1002 185.194 36.7557C185.785 38.3815 186.081 40.3326 186.081 42.6088C186.081 45.2397 185.682 47.649 184.884 49.8365C184.115 51.9945 182.992 53.709 181.514 54.9801C180.065 56.2513 178.395 56.8868 176.503 56.8868C175.055 56.8868 173.68 56.606 172.379 56.0443C171.108 55.5122 169.778 54.7584 168.389 53.7829L167.812 53.3838V25.9806ZM171.936 52.4527C172.645 53.2508 173.34 53.8864 174.02 54.3594C174.7 54.8323 175.439 55.0688 176.237 55.0688C178.011 55.0688 179.297 53.9751 180.095 51.7875C180.922 49.6 181.336 46.9691 181.336 43.8947C181.336 40.7021 180.982 38.3372 180.272 36.8C179.563 35.2628 178.543 34.4942 177.213 34.4942C176.178 34.4942 175.276 34.8046 174.508 35.4254C173.739 36.0166 172.897 36.8591 171.98 37.9529C171.98 37.9529 171.965 37.9677 171.936 37.9972V52.4527ZM204.278 52.9848C204.278 53.7238 204.337 54.2559 204.456 54.5811C204.574 54.9062 204.84 55.0688 205.254 55.0688C205.609 55.0688 205.889 54.921 206.096 54.6254C206.303 54.3298 206.555 53.7829 206.85 52.9848H207.87L207.826 53.2065C207.441 54.4776 206.968 55.4088 206.407 56C205.875 56.5912 205.032 56.8868 203.879 56.8868C202.608 56.8868 201.662 56.5173 201.041 55.7783C200.421 55.0393 200.11 53.9455 200.11 52.497V38.6624C200.11 37.4208 200.036 36.4157 199.889 35.6471C199.741 34.8785 199.416 34.2873 198.913 33.8734C198.41 33.4596 197.686 33.2527 196.74 33.2527C195.853 33.2527 195.114 33.4448 194.523 33.8291C193.961 34.2134 193.681 34.7307 193.681 35.3811C193.681 35.7654 193.799 36.194 194.035 36.667C194.272 37.2582 194.39 37.746 194.39 38.1303C194.39 38.6624 194.168 39.091 193.725 39.4162C193.311 39.7413 192.749 39.9039 192.04 39.9039C191.271 39.9039 190.665 39.6379 190.222 39.1058C189.808 38.5737 189.601 37.8199 189.601 36.8443C189.601 35.3072 190.296 34.0656 191.685 33.1196C193.075 32.1737 194.863 31.7007 197.051 31.7007C199.327 31.7007 201.101 32.2919 202.372 33.4744C203.643 34.6568 204.278 36.4157 204.278 38.751V52.9848ZM200.155 52.3196H200.022C200.022 52.3492 200.007 52.364 199.977 52.364C199.977 52.364 199.977 52.3788 199.977 52.4083C199.268 53.5908 198.396 54.6402 197.361 55.5566C196.326 56.4434 194.996 56.8868 193.37 56.8868C191.804 56.8868 190.577 56.3843 189.69 55.3792C188.803 54.3741 188.36 53.0143 188.36 51.2998C188.36 49.6443 188.744 48.2697 189.513 47.176C190.311 46.0527 191.271 45.151 192.395 44.4711C193.518 43.7912 195.055 43.0226 197.006 42.1654L198.026 41.7219L200.11 40.7464V42.3871L198.159 43.3182C196.326 44.2051 194.922 45.1954 193.947 46.2891C192.971 47.3829 192.483 48.6836 192.483 50.1912C192.483 51.3441 192.749 52.2309 193.282 52.8517C193.814 53.4725 194.523 53.7829 195.41 53.7829C196.267 53.7829 197.051 53.5316 197.76 53.0291C198.47 52.5266 199.268 51.6988 200.155 50.546V52.3196ZM209.069 47.5307H210.089C210.414 49.7774 211.138 51.5954 212.261 52.9848C213.385 54.3741 214.804 55.0688 216.518 55.0688C217.434 55.0688 218.129 54.8176 218.602 54.315C219.075 53.7829 219.312 53.0439 219.312 52.0979C219.312 51.2998 219.134 50.5755 218.78 49.9252C218.425 49.2453 217.937 48.5949 217.316 47.9741C216.695 47.3238 215.868 46.5404 214.833 45.624L214.345 45.2249C214.227 45.0771 214.094 44.9589 213.946 44.8702C213.798 44.752 213.68 44.6337 213.592 44.5155C212.527 43.5991 211.685 42.8157 211.064 42.1654C210.443 41.4855 209.941 40.7464 209.556 39.9483C209.202 39.1501 209.024 38.2485 209.024 37.2434C209.024 35.6176 209.556 34.2873 210.621 33.2527C211.714 32.218 213.119 31.7007 214.833 31.7007C215.779 31.7007 216.548 31.8337 217.139 32.0998C217.76 32.3363 218.366 32.6467 218.957 33.0309C219.4 33.3266 219.711 33.4744 219.888 33.4744C220.125 33.4744 220.272 33.3857 220.331 33.2083C220.391 33.0014 220.42 32.6467 220.42 32.1441H221.44V39.4605H220.42C220.095 37.746 219.445 36.3418 218.469 35.248C217.523 34.1247 216.37 33.563 215.01 33.563C214.153 33.563 213.518 33.7995 213.104 34.2725C212.69 34.7455 212.483 35.2924 212.483 35.9132C212.483 36.7113 212.719 37.4503 213.192 38.1303C213.695 38.8102 214.478 39.6231 215.543 40.5691L216.828 41.7219L217.715 42.4758C218.986 43.5695 219.962 44.5155 220.642 45.3136C221.351 46.1118 221.883 46.9543 222.238 47.8411C222.593 48.6984 222.77 49.6887 222.77 50.812C222.77 52.7926 222.179 54.3002 220.997 55.3349C219.814 56.3695 218.366 56.8868 216.651 56.8868C215.646 56.8868 214.789 56.7686 214.079 56.5321C213.37 56.2956 212.66 55.9852 211.951 55.6009C211.419 55.2758 211.034 55.1132 210.798 55.1132C210.532 55.1132 210.34 55.2166 210.222 55.4236C210.133 55.6305 210.089 55.9704 210.089 56.4434H209.069V47.5307ZM237.412 46.2448C237.412 48.7279 237.265 50.7381 236.969 52.2753C236.673 53.7829 236.141 54.9358 235.373 55.7339C234.634 56.5025 233.584 56.8868 232.224 56.8868C230.392 56.8868 229.002 56.2513 228.056 54.9801C227.11 53.6794 226.637 51.5806 226.637 48.6836V34.4499H223.179V32.5875C224.568 32.558 225.677 32.3363 226.504 31.9224C227.362 31.5085 228.027 30.8582 228.5 29.9714C228.973 29.0845 229.268 27.843 229.387 26.2467H230.761V32.5875H235.905V34.4499H230.761V47.2647C230.761 48.9201 230.82 50.2356 230.939 51.2111C231.057 52.157 231.308 52.9109 231.692 53.4725C232.077 54.0046 232.668 54.2707 233.466 54.2707C234.146 54.2707 234.693 54.0194 235.107 53.5169C235.52 52.9848 235.831 52.1423 236.038 50.9894C236.245 49.8069 236.363 48.2254 236.393 46.2448H237.412ZM254.821 52.9848C254.821 53.7238 254.881 54.2559 254.999 54.5811C255.117 54.9062 255.383 55.0688 255.797 55.0688C256.152 55.0688 256.433 54.921 256.639 54.6254C256.846 54.3298 257.098 53.7829 257.393 52.9848H258.413L258.369 53.2065C257.984 54.4776 257.511 55.4088 256.95 56C256.418 56.5912 255.575 56.8868 254.422 56.8868C253.151 56.8868 252.205 56.5173 251.584 55.7783C250.964 55.0393 250.653 53.9455 250.653 52.497V38.6624C250.653 37.4208 250.579 36.4157 250.432 35.6471C250.284 34.8785 249.959 34.2873 249.456 33.8734C248.954 33.4596 248.229 33.2527 247.283 33.2527C246.396 33.2527 245.657 33.4448 245.066 33.8291C244.505 34.2134 244.224 34.7307 244.224 35.3811C244.224 35.7654 244.342 36.194 244.578 36.667C244.815 37.2582 244.933 37.746 244.933 38.1303C244.933 38.6624 244.711 39.091 244.268 39.4162C243.854 39.7413 243.293 39.9039 242.583 39.9039C241.814 39.9039 241.208 39.6379 240.765 39.1058C240.351 38.5737 240.144 37.8199 240.144 36.8443C240.144 35.3072 240.839 34.0656 242.228 33.1196C243.618 32.1737 245.406 31.7007 247.594 31.7007C249.87 31.7007 251.644 32.2919 252.915 33.4744C254.186 34.6568 254.821 36.4157 254.821 38.751V52.9848ZM250.698 52.3196H250.565C250.565 52.3492 250.55 52.364 250.52 52.364C250.52 52.364 250.52 52.3788 250.52 52.4083C249.811 53.5908 248.939 54.6402 247.904 55.5566C246.869 56.4434 245.539 56.8868 243.913 56.8868C242.347 56.8868 241.12 56.3843 240.233 55.3792C239.346 54.3741 238.903 53.0143 238.903 51.2998C238.903 49.6443 239.287 48.2697 240.056 47.176C240.854 46.0527 241.814 45.151 242.938 44.4711C244.061 43.7912 245.598 43.0226 247.549 42.1654L248.569 41.7219L250.653 40.7464V42.3871L248.702 43.3182C246.869 44.2051 245.465 45.1954 244.49 46.2891C243.514 47.3829 243.027 48.6836 243.027 50.1912C243.027 51.3441 243.293 52.2309 243.825 52.8517C244.357 53.4725 245.066 53.7829 245.953 53.7829C246.81 53.7829 247.594 53.5316 248.303 53.0291C249.013 52.5266 249.811 51.6988 250.698 50.546V52.3196Z" fill="white"/>
<path d="M207.337 38.3242C207.447 36.8032 208.931 35.4375 207.575 33.6926C206.921 32.8476 208.099 31.8257 208.28 30.8208C208.372 30.3222 209.349 30.4937 210.005 30.646C210.706 30.8119 211.165 30.9134 210.528 31.6991C210.446 31.8033 210.409 32.0879 210.462 32.1329C212.442 33.6043 211.602 35.4755 211.234 37.2951C211.103 37.9369 210.988 38.6749 211.689 39.0077C212.278 39.2935 214.359 43.3923 211.305 44.2183C209.516 44.7013 207.305 38.7579 207.339 38.332L207.337 38.3242Z" fill="white"/>
<path d="M52.2106 32.894C51.7898 32.4409 50.9969 33.2824 50.6894 32.5542C50.5195 32.1416 50.9079 31.8098 51.183 31.5024C51.895 30.7175 51.7817 32.271 52.4776 31.8098C51.8141 30.5638 53.1249 29.8113 53.3514 28.719C53.5213 27.918 54.3143 27.9422 54.5489 28.0636C55.1234 28.3711 56.3856 28.7918 56.1833 28.986C55.0263 30.0864 56.6122 30.6042 56.5717 31.4781C56.5151 32.7565 55.9406 33.6951 55.3823 34.6984C54.9777 35.4266 54.8321 36.3085 55.2933 36.8506C55.8435 37.4979 55.0667 44.1974 55.1719 45.1117C55.4632 47.8061 52.4533 46.5034 52.2915 44.3592C52.2591 43.9142 52.5747 43.3559 52.0811 43.0485C50.6651 42.1665 51.0616 40.7829 50.7461 39.4802C50.1554 37.0772 51.005 35.3942 52.1216 33.5899C52.2106 33.4442 52.2267 33.2581 52.2672 33.0882C52.2753 33.0397 52.2429 32.983 52.2187 32.8859L52.2106 32.894ZM56.0781 39.3589C55.5846 40.1842 55.6493 41.1228 55.9001 41.9076C56.1348 42.6601 57.2028 37.4655 56.0781 39.3589Z" fill="white"/>
<path d="M95.4579 48.7989C94.9239 48.5643 95.3122 47.8037 94.584 47.6985C94.4141 48.9688 93.5969 49.8589 92.6664 50.7246C91.2586 48.5319 91.7602 46.1046 91.5822 43.7824C91.5579 43.4911 91.4608 43.0704 91.833 43.0866C93.1519 43.1513 94.5517 42.7386 95.7654 43.2969C96.2346 43.5154 97.8691 44.276 96.0566 45.255C95.6359 45.4816 96.1618 45.9913 96.2023 46.3797C96.3075 47.3182 95.9676 48.0707 95.4579 48.7989Z" fill="white"/>
<path d="M253.631 50.7944C252.369 48.5289 252.619 46.231 252.555 43.9654C252.514 42.7113 253.121 43.0026 254.739 43.0997C255.111 43.1239 255.476 43.0592 255.84 43.0187C256.908 42.9055 257.717 44.3943 257.668 44.4428C256.293 45.6484 258.057 47.8654 256.171 48.8363C255.654 48.6745 255.896 47.9382 255.322 47.3314C255.225 48.893 254.626 49.9124 253.631 50.8025V50.7944Z" fill="white"/>
<path d="M194.47 31.2932C193.572 31.2446 193.151 30.4031 192.965 29.4645C192.665 27.9191 196.29 28.0486 196.751 28.5422C197.18 29.0115 195.441 31.2931 194.47 31.2851V31.2932Z" fill="white"/>
<path d="M61.0843 29.4454C60.882 27.908 62.2737 27.8109 63.1394 27.5278C63.7382 27.3336 64.5149 28.0537 64.7981 28.7576C64.9761 29.2026 63.099 31.3306 62.6782 31.2982C61.5778 31.2011 60.9872 30.6348 61.0843 29.4373V29.4454Z" fill="white"/>
<path d="M249.49 34.5767C249.975 33.3873 250.113 32.7319 248.899 32.8694C248.163 32.9504 247.767 32.3435 247.613 31.7043C247.467 31.1137 247.564 30.4906 248.147 30.1589C248.802 29.7867 249.263 30.1265 249.814 30.5796C251.448 31.9066 251.521 32.9665 249.482 34.5848L249.49 34.5767Z" fill="white"/>
<path d="M121.593 35.2115C121.034 34.8959 122.661 33.8764 121.212 33.9088C120.193 33.9331 119.643 33.569 119.586 32.5576C119.554 31.9993 119.408 31.3439 120.144 31.085C121.099 30.7532 121.738 31.4653 122.288 31.975C123.243 32.8569 122.814 34.5804 121.593 35.2115Z" fill="white"/>
<path d="M142.747 29.9936C141.906 29.2897 141.283 28.4886 140.118 28.2055C139.082 27.9546 139.745 26.9999 139.964 26.4416C140.279 25.6244 140.781 26.1341 141.202 26.4416C142.375 27.2992 142.585 28.61 142.747 30.0017V29.9936Z" fill="white"/>
<path d="M137.922 24.8571C137.485 24.5091 136.506 25.0836 136.554 24.226C136.587 23.6515 137.137 22.9475 137.954 23.0204C138.682 23.0851 139.378 23.4492 139.281 24.2907C139.192 25.1241 138.375 24.6548 137.914 24.8571H137.922Z" fill="white"/>
<path d="M134.868 19.0245C134.957 19.7365 134.722 20.1572 133.946 20.1572C133.193 20.1572 132.521 19.4776 132.554 19.1135C132.635 18.2963 133.622 18.1749 134.277 18.0212C134.949 17.8674 134.819 18.5875 134.868 19.0164V19.0245Z" fill="white"/>
<path d="M68.6573 25C69.2722 25.0647 70.0247 25.0566 70.2189 25.9467C70.2917 26.2865 70.0409 26.8934 69.7738 26.6668C69.0942 26.0842 67.9371 26.4402 67.5892 25.6392C67.3789 25.1456 68.1232 25.0405 68.6654 25.0081L68.6573 25Z" fill="white"/>
<path fill-rule="evenodd" clip-rule="evenodd" d="M279.057 58.7308C279.398 59.6087 279.567 60.5221 279.675 61.4536L279.683 61.4523C279.699 61.5541 279.715 61.6565 279.73 61.759C279.76 61.9645 279.791 62.1706 279.828 62.3738C279.93 62.9379 280.151 63.1614 280.708 63.095C281.872 62.9585 283.037 62.8008 284.189 62.5816C284.978 62.4321 285.297 61.9543 285.09 61.1781C284.91 60.4977 284.791 59.8058 284.671 59.1146C284.617 58.8022 284.564 58.49 284.504 58.1791C284.379 57.5327 284.164 56.9141 283.948 56.2939C283.897 56.1453 283.845 55.9966 283.794 55.8474C283.554 55.1367 283.508 54.3971 283.461 53.6582C283.436 53.2561 283.411 52.8541 283.355 52.4571C283.159 51.0778 284.559 49.6974 285.953 49.9186C286.453 49.9968 286.907 49.9253 287.368 49.7342C288.636 49.2046 289.941 48.8343 291.331 48.8443C291.696 48.8463 292.047 48.7615 292.395 48.6347C292.505 48.5951 292.614 48.5549 292.723 48.5147C293.504 48.2269 294.278 47.9413 295.139 47.9323C296.141 47.9229 296.333 47.609 296.169 46.6186C296.061 45.9667 295.862 45.3407 295.663 44.7144C295.498 44.1945 295.332 43.6744 295.219 43.139C295.149 42.8028 294.835 42.7125 294.517 42.7413C294.17 42.7704 293.837 42.8567 293.515 42.992C292.631 43.3724 291.745 43.6937 290.762 43.391C290.664 43.3599 290.55 43.365 290.451 43.3806C289.986 43.4525 289.518 43.5109 289.051 43.5693C288.007 43.6997 286.965 43.83 285.95 44.1095C285.922 44.1175 285.893 44.1254 285.864 44.1334C284.869 44.4095 283.91 44.6753 282.859 44.3796C282.478 44.2702 282.17 44.1408 281.997 43.7995C281.789 43.3923 280.992 38.7054 280.22 34.1605C280.056 33.1977 279.894 32.2412 279.738 31.3332C279.791 31.1604 279.821 30.9761 279.817 30.7749C279.804 30.1788 279.695 29.5977 279.585 29.0167C279.5 28.5613 279.414 28.1059 279.375 27.6432C279.306 26.7963 279.143 25.9642 278.98 25.1329C278.854 24.4867 278.727 23.841 278.645 23.1891C278.626 23.0409 278.608 22.8927 278.59 22.7446C278.44 21.5235 278.29 20.308 277.867 19.132C277.668 18.5771 277.545 17.999 277.422 17.4194C277.304 16.8648 277.186 16.3089 277 15.7708C276.627 14.6904 275.859 14.2776 274.788 14.6281C274.454 14.7399 274.112 14.7725 273.766 14.7295C273.429 14.6851 273.115 14.7599 272.81 14.8926C272.204 15.1615 272.083 15.443 272.223 16.0859C272.299 16.4355 272.375 16.7854 272.451 17.1354C272.642 18.0148 272.833 18.8939 273.034 19.765C273.31 20.9651 273.473 22.1822 273.635 23.3989C273.824 24.8212 274.014 26.2429 274.386 27.6359C274.722 28.8871 274.957 30.1671 274.939 31.4742L274.933 31.4666C274.982 31.9133 275.131 32.3319 275.28 32.7508C275.421 33.1479 275.563 33.5453 275.619 33.9672C275.644 34.1629 275.736 34.3463 275.867 34.5048C276.719 39.6481 277.605 44.6504 277.675 45.0424C277.749 45.4625 277.451 45.7975 277.064 45.981C276.718 46.1497 276.367 46.1754 276.066 45.8542C275.939 45.7176 275.77 45.6637 275.59 45.7089C275.204 45.8078 274.81 45.825 274.414 45.8423C273.976 45.8615 273.535 45.8808 273.102 46.0113C272.656 46.1475 272.195 46.2181 271.733 46.289C271.071 46.3904 270.407 46.4921 269.785 46.7868C269.096 47.1154 268.344 47.1277 267.598 47.0714C267.21 47.0437 266.821 47.0515 266.431 47.0593C266.132 47.0653 265.834 47.0713 265.535 47.0614C264.709 47.0345 264.283 47.7706 264.553 48.5495C264.762 49.1518 264.915 49.7714 264.999 50.4104C265.188 51.8584 265.718 52.4017 267.25 52.127C268.05 51.9843 268.848 51.9854 269.644 51.9864C270.443 51.9875 271.241 51.9885 272.037 51.8443C272.457 51.7679 272.884 51.725 273.311 51.6822C274.285 51.5843 275.26 51.4863 276.154 50.9894C276.31 50.9015 276.485 50.912 276.661 50.9308C277.674 51.0426 278.139 51.4437 278.252 52.565C278.322 53.2602 278.421 53.9516 278.519 54.6428C278.664 55.6634 278.809 56.6837 278.863 57.7153C278.88 58.0642 278.93 58.4078 279.057 58.7308Z" fill="white"/>
<path fill-rule="evenodd" clip-rule="evenodd" d="M28.0628 20.1325C27.8761 19.2092 27.8652 18.2803 27.9171 17.344L27.9088 17.3439C27.9104 17.2409 27.9129 17.1374 27.9154 17.0338C27.9204 16.8261 27.9255 16.6178 27.923 16.4112C27.9193 15.838 27.7391 15.5801 27.179 15.5506C26.0086 15.4867 24.8337 15.4436 23.662 15.4634C22.8586 15.4762 22.4632 15.8927 22.5346 16.6928C22.5959 17.3939 22.5957 18.096 22.5955 18.7974C22.5954 19.1144 22.5953 19.4312 22.6009 19.7478C22.6144 20.4061 22.7207 21.0522 22.8274 21.7001C22.8529 21.8553 22.8784 22.0106 22.9028 22.1662C23.0188 22.9076 22.9383 23.6442 22.858 24.3803C22.8142 24.7808 22.7705 25.1811 22.7585 25.5819C22.7163 26.9744 21.1011 28.096 19.7651 27.6405C19.2865 27.4783 18.8265 27.4713 18.3395 27.581C17.0003 27.8869 15.651 28.0294 14.2826 27.7826C13.9238 27.7185 13.5637 27.7423 13.1987 27.8078C13.084 27.8281 12.9696 27.8492 12.8553 27.8702C12.0371 28.0208 11.2251 28.1702 10.3756 28.0324C9.38663 27.8709 9.14395 28.1475 9.13697 29.1514C9.13145 29.812 9.22101 30.4628 9.31063 31.1139C9.38501 31.6544 9.45942 32.1951 9.47953 32.7419C9.49101 33.0851 9.78584 33.2276 10.1034 33.2534C10.4502 33.2838 10.7936 33.2556 11.1337 33.1771C12.07 32.953 12.9971 32.7873 13.9146 33.2531C14.0059 33.3005 14.1186 33.3148 14.219 33.3163C14.6898 33.3248 15.1604 33.3469 15.6308 33.369C16.6813 33.4183 17.7306 33.4675 18.7782 33.3651C18.8079 33.3621 18.8375 33.3592 18.8672 33.3562C19.8953 33.2538 20.885 33.1552 21.87 33.6257C22.2271 33.7985 22.5088 33.9785 22.6204 34.3442C22.7565 34.7809 22.7427 39.535 22.7293 44.1451C22.7265 45.1238 22.7237 46.096 22.7223 47.019C22.6415 47.1792 22.5815 47.3546 22.5516 47.552C22.4628 48.1416 22.4713 48.7328 22.4798 49.3239C22.4865 49.7872 22.4932 50.2506 22.453 50.7132C22.3765 51.5594 22.3954 52.4071 22.4142 53.254C22.4289 53.9123 22.4435 54.5702 22.4133 55.2265C22.4065 55.3758 22.3992 55.5249 22.3919 55.6739C22.3318 56.9027 22.272 58.126 22.4882 59.3568C22.5905 59.9376 22.6129 60.5282 22.6354 61.1202C22.6569 61.6868 22.6784 62.2547 22.7701 62.8166C22.9536 63.9448 23.6398 64.4824 24.7551 64.3195C25.1032 64.2663 25.4458 64.2924 25.779 64.3938C26.1037 64.4949 26.4262 64.4748 26.7495 64.396C27.392 64.2343 27.5591 63.9775 27.5315 63.3203C27.5155 62.9629 27.5002 62.6051 27.485 62.2474C27.4465 61.3482 27.4081 60.4493 27.3589 59.5567C27.2909 58.3271 27.3385 57.1001 27.386 55.8736C27.4416 54.4398 27.4972 53.0066 27.368 51.5706C27.2497 50.2803 27.2361 48.979 27.4775 47.6942L27.4816 47.7026C27.5099 47.2542 27.4344 46.8163 27.3589 46.3781C27.2873 45.9627 27.2157 45.5471 27.2323 45.1218C27.2408 44.9235 27.1803 44.7258 27.0771 44.5465C27.1138 39.3335 27.0936 34.2542 27.0916 33.8561C27.0898 33.4294 27.4413 33.1503 27.853 33.0352C28.2228 32.9279 28.5737 32.9626 28.8149 33.3302C28.9171 33.4866 29.0748 33.5685 29.2591 33.5546C29.6565 33.5229 30.048 33.5731 30.4409 33.6235C30.8764 33.6793 31.3137 33.7354 31.7631 33.6807C32.225 33.6224 32.6916 33.6314 33.1592 33.6403C33.8286 33.6532 34.5001 33.6661 35.1631 33.4817C35.8983 33.2754 36.6412 33.3913 37.3664 33.5739C37.7442 33.6674 38.1293 33.7261 38.515 33.7848C38.81 33.8298 39.1054 33.8748 39.3982 33.9355C40.2072 34.1026 40.7527 33.45 40.6187 32.6363C40.5154 32.0072 40.4707 31.3707 40.4973 30.7268C40.5572 29.2677 40.1275 28.642 38.5711 28.6516C37.7589 28.6559 36.9728 28.5189 36.1883 28.3822C35.4008 28.2449 34.615 28.108 33.806 28.1144C33.3792 28.1181 32.9514 28.0876 32.5236 28.0571C31.5463 27.9875 30.569 27.9179 29.6037 28.2552C29.4354 28.3154 29.2645 28.2751 29.0937 28.2265C28.1149 27.9438 27.7247 27.4693 27.8046 26.3451C27.8542 25.6482 27.875 24.9501 27.8959 24.2522C27.9267 23.2218 27.9575 22.1917 28.0804 21.166C28.1234 20.8195 28.1329 20.4724 28.0628 20.1325Z" fill="white"/>
<path d="M31.2537 39.2128C29.3355 37.6472 27.9152 35.8656 25.2592 35.2358C22.8982 34.6779 24.4107 32.5544 24.9087 31.3127C25.6281 29.4951 26.7716 30.6289 27.7308 31.3127C30.4053 33.2203 30.8848 36.1356 31.2537 39.2309V39.2128Z" fill="white"/>
<path d="M282.153 19.0376C281.301 18.326 280.67 17.5162 279.489 17.2299C278.44 16.9763 279.112 16.0111 279.333 15.4467C279.653 14.6205 280.161 15.1358 280.588 15.4467C281.776 16.3137 281.99 17.6389 282.153 19.0458V19.0376Z" fill="white"/>
<path d="M7.38541 34.3762C6.48144 33.612 4.4559 34.8738 4.55634 32.99C4.6233 31.7282 5.76162 30.1821 7.45237 30.342C8.95897 30.4842 10.3986 31.2839 10.1977 33.1321C10.0136 34.9626 8.32284 33.9319 7.36866 34.3762H7.38541Z" fill="white"/>
<path d="M273.385 32.5156C272.481 31.7514 270.456 33.0132 270.556 31.1294C270.623 29.8676 271.762 28.3215 273.452 28.4814C274.959 28.6236 276.399 29.4233 276.198 31.2715C276.014 33.102 274.323 32.0713 273.369 32.5156H273.385Z" fill="white"/>
<path d="M20.6948 37.4871C20.9108 39.0895 20.3412 40.0363 18.4555 40.0363C16.6287 40.0363 14.9984 38.5068 15.0769 37.6874C15.2734 35.8484 17.6698 35.5752 19.2609 35.2293C20.8912 34.8833 20.5769 36.5039 20.6948 37.469V37.4871Z" fill="white"/>
<path d="M296.173 30.7759C296.389 32.3783 295.82 33.3252 293.934 33.3252C292.107 33.3252 290.477 31.7957 290.555 30.9763C290.752 29.1372 293.148 28.864 294.739 28.5181C296.37 28.1721 296.055 29.7927 296.173 30.7578V30.7759Z" fill="white"/>
<path d="M30.4447 69.8797C28.7647 68.9843 25.902 71.8986 26.2105 67.2639C26.2791 66.2983 23.2449 64.8763 22.3535 62.6818C24.6334 62.5414 27.5648 60.7682 28.7647 63.0154C29.6047 64.6129 29.5361 67.2638 30.4447 69.8621V69.8797Z" fill="white"/>
<path d="M288.644 61.4646C286.964 60.5693 284.101 63.4835 284.41 58.8488C284.478 57.8833 281.444 56.4612 280.553 54.2668C282.833 54.1263 285.764 52.3532 286.964 54.6003C287.804 56.1979 287.735 58.8488 288.644 61.447V61.4646Z" fill="white"/>
</svg>
